<svg width="147" height="109" viewBox="0 0 147 109" fill="none" xmlns="http://www.w3.org/2000/svg">
<g id="Group 186">
<g id="WILD">
<path d="M11.0506 54.0714L0 0.928574L11.5562 0.5L17.2621 32.5714L23.4013 0.928574L32.0684 0.5L37.7743 32.9286L44.6358 0.928574L54.3863 0.5L42.7579 54.0714H32.2851L26.5792 21.3571L20.7289 54.0714H11.0506Z" fill="black"/>
<path d="M60.0499 54.5V1.35714L70.6671 0.5V53.6428L60.0499 54.5Z" fill="black"/>
<path d="M80.7867 54.0714V1.35714L91.3317 0.5V45.7143H109.099L108.016 54.0714H80.7867Z" fill="black"/>
<path d="M114.643 0.5H125.766C132.892 0.5 138.212 2.7381 141.727 7.21429C145.242 11.6905 147 18.4524 147 27.5C147 32.3095 146.326 36.7143 144.978 40.7143C143.678 44.7143 141.583 47.9524 138.694 50.4286C135.805 52.8571 132.121 54.0714 127.643 54.0714H114.643V0.5ZM126.704 45.7143C130.364 45.7143 132.892 44.1667 134.288 41.0714C135.733 37.9286 136.455 34.0714 136.455 29.5V27.0714C136.455 23.7857 136.238 20.881 135.805 18.3571C135.42 15.7857 134.481 13.5714 132.988 11.7143C131.544 9.80952 129.353 8.85714 126.416 8.85714H125.188V45.7143H126.704Z" fill="black"/>
</g>
<path id="RELATIONSHIP C FFEE" d="M17.1367 78.5693H14.6582V83.5H12.4346V70.7031H16.9346C18.4111 70.7031 19.5508 71.0342 20.3535 71.6963C21.1562 72.3584 21.5576 73.3164 21.5576 74.5703C21.5576 75.4258 21.3496 76.1436 20.9336 76.7236C20.5234 77.2979 19.9492 77.7402 19.2109 78.0508L22.085 83.3857V83.5H19.7031L17.1367 78.5693ZM14.6582 76.7852H16.9434C17.6934 76.7852 18.2793 76.5977 18.7012 76.2227C19.123 75.8418 19.334 75.3232 19.334 74.667C19.334 73.9814 19.1377 73.4512 18.7451 73.0762C18.3584 72.7012 17.7783 72.5078 17.0049 72.4961H14.6582V76.7852ZM31.1465 77.7871H25.8906V81.7246H32.0342V83.5H23.667V70.7031H31.9727V72.4961H25.8906V76.0293H31.1465V77.7871ZM36.0684 81.7246H41.8779V83.5H33.8447V70.7031H36.0684V81.7246ZM50.9219 80.5205H45.9648L44.9277 83.5H42.6162L47.4502 70.7031H49.4453L54.2881 83.5H51.9678L50.9219 80.5205ZM46.5889 78.7275H50.2979L48.4434 73.4189L46.5889 78.7275ZM63.9385 72.4961H59.9482V83.5H57.7422V72.4961H53.7871V70.7031H63.9385V72.4961ZM67.9727 83.5H65.7578V70.7031H67.9727V83.5ZM80.9189 77.4355C80.9189 78.6895 80.7021 79.791 80.2686 80.7402C79.835 81.6836 79.2139 82.4102 78.4053 82.9199C77.6025 83.4238 76.6768 83.6758 75.6279 83.6758C74.5908 83.6758 73.665 83.4238 72.8506 82.9199C72.042 82.4102 71.415 81.6865 70.9697 80.749C70.5303 79.8115 70.3076 78.7305 70.3018 77.5059V76.7852C70.3018 75.5371 70.5215 74.4355 70.9609 73.4805C71.4062 72.5254 72.0303 71.7959 72.833 71.292C73.6416 70.7822 74.5674 70.5273 75.6104 70.5273C76.6533 70.5273 77.5762 70.7793 78.3789 71.2832C79.1875 71.7812 79.8115 72.502 80.251 73.4453C80.6904 74.3828 80.9131 75.4756 80.9189 76.7236V77.4355ZM78.6953 76.7676C78.6953 75.3496 78.4258 74.2627 77.8867 73.5068C77.3535 72.751 76.5947 72.373 75.6104 72.373C74.6494 72.373 73.8965 72.751 73.3516 73.5068C72.8125 74.2568 72.5371 75.3203 72.5254 76.6973V77.4355C72.5254 78.8418 72.7979 79.9287 73.3428 80.6963C73.8936 81.4639 74.6553 81.8477 75.6279 81.8477C76.6123 81.8477 77.3682 81.4727 77.8955 80.7227C78.4287 79.9727 78.6953 78.877 78.6953 77.4355V76.7676ZM93.2852 83.5H91.0615L85.3574 74.4209V83.5H83.1338V70.7031H85.3574L91.0791 79.8174V70.7031H93.2852V83.5ZM102.602 80.2041C102.602 79.6416 102.402 79.208 102.004 78.9033C101.611 78.5986 100.899 78.291 99.8682 77.9805C98.8369 77.6699 98.0166 77.3242 97.4072 76.9434C96.2412 76.2109 95.6582 75.2559 95.6582 74.0781C95.6582 73.0469 96.0771 72.1973 96.915 71.5293C97.7588 70.8613 98.8516 70.5273 100.193 70.5273C101.084 70.5273 101.878 70.6914 102.575 71.0195C103.272 71.3477 103.82 71.8164 104.219 72.4258C104.617 73.0293 104.816 73.7002 104.816 74.4385H102.602C102.602 73.7705 102.391 73.249 101.969 72.874C101.553 72.4932 100.955 72.3027 100.176 72.3027C99.4492 72.3027 98.8838 72.458 98.4795 72.7686C98.0811 73.0791 97.8818 73.5127 97.8818 74.0693C97.8818 74.5381 98.0986 74.9307 98.5322 75.2471C98.9658 75.5576 99.6807 75.8623 100.677 76.1611C101.673 76.4541 102.473 76.791 103.076 77.1719C103.68 77.5469 104.122 77.9805 104.403 78.4727C104.685 78.959 104.825 79.5303 104.825 80.1865C104.825 81.2529 104.415 82.1025 103.595 82.7354C102.78 83.3623 101.673 83.6758 100.272 83.6758C99.3467 83.6758 98.4941 83.5059 97.7148 83.166C96.9414 82.8203 96.3379 82.3457 95.9043 81.7422C95.4766 81.1387 95.2627 80.4355 95.2627 79.6328H97.4863C97.4863 80.3594 97.7266 80.9219 98.207 81.3203C98.6875 81.7188 99.376 81.918 100.272 81.918C101.046 81.918 101.626 81.7627 102.013 81.4521C102.405 81.1357 102.602 80.7197 102.602 80.2041ZM116.937 83.5H114.722V77.8135H109V83.5H106.776V70.7031H109V76.0293H114.722V70.7031H116.937V83.5ZM121.92 83.5H119.705V70.7031H121.92V83.5ZM126.877 78.7451V83.5H124.653V70.7031H129.549C130.979 70.7031 132.112 71.0752 132.95 71.8193C133.794 72.5635 134.216 73.5479 134.216 74.7725C134.216 76.0264 133.803 77.002 132.977 77.6992C132.156 78.3965 131.005 78.7451 129.522 78.7451H126.877ZM126.877 76.9609H129.549C130.34 76.9609 130.943 76.7764 131.359 76.4072C131.775 76.0322 131.983 75.4932 131.983 74.79C131.983 74.0986 131.772 73.5479 131.351 73.1377C130.929 72.7217 130.349 72.5078 129.61 72.4961H126.877V76.9609ZM51.3877 100.334C51.2588 101.699 50.7549 102.766 49.876 103.533C48.9971 104.295 47.8281 104.676 46.3691 104.676C45.3496 104.676 44.4502 104.436 43.6709 103.955C42.8975 103.469 42.2998 102.78 41.8779 101.89C41.4561 100.999 41.2363 99.9648 41.2188 98.7871V97.5918C41.2188 96.3848 41.4326 95.3213 41.8604 94.4014C42.2881 93.4814 42.9004 92.7725 43.6973 92.2744C44.5 91.7764 45.4258 91.5273 46.4746 91.5273C47.8867 91.5273 49.0234 91.9111 49.8848 92.6787C50.7461 93.4463 51.2471 94.5303 51.3877 95.9307H49.1729C49.0674 95.0107 48.7979 94.3486 48.3643 93.9443C47.9365 93.5342 47.3066 93.3291 46.4746 93.3291C45.5078 93.3291 44.7637 93.6836 44.2422 94.3926C43.7266 95.0957 43.4629 96.1299 43.4512 97.4951V98.6289C43.4512 100.012 43.6973 101.066 44.1895 101.793C44.6875 102.52 45.4141 102.883 46.3691 102.883C47.2422 102.883 47.8984 102.687 48.3379 102.294C48.7773 101.901 49.0557 101.248 49.1729 100.334H51.3877ZM74.2041 99.0771H69.0537V104.5H66.8301V91.7031H74.96V93.4961H69.0537V97.3018H74.2041V99.0771ZM84.1006 99.0771H78.9502V104.5H76.7266V91.7031H84.8564V93.4961H78.9502V97.3018H84.1006V99.0771ZM94.1025 98.7871H88.8467V102.725H94.9902V104.5H86.623V91.7031H94.9287V93.4961H88.8467V97.0293H94.1025V98.7871ZM104.28 98.7871H99.0244V102.725H105.168V104.5H96.8008V91.7031H105.106V93.4961H99.0244V97.0293H104.28V98.7871Z" fill="#2F2E33"/>
<g id="Group">
<path id="Vector" d="M62.5844 103.765C63.6097 102.333 64.1761 100.431 64.1786 98.4096C64.1828 94.2007 61.716 90.7634 58.6781 90.7499C55.6396 90.7346 53.1647 94.1451 53.1594 98.354C53.1568 100.376 53.7185 102.283 54.7401 103.725C54.8764 103.917 55.0182 104.099 55.1659 104.268C56.1462 105.392 57.3672 106.007 58.66 106.014C60.1461 106.022 61.5407 105.223 62.5844 103.765ZM58.9487 101.734C58.8072 100.517 58.3354 99.559 57.8198 98.5221C56.5222 95.9112 57.1308 93.1938 58.6783 90.9655C58.5727 92.2354 58.2482 93.4522 58.3566 94.741C58.4725 96.1139 59.0005 97.1712 59.5663 98.3487C60.8076 100.935 60.1892 103.611 58.6602 105.799C58.7725 104.425 59.1106 103.127 58.9487 101.734Z" fill="black"/>
</g>
</g>
</svg>
