<svg width="89" height="692" viewBox="0 0 89 692" fill="none" xmlns="http://www.w3.org/2000/svg">
    <g id="Ligne point 3">
        <line id="Line 1" x1="42.5" y1="2.18557e-08" x2="42.5" y2="692" stroke="white"/>
        <g id="Rectangle 29" filter="url(#filter0_d)">
            <rect x="11" y="254" width="63" height="63" rx="31.5" fill="#2F2E33"/>
            <rect x="11.5" y="254.5" width="62" height="62" rx="31" stroke="#2F2E33"/>
        </g>
        <path id="1" d="M38.425 300.7V285.31C38.425 284.41 38.425 283.51 38.425 282.61C38.425 281.68 38.44 280.75 38.47 279.82C37.48 280.69 36.4 281.44 35.23 282.07C34.09 282.7 32.89 283.12 31.63 283.33L31 275.86C32.11 275.74 33.28 275.44 34.51 274.96C35.74 274.45 36.85 273.85 37.84 273.16C38.86 272.44 39.595 271.72 40.045 271H47.29V300.7H38.425Z" fill="#97C69C"/>
        <rect id="Rectangle 30" x="33.5" y="98.5" width="17" height="17" rx="8.5" fill="white" stroke="white"/>
        <rect id="Rectangle 31" x="33.5" y="469.5" width="17" height="17" rx="8.5" fill="white" stroke="white"/>
        <rect id="Rectangle 32" x="33.5" y="639.5" width="17" height="17" rx="8.5" fill="white" stroke="white"/>
    </g>
    <defs>
        <filter id="filter0_d" x="0" y="244" width="89" height="89" filterUnits="userSpaceOnUse" color-interpolation-filters="sRGB">
            <feFlood flood-opacity="0" result="BackgroundImageFix"/>
            <feColorMatrix in="SourceAlpha" type="matrix" values="0 0 0 0 0 0 0 0 0 0 0 0 0 0 0 0 0 0 127 0"/>
            <feOffset dx="2" dy="3"/>
            <feGaussianBlur stdDeviation="6.5"/>
            <feColorMatrix type="matrix" values="0 0 0 0 0.470833 0 0 0 0 0.470833 0 0 0 0 0.470833 0 0 0 0.3 0"/>
            <feBlend mode="normal" in2="BackgroundImageFix" result="effect1_dropShadow"/>
            <feBlend mode="normal" in="SourceGraphic" in2="effect1_dropShadow" result="shape"/>
        </filter>
    </defs>
</svg>
