<svg width="89" height="692" viewBox="0 0 89 692" fill="none" xmlns="http://www.w3.org/2000/svg">
    <g id="Ligne point 2">
        <line id="Line 2" x1="42.5" y1="2.18557e-08" x2="42.5" y2="692" stroke="white"/>
        <g id="Rectangle 33" filter="url(#filter0_d)">
            <rect x="11" y="254" width="63" height="63" rx="31.5" fill="#2F2E33"/>
            <rect x="11.5" y="254.5" width="62" height="62" rx="31" stroke="#2F2E33"/>
        </g>
        <path id="2"
              d="M30.4749 301V295.33C32.8749 293.95 34.9299 292.615 36.6399 291.325C38.3799 290.035 39.8049 288.805 40.9149 287.635C42.0249 286.435 42.8499 285.31 43.3899 284.26C43.9299 283.18 44.1999 282.16 44.1999 281.2C44.1999 280.27 43.9449 279.49 43.4349 278.86C42.9249 278.2 42.1299 277.87 41.0499 277.87C39.8199 277.87 38.8899 278.335 38.2599 279.265C37.6599 280.195 37.3599 281.62 37.3599 283.54L29.4849 281.425C29.5149 279.055 30.0549 277.09 31.1049 275.53C32.1549 273.97 33.5949 272.8 35.4249 272.02C37.2849 271.24 39.3549 270.85 41.6349 270.85C43.7649 270.85 45.5649 271.15 47.0349 271.75C48.5349 272.32 49.7349 273.085 50.6349 274.045C51.5649 274.975 52.2399 276.01 52.6599 277.15C53.0799 278.26 53.2899 279.37 53.2899 280.48C53.2899 282.43 52.7799 284.215 51.7599 285.835C50.7399 287.455 49.3299 288.97 47.5299 290.38C45.7299 291.76 43.6449 293.08 41.2749 294.34V294.43C41.8449 294.37 42.4899 294.325 43.2099 294.295C43.9299 294.265 44.6949 294.25 45.5049 294.25C46.3149 294.22 47.0949 294.205 47.8449 294.205H53.5599V301H30.4749Z"
              fill="#80AB85"/>
        <rect id="Rectangle 34" x="33.5" y="98.5" width="17" height="17" rx="8.5" fill="white" stroke="white"/>
        <rect id="Rectangle 35" x="33.5" y="469.5" width="17" height="17" rx="8.5" fill="white" stroke="white"/>
        <rect id="Rectangle 36" x="33.5" y="639.5" width="17" height="17" rx="8.5" fill="white" stroke="white"/>
    </g>
    <defs>
        <filter id="filter0_d" x="0" y="244" width="89" height="89" filterUnits="userSpaceOnUse"
                color-interpolation-filters="sRGB">
            <feFlood flood-opacity="0" result="BackgroundImageFix"/>
            <feColorMatrix in="SourceAlpha" type="matrix" values="0 0 0 0 0 0 0 0 0 0 0 0 0 0 0 0 0 0 127 0"/>
            <feOffset dx="2" dy="3"/>
            <feGaussianBlur stdDeviation="6.5"/>
            <feColorMatrix type="matrix" values="0 0 0 0 0.470833 0 0 0 0 0.470833 0 0 0 0 0.470833 0 0 0 0.3 0"/>
            <feBlend mode="normal" in2="BackgroundImageFix" result="effect1_dropShadow"/>
            <feBlend mode="normal" in="SourceGraphic" in2="effect1_dropShadow" result="shape"/>
        </filter>
    </defs>
</svg>
