<svg width="89" height="692" viewBox="0 0 89 692" fill="none" xmlns="http://www.w3.org/2000/svg">
    <g id="Ligne point 3">
        <line id="Line 1" x1="42.5" y1="2.18557e-08" x2="42.5" y2="692" stroke="white"/>
        <g id="Rectangle 29" filter="url(#filter0_d)">
            <rect x="11" y="254" width="63" height="63" rx="31.5" fill="#2F2E33"/>
            <rect x="11.5" y="254.5" width="62" height="62" rx="31" stroke="#2F2E33"/>
        </g>
        <path id="3"
              d="M42.7252 301.45C39.3652 301.45 36.6052 300.835 34.4452 299.605C32.3152 298.345 30.8302 296.47 29.9902 293.98L38.3602 290.515C38.3902 291.565 38.5702 292.39 38.9002 292.99C39.2302 293.59 39.6802 294.01 40.2502 294.25C40.8502 294.46 41.4802 294.565 42.1402 294.565C42.8002 294.565 43.3702 294.46 43.8502 294.25C44.3602 294.01 44.7502 293.665 45.0202 293.215C45.2902 292.765 45.4252 292.24 45.4252 291.64C45.4252 290.95 45.2752 290.41 44.9752 290.02C44.7052 289.63 44.3302 289.36 43.8502 289.21C43.3702 289.03 42.8152 288.94 42.1852 288.94C41.7652 288.94 41.3902 288.955 41.0602 288.985C40.7602 289.015 40.4002 289.06 39.9802 289.12V283.54C40.2202 283.57 40.4602 283.6 40.7002 283.63C40.9402 283.63 41.2402 283.63 41.6002 283.63C42.7102 283.63 43.5202 283.39 44.0302 282.91C44.5402 282.43 44.7952 281.65 44.7952 280.57C44.7952 279.67 44.5402 278.98 44.0302 278.5C43.5502 277.99 42.8752 277.735 42.0052 277.735C41.0752 277.735 40.2802 278.02 39.6202 278.59C38.9902 279.13 38.6302 280.135 38.5402 281.605L30.5752 279.04C30.8152 277.24 31.4902 275.74 32.6002 274.54C33.7402 273.34 35.1652 272.425 36.8752 271.795C38.6152 271.165 40.5352 270.85 42.6352 270.85C45.0052 270.85 47.0002 271.18 48.6202 271.84C50.2702 272.5 51.5152 273.445 52.3552 274.675C53.2252 275.905 53.6602 277.405 53.6602 279.175C53.6602 280.525 53.4352 281.635 52.9852 282.505C52.5652 283.375 52.0252 284.065 51.3652 284.575C50.7052 285.085 50.0752 285.46 49.4752 285.7C48.8752 285.91 48.4102 286.015 48.0802 286.015V286.195C48.4402 286.195 48.9502 286.27 49.6102 286.42C50.3002 286.57 50.9902 286.855 51.6802 287.275C52.4002 287.695 53.0002 288.325 53.4802 289.165C53.9902 289.975 54.2452 291.055 54.2452 292.405C54.2452 294.265 53.7352 295.885 52.7152 297.265C51.6952 298.615 50.3152 299.65 48.5752 300.37C46.8352 301.09 44.8852 301.45 42.7252 301.45Z"
              fill="#80AB85"/>
        <rect id="Rectangle 30" x="33.5" y="98.5" width="17" height="17" rx="8.5" fill="white" stroke="white"/>
        <rect id="Rectangle 31" x="33.5" y="469.5" width="17" height="17" rx="8.5" fill="white" stroke="white"/>
        <rect id="Rectangle 32" x="33.5" y="639.5" width="17" height="17" rx="8.5" fill="white" stroke="white"/>
    </g>
    <defs>
        <filter id="filter0_d" x="0" y="244" width="89" height="89" filterUnits="userSpaceOnUse"
                color-interpolation-filters="sRGB">
            <feFlood flood-opacity="0" result="BackgroundImageFix"/>
            <feColorMatrix in="SourceAlpha" type="matrix" values="0 0 0 0 0 0 0 0 0 0 0 0 0 0 0 0 0 0 127 0"/>
            <feOffset dx="2" dy="3"/>
            <feGaussianBlur stdDeviation="6.5"/>
            <feColorMatrix type="matrix" values="0 0 0 0 0.470833 0 0 0 0 0.470833 0 0 0 0 0.470833 0 0 0 0.3 0"/>
            <feBlend mode="normal" in2="BackgroundImageFix" result="effect1_dropShadow"/>
            <feBlend mode="normal" in="SourceGraphic" in2="effect1_dropShadow" result="shape"/>
        </filter>
    </defs>
</svg>
