<svg width="1440" height="381" viewBox="0 0 1440 381" fill="none" xmlns="http://www.w3.org/2000/svg">
<path d="M-92 1.51691L0 384.5H1440V82.8077C1389.53 62.8545 1300.32 58.79 1262.02 59.2519C1257.51 58.8824 1188.42 62.1771 1154.44 63.8707C1150.83 63.8707 1020.77 73.7241 956.181 78.6508C919.683 81.2373 823.445 82.4998 779.888 82.8077C728.972 82.8077 644.148 72.9543 608.101 68.0276C589.177 65.441 498.834 45.3954 456.028 35.696C423.135 27.1974 355.584 14.9114 325.921 9.83075C303.391 5.02719 261.336 5.36588 243.125 6.13568C220.145 6.50519 190.369 15.5272 178.353 19.9921C143.207 32.1857 114.52 38.0054 104.569 39.3911C77.8464 44.8695 53.0791 40.2959 43.5061 38.5281L43.1765 38.4673C25.1529 35.1417 10.326 29.3421 0 24.5693C-44.1576 4.24664 -83.176 -0.79248 -92 1.51691Z" fill="white" stroke="white"/>
</svg>
