<svg width="1440" height="177" viewBox="0 0 1440 177" fill="none" xmlns="http://www.w3.org/2000/svg">
<path d="M-90 175.552L2.5 0L1442 1.42383V94.2616C1391.53 114.215 1302.32 118.279 1264.02 117.817C1259.51 118.187 1190.42 114.892 1156.44 113.199C1152.83 113.199 1022.77 103.345 958.181 98.4185C921.683 95.832 825.445 94.5695 781.888 94.2616C730.972 94.2616 646.148 104.115 610.101 109.042C591.177 111.628 500.834 131.674 458.028 141.373C425.135 149.872 357.584 162.158 327.921 167.239C305.391 172.042 263.336 171.703 245.125 170.934C222.145 170.564 192.369 161.542 180.353 157.077C145.207 144.884 116.52 139.064 106.569 137.678C79.8463 132.2 55.0789 136.773 45.506 138.541L45.1765 138.602C27.1529 141.928 12.326 147.727 2 152.5C-42.1576 172.823 -81.176 177.862 -90 175.552Z" fill="white" stroke="white"/>
</svg>
