<svg width="95" height="196" viewBox="0 0 95 196" fill="none" xmlns="http://www.w3.org/2000/svg">
<g id="Captus1">
<g id="Group">
<g id="Group_2">
<g id="Group_3">
<path id="Vector" d="M51.8001 184.53C50.4001 184.64 50.6001 187.175 52.0001 186.955C53.4001 186.844 53.2001 184.42 51.8001 184.53Z" fill="#BFDF83"/>
</g>
</g>
<g id="Group_4">
<g id="Group_5">
<path id="Vector_2" d="M83.9 33.2217C82.5 33.8829 81.1 34.5441 79.7 35.0951C78.3 35.6462 76.8 36.1972 75.4 36.7482L75.3 35.9768C76.9 35.9768 78.5 35.9768 80.1 36.087C81.7 36.1972 83.3 36.1972 84.9 36.4176C83.3 36.638 81.7 36.638 80.1 36.7482C78.5 36.8584 76.9 36.8584 75.3 36.8584H73L75.1 36.087C76.5 35.536 78 34.9849 79.4 34.5441C80.9 34.1033 82.4 33.5523 83.9 33.2217Z" fill="#45241D"/>
</g>
</g>
<g id="Group_6">
<g id="Group_7">
<path id="Vector_3" d="M38.1998 48.0991C36.7998 48.7603 35.3998 49.4215 33.9998 49.9726C32.5998 50.5236 31.0998 51.0746 29.6998 51.6256L29.5998 50.8542C31.1998 50.8542 32.7998 50.8542 34.3998 50.9644C35.9998 51.0746 37.5998 51.0746 39.1998 51.295C37.5998 51.5154 35.9998 51.5154 34.3998 51.6256C32.7998 51.7358 31.1998 51.7358 29.5998 51.7358H27.2998L29.3998 50.9644C30.7998 50.4134 32.2998 49.8624 33.6998 49.4215C35.2998 48.8705 36.6998 48.4297 38.1998 48.0991Z" fill="#45241D"/>
</g>
</g>
<g id="Group_8">
<g id="Group_9">
<path id="Vector_4" d="M89.7 95.1555C88.6 96.2576 87.4 97.3596 86.3 98.4616C85.1 99.5637 83.9 100.555 82.7 101.658L82.4 100.996C83.9 100.445 85.4 99.8943 86.9 99.3433C88.4 98.7923 89.9 98.3514 91.5 97.9106C90 98.682 88.6 99.2331 87.1 99.8943C85.6 100.556 84.1 101.106 82.6 101.658L80.5 102.429L82.3 100.886C83.5 99.8943 84.7 98.9024 86 97.9106C87.1 97.029 88.4 96.0371 89.7 95.1555Z" fill="#45241D"/>
</g>
</g>
<g id="Group_10">
<g id="Group_11">
<path id="Vector_5" d="M94.1002 109.923C92.6002 110.143 91.1002 110.143 89.5002 110.253C88.0002 110.363 86.5002 110.363 84.9002 110.363L85.0002 109.592C86.5002 110.143 88.0002 110.694 89.5002 111.355C91.0002 111.906 92.5002 112.568 93.9002 113.229C92.3002 112.898 90.8002 112.347 89.3002 111.906C87.8002 111.466 86.3002 110.915 84.8002 110.363L82.7002 109.592H85.0002C86.5002 109.592 88.0002 109.592 89.6002 109.592C91.1002 109.702 92.6002 109.812 94.1002 109.923Z" fill="#45241D"/>
</g>
</g>
<g id="Group_12">
<g id="Group_13">
<path id="Vector_6" d="M44.6002 101.437C43.1002 101.657 41.6002 101.657 40.0002 101.768C38.5002 101.878 37.0002 101.878 35.4002 101.878L35.5002 101.106C37.0002 101.657 38.5002 102.208 40.0002 102.87C41.5002 103.421 43.0002 104.082 44.4002 104.743C42.8002 104.413 41.3002 103.862 39.8002 103.421C38.3002 102.98 36.8002 102.429 35.3002 101.878L33.2002 101.106H35.5002C37.0002 101.106 38.5002 101.106 40.1002 101.106C41.6002 101.217 43.1002 101.327 44.6002 101.437Z" fill="#45241D"/>
</g>
</g>
<g id="Group_14">
<g id="Group_15">
<path id="Vector_7" d="M73.0998 83.364C72.9998 85.0171 72.7998 86.6701 72.5998 88.3231C72.3998 89.9762 72.1998 91.6292 71.9998 93.2823L71.2998 93.0619C71.9998 91.519 72.7998 89.9762 73.5998 88.4333C74.3998 86.8905 75.1998 85.4579 76.0998 83.915C75.4998 85.5681 74.7998 87.1109 74.0998 88.6537C73.3998 90.1966 72.6998 91.7394 71.8998 93.2823L70.7998 95.4863L71.1998 93.0619C71.4998 91.4088 71.6998 89.7558 71.9998 88.1027C72.3998 86.5599 72.6998 84.9069 73.0998 83.364Z" fill="#45241D"/>
</g>
</g>
<g id="Group_16">
<g id="Group_17">
<path id="Vector_8" d="M82.5999 49.752C81.0999 49.6418 79.5999 49.4214 78.0999 49.201C76.5999 48.9805 75.0999 48.7601 73.5999 48.4295L73.7999 47.6581C75.1999 48.5397 76.5999 49.3112 77.8999 50.303C79.2999 51.1846 80.5999 52.0662 81.8999 53.058C80.3999 52.3968 78.9999 51.6254 77.5999 50.854C76.1999 50.0826 74.7999 49.2009 73.3999 48.4295L71.3999 47.2173L73.5999 47.6581C75.0999 47.9887 76.5999 48.2091 78.0999 48.6499C79.6999 48.9805 81.1999 49.3112 82.5999 49.752Z" fill="#45241D"/>
</g>
</g>
<g id="Group_18">
<g id="Group_19">
<path id="Vector_9" d="M74.5999 67.8252C73.2999 68.817 71.9999 69.5884 70.6999 70.47C69.3999 71.3516 68.0999 72.1231 66.6999 72.8945L66.4999 72.1231C68.0999 71.7925 69.5999 71.572 71.1999 71.3516C72.7999 71.1312 74.3999 70.9108 75.8999 70.8006C74.3999 71.2414 72.7999 71.6822 71.2999 72.0129C69.6999 72.3435 68.1999 72.6741 66.5999 73.0047L64.3999 73.4455L66.3999 72.2333C67.6999 71.4619 69.0999 70.6904 70.3999 69.919C71.8999 69.2578 73.1999 68.4864 74.5999 67.8252Z" fill="#45241D"/>
</g>
</g>
<g id="Group_20">
<g id="Group_21">
<path id="Vector_10" d="M38.9001 112.678C38.3001 114.221 37.6001 115.763 37.0001 117.196C36.3001 118.739 35.6001 120.172 34.9001 121.604L34.3001 121.163C35.5001 119.951 36.6001 118.739 37.8001 117.637C39.0001 116.535 40.2001 115.323 41.5001 114.331C40.4001 115.653 39.3001 116.865 38.2001 118.078C37.1001 119.29 35.9001 120.502 34.8001 121.714L33.1001 123.367L34.2001 121.163C34.9001 119.731 35.7001 118.188 36.4001 116.755C37.3001 115.543 38.1001 114.11 38.9001 112.678Z" fill="#45241D"/>
</g>
</g>
<g id="Group_22">
<g id="Group_23">
<path id="Vector_11" d="M37.0002 84.5762C36.4002 86.119 35.7002 87.6619 35.1002 89.0945C34.4002 90.6373 33.7002 92.07 33.0002 93.5026L32.4002 93.0618C33.6002 91.8496 34.7002 90.6373 35.9002 89.5353C37.1002 88.4333 38.3002 87.221 39.6002 86.2292C38.5002 87.5517 37.4002 88.7639 36.3002 89.9761C35.2002 91.1884 34.0002 92.4006 32.9002 93.6128L31.2002 95.2659L32.3002 93.0618C33.0002 91.6292 33.8002 90.0863 34.5002 88.6537C35.3002 87.3313 36.1002 85.8986 37.0002 84.5762Z" fill="#45241D"/>
</g>
</g>
<g id="Group_24">
<g id="Group_25">
<path id="Vector_12" d="M88.8001 121.604C87.3001 121.494 85.8001 121.274 84.3001 121.053C82.8001 120.833 81.3001 120.612 79.8001 120.282L80.0001 119.51C81.4001 120.392 82.8001 121.163 84.1001 122.155C85.5001 123.037 86.8001 123.918 88.1001 124.91C86.6001 124.249 85.2001 123.478 83.8001 122.706C82.4001 121.935 81.0001 121.053 79.6001 120.282L77.6001 119.07L79.8001 119.51C81.3001 119.841 82.8001 120.061 84.3001 120.502C85.9001 120.723 87.4001 121.163 88.8001 121.604Z" fill="#45241D"/>
</g>
</g>
<g id="Group_26">
<g id="Group_27">
<path id="Vector_13" d="M83.3001 160.726C81.8001 160.616 80.3001 160.396 78.8001 160.175C77.3001 159.955 75.8001 159.734 74.3001 159.404L74.5001 158.632C75.9001 159.514 77.3001 160.285 78.6001 161.277C80.0001 162.159 81.3001 163.041 82.6001 164.032C81.1001 163.371 79.7001 162.6 78.3001 161.828C76.9001 161.057 75.5001 160.175 74.1001 159.404L72.1001 158.192L74.3001 158.632C75.8001 158.963 77.3001 159.183 78.8001 159.624C80.3001 159.955 81.8001 160.285 83.3001 160.726Z" fill="#45241D"/>
</g>
</g>
<g id="Group_28">
<g id="Group_29">
<path id="Vector_14" d="M80.3998 142.322C78.9998 143.094 77.6998 143.755 76.2998 144.526C74.8998 145.188 73.4998 145.849 72.0998 146.51L71.8998 145.739C73.4998 145.628 75.0998 145.518 76.6998 145.518C78.2998 145.518 79.8998 145.408 81.4998 145.518C79.8998 145.849 78.2998 145.959 76.7998 146.179C75.1998 146.4 73.5998 146.51 72.0998 146.62L69.7998 146.73L71.8998 145.849C73.2998 145.188 74.6998 144.637 76.1998 144.086C77.4998 143.424 78.9998 142.873 80.3998 142.322Z" fill="#45241D"/>
</g>
</g>
<g id="Group_30">
<g id="Group_31">
<path id="Vector_15" d="M75.8998 62.8662C74.5998 62.0948 73.2998 61.2131 71.9998 60.3315C70.6998 59.4499 69.3998 58.5682 68.1998 57.5764L68.6998 57.0254C69.6998 58.458 70.5998 59.7805 71.4998 61.2131C72.3998 62.6458 73.2998 64.0784 74.1998 65.6213C73.0998 64.2988 72.0998 62.9764 71.0998 61.654C70.0998 60.3315 69.0998 58.8989 68.1998 57.5764L66.7998 55.5928L68.6998 57.0254C69.9998 58.0172 71.1998 58.8989 72.3998 59.8907C73.4998 60.7723 74.6998 61.7642 75.8998 62.8662Z" fill="#45241D"/>
</g>
</g>
<g id="Group_32">
<g id="Group_33">
<path id="Vector_16" d="M81.6 132.514C80.3 131.743 79 130.861 77.7 129.98C76.4 129.098 75.1 128.216 73.9 127.225L74.4 126.674C75.4 128.106 76.3 129.429 77.2 130.861C78.1 132.294 79 133.727 79.9 135.269C78.8 133.947 77.8 132.625 76.8 131.302C75.8 129.98 74.8 128.547 73.9 127.225L72.5 125.241L74.4 126.674C75.7 127.665 76.9 128.547 78.1 129.539C79.2 130.42 80.4 131.412 81.6 132.514Z" fill="#45241D"/>
</g>
</g>
<g id="Group_34">
<g id="Group_35">
<path id="Vector_17" d="M79.8999 178.469C78.3999 178.579 76.8999 178.579 75.2999 178.579C73.7999 178.579 72.2999 178.579 70.6999 178.469L70.7999 177.698C72.2999 178.359 73.7999 179.02 75.1999 179.681C76.6999 180.342 78.0999 181.114 79.4999 181.885C77.9999 181.444 76.4999 180.893 74.9999 180.342C73.4999 179.791 71.9999 179.13 70.4999 178.579L68.3999 177.698L70.5999 177.808C72.0999 177.918 73.5999 177.918 75.0999 178.138C76.8999 178.138 78.3999 178.249 79.8999 178.469Z" fill="#45241D"/>
</g>
</g>
<g id="Group_36">
<g id="Group_37">
<path id="Vector_18" d="M50.2002 23.8545C51.7002 24.4055 53.1002 24.9565 54.5002 25.5075C55.9002 26.0585 57.3002 26.7198 58.7002 27.381L58.4002 28.0422C57.2002 26.83 56.0002 25.7279 54.9002 24.5157C53.8002 23.3035 52.6002 22.0912 51.5002 20.7688C52.8002 21.7606 54.0002 22.8627 55.2002 24.0749C56.4002 25.1769 57.6002 26.3892 58.8002 27.4912L60.5002 29.1442L58.4002 28.1524C57.0002 27.4912 55.6002 26.83 54.2002 26.0585C52.9002 25.3973 51.6002 24.6259 50.2002 23.8545Z" fill="#45241D"/>
</g>
</g>
<g id="Group_38">
<g id="Group_39">
<path id="Vector_19" d="M7.6001 108.821C8.8001 109.813 10.0001 110.915 11.2001 111.906C12.4001 113.008 13.5001 114.11 14.7001 115.212L14.1001 115.763C13.3001 114.221 12.5001 112.678 11.8001 111.135C11.1001 109.592 10.3001 108.049 9.70007 106.396C10.6001 107.829 11.5001 109.262 12.3001 110.804C13.1001 112.237 13.9001 113.78 14.7001 115.323L15.8001 117.527L14.1001 115.874C13.0001 114.772 11.8001 113.67 10.8001 112.457C9.70008 111.245 8.6001 110.033 7.6001 108.821Z" fill="#45241D"/>
</g>
</g>
<g id="Group_40">
<g id="Group_41">
<path id="Vector_20" d="M44.3999 110.805C45.8999 110.364 47.3999 110.033 48.7999 109.592C50.2999 109.262 51.7999 108.931 53.2999 108.6V109.372C51.6999 109.151 50.1999 108.821 48.5999 108.49C46.9999 108.16 45.4999 107.829 43.8999 107.388C45.4999 107.498 47.0999 107.719 48.5999 107.829C50.1999 108.049 51.6999 108.27 53.2999 108.49L55.4999 108.821L53.2999 109.262C51.7999 109.592 50.2999 109.813 48.7999 110.033C47.3999 110.474 45.8999 110.694 44.3999 110.805Z" fill="#45241D"/>
</g>
</g>
<g id="Group_42">
<g id="Group_43">
<path id="Vector_21" d="M11.7001 70.1396C12.9001 69.1478 14.2001 68.1559 15.4001 67.2743C16.7001 66.2825 17.9001 65.4009 19.2001 64.5193L19.5001 65.2907C18.0001 65.7315 16.4001 66.0621 14.8001 66.3927C13.2001 66.7233 11.7001 67.0539 10.1001 67.2743C11.6001 66.7233 13.1001 66.2825 14.7001 65.7315C16.2001 65.2907 17.8001 64.8499 19.3001 64.5193L21.5001 63.9683L19.6001 65.2907C18.3001 66.1723 17.0001 67.0539 15.7001 67.8253C14.4001 68.5968 13.1001 69.3682 11.7001 70.1396Z" fill="#45241D"/>
</g>
</g>
<g id="Group_44">
<g id="Group_45">
<path id="Vector_22" d="M7.49991 145.077C8.69991 144.086 9.99989 143.094 11.1999 142.212C12.4999 141.22 13.6999 140.339 14.9999 139.457L15.2999 140.228C13.7999 140.669 12.1999 141 10.5999 141.33C8.99991 141.661 7.4999 141.992 5.8999 142.212C7.3999 141.661 8.89991 141.22 10.4999 140.669C11.9999 140.228 13.5999 139.788 15.0999 139.457L17.2999 138.906L15.3999 140.228C14.0999 141.11 12.7999 141.992 11.4999 142.763C10.1999 143.535 8.89991 144.306 7.49991 145.077Z" fill="#45241D"/>
</g>
</g>
<g id="Group_46">
<g id="Group_47">
<path id="Vector_23" d="M33.8002 190.922C35.0002 189.93 36.3002 188.938 37.5002 188.057C38.8002 187.065 40.0002 186.183 41.3002 185.301L41.6002 186.073C40.1002 186.514 38.5002 186.844 36.9002 187.175C35.3002 187.506 33.8002 187.836 32.2002 188.057C33.7002 187.506 35.2002 187.065 36.8002 186.514C38.3002 186.073 39.9002 185.632 41.4002 185.301L43.6002 184.75L41.7002 186.073C40.4002 186.955 39.1002 187.836 37.8002 188.608C36.5002 189.379 35.2002 190.15 33.8002 190.922Z" fill="#45241D"/>
</g>
</g>
<g id="Group_48">
<g id="Group_49">
<path id="Vector_24" d="M48.7001 124.8C49.9001 123.808 51.2001 122.816 52.4001 121.935C53.7001 120.943 54.9001 120.061 56.2001 119.18L56.5001 119.951C55.0001 120.392 53.4001 120.723 51.8001 121.053C50.2001 121.384 48.7001 121.714 47.1001 121.935C48.6001 121.384 50.1001 120.943 51.7001 120.392C53.2001 119.951 54.8001 119.51 56.3001 119.18L58.5001 118.629L56.6001 119.951C55.3001 120.833 54.0001 121.714 52.7001 122.486C51.4001 123.257 50.1001 124.139 48.7001 124.8Z" fill="#45241D"/>
</g>
</g>
<g id="Group_50">
<g id="Group_51">
<path id="Vector_25" d="M24.0001 155.767C24.3001 154.114 24.7001 152.461 25.1001 150.918C25.5001 149.265 25.9001 147.722 26.4001 146.069L27.0001 146.4C26.1001 147.832 25.1001 149.265 24.1001 150.588C23.1001 151.91 22.1001 153.343 21.1001 154.665C21.9001 153.122 22.8001 151.69 23.7001 150.257C24.6001 148.824 25.5001 147.392 26.4001 145.959L27.7001 143.975L27.0001 146.29C26.5001 147.832 26.1001 149.485 25.6001 151.028C25.1001 152.681 24.6001 154.224 24.0001 155.767Z" fill="#45241D"/>
</g>
</g>
<g id="Group_52">
<g id="Group_53">
<path id="Vector_26" d="M50.3001 41.8174C51.8001 41.597 53.3001 41.3766 54.8001 41.2664C56.3001 41.1562 57.8001 41.046 59.3001 40.9358L59.2001 41.7072C57.7001 41.2664 56.1001 40.7154 54.6001 40.1644C53.1001 39.6134 51.6001 39.0623 50.1001 38.4011C51.7001 38.7317 53.2001 39.0623 54.8001 39.5032C56.3001 39.944 57.9001 40.3848 59.4001 40.8256L61.6001 41.4868L59.4001 41.597C57.9001 41.7072 56.4001 41.7072 54.8001 41.8174C53.3001 41.9276 51.8001 41.9276 50.3001 41.8174Z" fill="#45241D"/>
</g>
</g>
<g id="Group_54">
<g id="Group_55">
<path id="Vector_27" d="M46.5999 98.0207C48.0999 97.8003 49.5999 97.5799 51.0999 97.4697C52.5999 97.3595 54.0999 97.2493 55.5999 97.1391L55.4999 97.9105C53.9999 97.4697 52.3999 96.9187 50.8999 96.3677C49.3999 95.8167 47.8999 95.2657 46.3999 94.6045C47.9999 94.9351 49.4999 95.2657 51.0999 95.7065C52.5999 96.1473 54.1999 96.5881 55.6999 97.0289L57.8999 97.6901L55.6999 97.8003C54.1999 97.9105 52.6999 97.9105 51.0999 98.0207C49.6999 98.1309 48.0999 98.1309 46.5999 98.0207Z" fill="#45241D"/>
</g>
</g>
<g id="Group_56">
<g id="Group_57">
<path id="Vector_28" d="M10.0999 99.0127C11.5999 98.7923 13.0999 98.5719 14.5999 98.4617C16.0999 98.3515 17.5999 98.2413 19.0999 98.1311L18.9999 98.9025C17.4999 98.4617 15.8999 97.9107 14.3999 97.3597C12.8999 96.8087 11.3999 96.2577 9.8999 95.5964C11.4999 95.927 12.9999 96.2577 14.5999 96.6985C16.0999 97.1393 17.6999 97.5801 19.1999 98.0209L21.3999 98.6821L19.1999 98.7924C17.6999 98.9026 16.1999 98.9025 14.5999 99.0127C13.0999 99.1229 11.5999 99.1229 10.0999 99.0127Z" fill="#45241D"/>
</g>
</g>
<g id="Group_58">
<g id="Group_59">
<path id="Vector_29" d="M9.40021 52.0664C10.9002 51.846 12.4002 51.6256 13.9002 51.5154C15.4002 51.4052 16.9002 51.295 18.4002 51.1848L18.3002 51.9562C16.8002 51.5154 15.2002 50.9644 13.7002 50.4134C12.2002 49.8624 10.7002 49.3114 9.2002 48.6501C10.8002 48.9808 12.3002 49.3114 13.9002 49.7522C15.4002 50.193 17.0002 50.6338 18.5002 51.0746L20.7002 51.7358L18.5002 51.846C17.0002 51.9562 15.5002 51.9562 13.9002 52.0664C12.5002 52.0664 10.9002 52.0664 9.40021 52.0664Z" fill="#45241D"/>
</g>
</g>
<g id="Group_60">
<g id="Group_61">
<path id="Vector_30" d="M0.199982 127.555C1.69998 127.335 3.19998 127.114 4.69998 127.004C6.19998 126.894 7.69998 126.784 9.19998 126.674L9.10001 127.445C7.60001 127.004 6 126.453 4.5 125.902C3 125.351 1.5 124.8 0 124.139C1.6 124.47 3.09998 124.8 4.69998 125.241C6.19998 125.682 7.79999 126.123 9.29999 126.563L11.5 127.225L9.29999 127.335C7.79999 127.445 6.29998 127.445 4.69998 127.555C3.19998 127.665 1.69998 127.665 0.199982 127.555Z" fill="#45241D"/>
</g>
</g>
<g id="Group_62">
<g id="Group_63">
<path id="Vector_31" d="M25.4002 173.84C26.9002 173.62 28.4002 173.4 29.9002 173.289C31.4002 173.179 32.9002 173.069 34.4002 172.959L34.3002 173.73C32.8002 173.289 31.2002 172.738 29.7002 172.187C28.2002 171.636 26.7002 171.085 25.2002 170.424C26.8002 170.755 28.3002 171.085 29.9002 171.526C31.4002 171.967 33.0002 172.408 34.5002 172.849L36.7002 173.51L34.5002 173.62C33.0002 173.73 31.5002 173.73 29.9002 173.84C28.4002 173.84 26.9002 173.84 25.4002 173.84Z" fill="#45241D"/>
</g>
</g>
</g>
<g id="Group_64">
<g id="Group_65">
<path id="Vector_32" d="M48.3003 129.87C37.9003 129.098 31.7003 145.188 30.9003 154.886C29.7003 168.551 32.8003 178.8 41.4003 188.167C50.4003 197.975 61.9003 198.746 69.8003 186.624C77.1003 175.273 77.1003 159.845 73.8003 146.4C70.3003 132.074 58.5003 126.674 48.3003 129.87Z" fill="#3F6330"/>
</g>
<g id="Group_66">
<path id="Vector_33" d="M20.5001 112.898C11.8001 110.143 5.90013 117.857 7.10013 127.776C8.10013 136.371 16.1001 146.29 23.0001 148.824C33.3001 152.571 42.0001 144.637 40.5001 131.963C39.1001 119.07 31.3001 112.898 20.5001 112.898Z" fill="#4E7746"/>
</g>
<g id="Group_67">
<path id="Vector_34" d="M61.4002 89.4253C46.9002 93.613 51.0002 120.282 59.5002 129.208C64.0002 133.947 67.4002 130.751 72.8002 128.547C80.6002 125.241 87.4002 118.96 86.3002 107.939C84.8002 92.6212 72.5002 90.4171 61.4002 89.4253Z" fill="#7DA35E"/>
</g>
<g id="Group_68">
<path id="Vector_35" d="M59.1004 62.6458C56.7004 57.2459 58.0004 46.2257 57.1004 39.7237C56.3004 33.4422 55.8003 26.0586 60.8003 21.9811C67.3003 16.5812 74.0004 23.4137 76.0004 31.0177C78.4004 40.8257 75.9003 48.4297 70.7003 55.7031C67.7003 59.8908 58.8004 71.2416 59.1004 62.6458Z" fill="#649462"/>
</g>
<g id="Group_69">
<path id="Vector_36" d="M42.5999 63.6377C38.5999 64.2989 34.7999 66.503 31.8999 61.8745C29.9999 58.899 31.6999 53.9399 30.4999 50.6338C26.5999 39.9442 16.3999 45.4543 15.1999 55.1521C13.8999 66.3928 21.6999 74.4376 30.6999 74.8784C36.5999 75.0988 46.9999 71.7927 42.5999 63.6377Z" fill="#7DA35E"/>
</g>
<g id="Group_70">
<path id="Vector_37" d="M24.8002 120.172C20.9002 114.662 14.7002 103.862 16.0002 96.2577C17.0002 90.4169 23.8002 84.9068 29.2002 86.3394C42.6002 89.8659 33.1002 118.298 24.8002 120.172Z" fill="#649462"/>
</g>
<g id="Group_71">
<path id="Vector_38" d="M49.8003 53.3889C47.6003 53.3889 45.5003 53.9399 44.0003 55.4828C42.4003 57.1358 41.5003 59.45 40.9003 61.6541C39.7003 66.0622 39.0003 71.5723 40.2003 76.2008C42.7003 85.568 50.6004 93.0618 59.1004 91.0782C60.8004 90.6374 62.4003 89.9761 63.9003 88.8741C70.6003 83.6946 69.3004 72.7846 66.1004 65.7316C64.4004 61.8745 61.8003 58.2378 58.4003 56.0338C56.1003 54.6011 52.8003 53.3889 49.8003 53.3889Z" fill="#3F6330"/>
</g>
<g id="Group_72">
<path id="Vector_39" d="M68.7999 23.5239C67.4999 22.7525 66.2 21.7607 65.1 20.5484C63.3 18.4546 55.2999 3.68744 61.8999 3.68744C63.7999 3.68744 64.7999 6.44251 65.2999 7.98535C65.6999 9.08738 67.1 13.0547 68.6 9.85879C68.8 9.30778 68.7999 8.75676 68.7999 8.20575C68.7999 5.78129 69.0999 3.02622 70.8999 1.48339C71.2999 1.15278 71.7999 0.932373 72.2999 0.932373C73.2999 1.04258 73.7999 2.1446 73.9999 3.13643C74.2999 4.34865 74.3 5.56089 74.1 6.77311C74 7.54453 73.7999 8.31596 73.7999 9.08738C73.7999 9.85879 74 10.6302 74.6 11.1812C75.9 12.2832 78.1999 9.30777 78.8999 8.42615C79.4999 7.76494 79.9 6.99352 80.6 6.4425C81.3 5.89149 82.2999 5.6711 82.9999 6.11191C83.6999 6.55272 83.9999 7.43434 83.7999 8.31596C83.2999 11.5118 79 13.2751 79.6 16.6913C81.5 17.3526 84.2999 16.0301 85.6999 17.9036C87.6999 20.328 85.7999 22.0913 83.8999 22.9729C79.0999 25.3974 73.2999 25.9484 68.7999 23.5239Z" fill="white"/>
</g>
<g id="Group_73">
<path id="Vector_40" d="M67.2 24.9565C66.1 24.2953 65.1 23.4137 64.2 22.3117C62.8 20.4382 56.3 7.43433 61.8 7.65473C63.4 7.76494 64.1 10.0792 64.5 11.4016C64.8 12.3934 65.9 15.8097 67.2 13.0546C67.4 12.6138 67.4 12.0628 67.4 11.622C67.4 9.52818 67.7 7.21392 69.2 5.89149C69.5 5.67108 69.9 5.45068 70.3 5.45068C71.1 5.56089 71.5 6.55271 71.7 7.32412C71.9 8.31594 71.9 9.41798 71.7 10.52C71.6 11.1812 71.4 11.8424 71.4 12.5036C71.4 13.1649 71.5 13.9363 72 14.2669C73 15.2587 75 12.724 75.5 12.0628C76 11.5118 76.4 10.8506 77 10.4098C77.6 9.96899 78.4 9.74858 79 10.1894C79.5 10.52 79.8 11.4016 79.6 12.0628C79.2 14.8179 75.6 16.1403 76 19.226C77.6 19.777 79.8 18.7852 81 20.4382C82.6 22.6423 81 23.9647 79.4 24.7361C75.6 26.83 70.9 27.1606 67.2 24.9565Z" fill="#F48EA4"/>
</g>
<g id="Group_74">
<path id="Vector_41" d="M66.5002 25.728C66.0002 25.3974 65.5002 24.9566 65.0002 24.4056C64.3002 23.524 61.1002 17.022 63.8002 17.1322C64.6002 17.1322 64.9002 18.3444 65.1002 19.0057C65.2002 19.5567 65.8002 21.2097 66.4002 19.8873C66.5002 19.6669 66.5002 19.4465 66.5002 19.2261C66.5002 18.2342 66.6002 17.022 67.4002 16.3608C67.6002 16.2506 67.8002 16.1404 68.0002 16.1404C68.4002 16.1404 68.6002 16.6914 68.7002 17.1322C68.8002 17.6832 68.8002 18.2342 68.7002 18.675C68.6002 19.0057 68.6002 19.3363 68.5002 19.6669C68.5002 19.9975 68.6002 20.3281 68.8002 20.5485C69.3002 20.9893 70.3002 19.7771 70.6002 19.4465C70.8002 19.1159 71.0002 18.8954 71.3002 18.675C71.6002 18.4546 72.0002 18.3444 72.3002 18.5648C72.6002 18.7852 72.7002 19.1159 72.6002 19.5567C72.4002 20.8791 70.6002 21.6505 70.8002 23.0831C71.6002 23.4138 72.7002 22.8627 73.3002 23.6342C74.1002 24.7362 73.3002 25.3974 72.5002 25.8382C70.7002 26.7198 68.4002 26.83 66.5002 25.728Z" fill="#DB657F"/>
</g>
<g id="Group_75">
<path id="Vector_42" d="M18.6002 91.4087C15.6002 92.2903 11.5002 92.8413 9.30021 89.8659C8.70021 88.9842 8.30021 87.772 8.80021 86.7802C9.40021 85.7883 10.7002 85.7884 11.7002 85.8986C12.8002 86.0088 14.1002 85.7884 14.5002 84.7965C14.9002 83.8047 14.2002 82.5925 13.4002 81.8211C12.6002 81.1598 11.6002 80.4986 11.3002 79.3966C11.0002 78.0742 12.0002 76.6415 13.2002 76.4211C14.4002 76.2007 15.7002 77.0824 16.3002 78.2946C16.8002 79.2864 16.9002 80.6088 17.5002 81.4905C17.8002 81.9313 18.2002 82.3721 18.8002 82.3721C19.7002 82.3721 20.1002 81.1598 20.0002 80.2782C19.9002 79.2864 19.4002 78.515 19.3002 77.5232C19.2002 76.5313 19.5002 75.4293 20.4002 75.3191C20.8002 75.2089 21.2002 75.4293 21.5002 75.6497C23.0002 76.6416 24.1002 78.4048 24.6002 80.2782C25.8002 84.5761 24.6002 88.1026 21.1002 90.4169C20.5002 90.6373 19.6002 91.0781 18.6002 91.4087Z" fill="white"/>
</g>
<g id="Group_76">
<path id="Vector_43" d="M19.2003 91.2987C16.4003 92.1803 12.7003 92.6211 10.7003 89.866C10.1003 89.0946 9.80029 87.8824 10.3003 87.111C10.9003 86.2293 12.0003 86.2293 13.0003 86.3395C14.0003 86.4497 15.2003 86.2293 15.6003 85.2375C16.0003 84.2457 15.3003 83.2538 14.6003 82.5926C13.9003 81.9314 13.0003 81.3804 12.7003 80.2784C12.4003 79.0661 13.3003 77.7437 14.4003 77.5233C15.5003 77.3029 16.7003 78.0743 17.2003 79.1763C17.7003 80.1682 17.7003 81.2702 18.3003 82.1518C18.6003 82.5926 19.0003 82.9232 19.4003 82.9232C20.2003 82.9232 20.6003 81.8212 20.5003 80.9396C20.4003 80.058 20.0003 79.2866 19.9003 78.4049C19.8003 77.5233 20.1003 76.4213 20.9003 76.311C21.3003 76.2008 21.6003 76.4213 22.0003 76.6417C23.4003 77.5233 24.4003 79.1763 24.8003 80.8294C25.9003 84.6865 24.8003 87.9926 21.6003 90.0864C20.9003 90.6374 20.1003 91.0782 19.2003 91.2987Z" fill="#F48EA4"/>
</g>
<g id="Group_77">
<path id="Vector_44" d="M22.1003 46.997C20.4003 45.895 18.9003 43.6909 17.6003 42.2582C16.1003 40.6052 13.0003 37.5195 15.8003 35.5359C16.1003 35.3155 16.4003 35.2053 16.7003 35.2053C17.5003 35.0951 18.2003 35.8665 18.8003 36.4175C19.4003 36.9685 20.4003 37.4093 21.0003 36.8583C21.5003 36.4175 21.6003 35.6461 21.5003 34.9849C21.3003 32.4502 23.3003 26.9401 25.4003 31.6788C25.8003 32.4502 25.9003 33.442 26.0003 34.3237C26.1003 34.9849 26.1003 35.6461 26.6003 35.9767C27.2003 36.3073 27.9003 35.8665 28.4003 35.2053C28.8003 34.6543 29.2003 33.8829 29.8003 33.6625C30.8003 33.3318 31.8003 34.4339 31.9003 35.5359C32.0003 36.6379 31.5003 37.7399 31.0003 38.7318C30.4003 39.944 29.8003 41.1562 29.3003 42.2582C27.9003 45.0133 25.5003 49.201 22.1003 46.997Z" fill="white"/>
</g>
<g id="Group_78">
<path id="Vector_45" d="M22.2 48.6501C20.6 47.3277 19.4 45.0134 18.4 43.4706C17.1 41.7073 14.4 38.291 17.5 36.638C17.8 36.5278 18.1 36.4176 18.4 36.4176C19.2 36.4176 19.8 37.189 20.3 37.8502C20.9 38.5114 21.7 39.0625 22.4 38.6217C22.9 38.291 23.1 37.5196 23.1 36.8584C23.2 34.434 25.8 29.2544 27.3 34.1033C27.6 34.985 27.6 35.8666 27.6 36.7482C27.6 37.2992 27.6 38.0706 28 38.4012C28.5 38.842 29.3 38.4012 29.8 37.9604C30.3 37.4094 30.7 36.7482 31.4 36.638C32.4 36.4176 33.2 37.6298 33.2 38.7318C33.2 39.8339 32.6 40.8257 32 41.7073C31.3 42.8093 30.6 43.9114 29.9 44.9032C28.1 47.4378 25.2 51.1848 22.2 48.6501Z" fill="#F48EA4"/>
</g>
<g id="Group_79">
<path id="Vector_46" d="M23.3002 48.9809C22.3002 48.0992 21.4002 46.5564 20.7002 45.4544C19.8002 44.2421 18.0002 41.9279 20.1002 40.9361C20.3002 40.8259 20.5002 40.7157 20.7002 40.8259C21.2002 40.8259 21.6002 41.3769 22.0002 41.8177C22.4002 42.2585 22.9002 42.5891 23.4002 42.3687C23.8002 42.1483 23.9002 41.5973 23.9002 41.1565C24.0002 39.5034 25.7002 36.0871 26.7002 39.283C26.9002 39.834 26.9002 40.385 26.9002 41.0462C26.9002 41.4871 26.9002 41.9279 27.2002 42.1483C27.6002 42.4789 28.1002 42.1483 28.4002 41.8177C28.7002 41.4871 29.0002 41.0463 29.5002 40.9361C30.2002 40.8259 30.7002 41.5973 30.7002 42.3687C30.7002 43.1401 30.3002 43.8013 29.9002 44.3523C29.4002 45.1238 29.0002 45.785 28.5002 46.5564C27.2002 48.0992 25.3002 50.6339 23.3002 48.9809Z" fill="#DB657F"/>
</g>
<g id="Group_80">
<path id="Vector_47" d="M54.2999 58.5684C53.3999 58.6786 53.4999 60.2214 54.3999 60.1112C55.2999 60.001 55.1999 58.4582 54.2999 58.5684Z" fill="#BFDF83"/>
</g>
<g id="Group_81">
<path id="Vector_48" d="M59.5001 63.9683C58.5001 64.0785 58.6001 65.8418 59.7001 65.7316C60.7001 65.6214 60.5001 63.8581 59.5001 63.9683Z" fill="#BFDF83"/>
</g>
<g id="Group_82">
<path id="Vector_49" d="M52.1 70.6907C51 70.8009 51.1999 72.6743 52.2999 72.5641C53.3999 72.4539 53.2 70.5805 52.1 70.6907Z" fill="#BFDF83"/>
</g>
<g id="Group_83">
<path id="Vector_50" d="M45.4002 67.7153C44.3002 67.8255 44.5002 69.699 45.6002 69.5888C46.7002 69.4786 46.5002 67.4949 45.4002 67.7153Z" fill="#BFDF83"/>
</g>
<g id="Group_84">
<path id="Vector_51" d="M46.8001 58.5684C45.7001 58.6786 45.9001 60.5521 47.0001 60.4419C48.0001 60.3317 47.9001 58.4582 46.8001 58.5684Z" fill="#BFDF83"/>
</g>
<g id="Group_85">
<path id="Vector_52" d="M52.1002 64.2989C50.9002 64.4091 51.1002 66.3927 52.3002 66.2825C53.5002 66.1723 53.3002 64.1887 52.1002 64.2989Z" fill="#BFDF83"/>
</g>
<g id="Group_86">
<path id="Vector_53" d="M45.3999 77.1925C44.1999 77.3027 44.3 79.5067 45.6 79.2863C46.9 79.2863 46.6999 77.0823 45.3999 77.1925Z" fill="#BFDF83"/>
</g>
<g id="Group_87">
<path id="Vector_54" d="M54.2003 83.5843C54.2003 83.4741 54.2003 83.4741 54.1003 83.3639C53.8003 82.4823 52.8003 82.1517 52.2003 82.9231C51.6003 83.8047 52.2003 85.0169 53.2003 84.9067H53.3003C53.8003 84.9067 54.3003 84.2455 54.2003 83.5843Z" fill="#BFDF83"/>
</g>
<g id="Group_88">
<path id="Vector_55" d="M59.5001 75.9804C59.4001 75.8702 59.3001 75.8702 59.2001 75.76C58.9001 75.6498 58.5001 75.6498 58.3001 75.9804C58.2001 76.0906 58.1001 76.2008 58.0001 76.4212C57.6001 77.5232 58.8001 78.2946 59.5001 77.5232C59.5001 77.5232 59.5001 77.5232 59.6001 77.413C60.0001 76.9722 59.8001 76.311 59.5001 75.9804Z" fill="#BFDF83"/>
</g>
<g id="Group_89">
<path id="Vector_56" d="M65.0001 80.9395C64.0001 81.0497 64.1001 82.8129 65.2001 82.7027C66.2001 82.5925 66.1001 80.8293 65.0001 80.9395Z" fill="#BFDF83"/>
</g>
<g id="Group_90">
<path id="Vector_57" d="M65.2003 71.6824C64.0003 71.7926 64.2003 73.7763 65.4003 73.6661C66.5003 73.5559 66.4003 71.5722 65.2003 71.6824Z" fill="#BFDF83"/>
</g>
<g id="Group_91">
<path id="Vector_58" d="M57.0001 99.4536C56.1001 99.5638 56.2001 101.107 57.1001 100.996C58.0001 100.886 57.9001 99.3434 57.0001 99.4536Z" fill="#BFDF83"/>
</g>
<g id="Group_92">
<path id="Vector_59" d="M62.0001 95.5965C60.8001 95.7067 61.0001 97.8006 62.2001 97.6904C63.4001 97.47 63.2001 95.4863 62.0001 95.5965Z" fill="#BFDF83"/>
</g>
<g id="Group_93">
<path id="Vector_60" d="M70.2 99.7841C68.8 99.8943 69 102.319 70.4 102.209C71.8 101.988 71.5 99.6739 70.2 99.7841Z" fill="#BFDF83"/>
</g>
<g id="Group_94">
<path id="Vector_61" d="M76.6003 103.641C75.1003 103.751 75.3003 106.286 76.8003 106.176C78.3003 106.066 78.1003 103.531 76.6003 103.641Z" fill="#BFDF83"/>
</g>
<g id="Group_95">
<path id="Vector_62" d="M67.1003 110.143C65.6003 110.253 65.8003 112.788 67.3003 112.678C68.8003 112.568 68.6003 110.033 67.1003 110.143Z" fill="#BFDF83"/>
</g>
<g id="Group_96">
<path id="Vector_63" d="M63.4003 106.066C62.9003 105.625 62.0002 105.735 61.7002 106.507C61.5002 106.947 61.6003 107.388 61.9003 107.829C62.3003 108.38 63.1003 108.38 63.5003 107.829C63.9003 107.278 63.8003 106.507 63.4003 106.066Z" fill="#BFDF83"/>
</g>
<g id="Group_97">
<path id="Vector_64" d="M57.8002 114.882C56.3002 114.992 56.6002 117.527 58.0002 117.417C59.4002 117.196 59.2002 114.772 57.8002 114.882Z" fill="#BFDF83"/>
</g>
<g id="Group_98">
<path id="Vector_65" d="M63.4001 121.714C61.9001 121.825 62.1001 124.359 63.6001 124.249C65.1001 124.029 64.9001 121.494 63.4001 121.714Z" fill="#BFDF83"/>
</g>
<g id="Group_99">
<path id="Vector_66" d="M73.0999 120.392C71.6999 120.502 71.8999 123.037 73.2999 122.817C74.6999 122.706 74.4999 120.282 73.0999 120.392Z" fill="#BFDF83"/>
</g>
<g id="Group_100">
<path id="Vector_67" d="M79.2 113.229C77.8 113.339 78 115.874 79.4 115.653C80.8 115.543 80.6 113.119 79.2 113.229Z" fill="#BFDF83"/>
</g>
<g id="Group_101">
<path id="Vector_68" d="M62.6002 51.0745C61.4002 51.1847 61.6002 53.2786 62.8002 53.1684C64.0002 53.0582 63.8002 50.9643 62.6002 51.0745Z" fill="#BFDF83"/>
</g>
<g id="Group_102">
<path id="Vector_69" d="M61.1 40.1644C59.8 40.2746 60 42.4786 61.3 42.3684C62.6 42.148 62.4 39.944 61.1 40.1644Z" fill="#BFDF83"/>
</g>
<g id="Group_103">
<path id="Vector_70" d="M67.1002 44.4625C65.9002 44.5727 66.1002 46.6665 67.3002 46.5563C68.5002 46.4461 68.3002 44.3523 67.1002 44.4625Z" fill="#BFDF83"/>
</g>
<g id="Group_104">
<path id="Vector_71" d="M71.6 35.3155C70.3 35.4257 70.5 37.6297 71.8 37.4093C73 37.4093 72.8 35.2053 71.6 35.3155Z" fill="#BFDF83"/>
</g>
<g id="Group_105">
<path id="Vector_72" d="M60.8004 30.3565C59.6004 30.4667 59.8004 32.5605 61.0004 32.3401C62.2004 32.3401 62.0004 30.2463 60.8004 30.3565Z" fill="#BFDF83"/>
</g>
<g id="Group_106">
<path id="Vector_73" d="M65.7003 35.4258C64.5003 35.536 64.7003 37.6298 65.9003 37.5196C67.1003 37.2992 66.9003 35.3156 65.7003 35.4258Z" fill="#BFDF83"/>
</g>
<g id="Group_107">
<path id="Vector_74" d="M68.1003 53.7196C67.9003 53.2788 67.2003 53.389 67.0003 53.8298C66.9003 54.2706 66.9003 54.491 67.1003 54.8216C67.3003 55.2624 68.0002 55.1522 68.2002 54.7114C68.3002 54.2706 68.3003 54.0502 68.1003 53.7196Z" fill="#BFDF83"/>
</g>
<g id="Group_108">
<path id="Vector_75" d="M20.0001 53.4991C18.9001 53.6093 19 55.4827 20.2 55.3725C21.3 55.2623 21.2001 53.3889 20.0001 53.4991Z" fill="#BFDF83"/>
</g>
<g id="Group_109">
<path id="Vector_76" d="M26.4999 54.2704C25.1999 54.3806 25.3999 56.5846 26.6999 56.4744C27.9999 56.254 27.7999 54.0499 26.4999 54.2704Z" fill="#BFDF83"/>
</g>
<g id="Group_110">
<path id="Vector_77" d="M21.6 61.8743C20.3 61.9845 20.5 64.1886 21.8 64.0784C23.1 63.858 22.9 61.7641 21.6 61.8743Z" fill="#BFDF83"/>
</g>
<g id="Group_111">
<path id="Vector_78" d="M27.2999 63.858C26.6999 64.6294 27.4999 65.8416 28.3999 65.511H28.4999C28.6999 65.4008 28.8999 65.1804 28.9999 64.96V64.8498C29.0999 63.6376 27.8999 63.0865 27.2999 63.858Z" fill="#BFDF83"/>
</g>
<g id="Group_112">
<path id="Vector_79" d="M33.5999 68.156C32.1999 68.2662 32.3999 70.6907 33.7999 70.5805C35.1999 70.4703 34.9999 68.0458 33.5999 68.156Z" fill="#BFDF83"/>
</g>
<g id="Group_113">
<path id="Vector_80" d="M26.9999 69.2579C25.6999 69.3681 25.8999 71.5722 27.1999 71.3518C28.3999 71.3518 28.1999 69.1477 26.9999 69.2579Z" fill="#BFDF83"/>
</g>
<g id="Group_114">
<path id="Vector_81" d="M22.1 93.8333C20.8 93.9435 21 96.1475 22.3 96.0373C23.6 95.9271 23.4 93.7231 22.1 93.8333Z" fill="#BFDF83"/>
</g>
<g id="Group_115">
<path id="Vector_82" d="M27.5999 89.7558C26.1999 89.866 26.3999 92.2904 27.7999 92.07C29.1999 91.9598 28.9999 89.6456 27.5999 89.7558Z" fill="#BFDF83"/>
</g>
<g id="Group_116">
<path id="Vector_83" d="M31.3002 96.8087C30.0002 96.9189 30.2002 99.2332 31.5002 99.123C32.9002 99.0128 32.7002 96.6985 31.3002 96.8087Z" fill="#BFDF83"/>
</g>
<g id="Group_117">
<path id="Vector_84" d="M24.4003 101.217C23.1003 101.327 23.3003 103.641 24.6003 103.421C25.9003 103.311 25.7003 101.107 24.4003 101.217Z" fill="#BFDF83"/>
</g>
<g id="Group_118">
<path id="Vector_85" d="M20.3999 106.176C19.2999 106.286 19.4 108.16 20.6 108.05C21.7 107.939 21.4999 106.066 20.3999 106.176Z" fill="#BFDF83"/>
</g>
<g id="Group_119">
<path id="Vector_86" d="M24.8001 112.458C23.4001 112.568 23.6001 115.102 25.0001 114.882C26.5001 114.772 26.3001 112.347 24.8001 112.458Z" fill="#BFDF83"/>
</g>
<g id="Group_120">
<path id="Vector_87" d="M30.5999 105.184C29.1999 105.294 29.3999 107.719 30.7999 107.498C32.1999 107.388 31.9999 105.074 30.5999 105.184Z" fill="#BFDF83"/>
</g>
<g id="Group_121">
<path id="Vector_88" d="M12.9002 125.792C11.5002 125.902 11.7002 128.437 13.1002 128.216C14.5002 128.106 14.3002 125.571 12.9002 125.792Z" fill="#BFDF83"/>
</g>
<g id="Group_122">
<path id="Vector_89" d="M17.4003 119.731C16.8003 119.841 16.3003 120.392 16.3003 121.163C16.4003 121.825 16.9003 122.376 17.6003 122.376C18.2003 122.266 18.7003 121.714 18.7003 120.943C18.6003 120.172 18.0003 119.621 17.4003 119.731Z" fill="#BFDF83"/>
</g>
<g id="Group_123">
<path id="Vector_90" d="M23.5999 127.114C22.1999 127.225 22.3999 129.649 23.7999 129.429C25.1999 129.429 24.9999 127.004 23.5999 127.114Z" fill="#BFDF83"/>
</g>
<g id="Group_124">
<path id="Vector_91" d="M32.1999 123.368C30.6999 123.478 30.8999 126.123 32.3999 125.902C33.8999 125.792 33.6999 123.258 32.1999 123.368Z" fill="#BFDF83"/>
</g>
<g id="Group_125">
<path id="Vector_92" d="M18.6002 137.474C18.0002 137.584 17.5002 138.135 17.6002 138.906C17.7002 139.567 18.2002 140.118 18.9002 140.008C19.5002 139.898 20.0002 139.347 19.9002 138.576C19.8002 137.914 19.2002 137.363 18.6002 137.474Z" fill="#BFDF83"/>
</g>
<g id="Group_126">
<path id="Vector_93" d="M26.8002 142.102C26.2002 142.212 25.7002 142.873 25.7002 143.535C25.8002 144.196 26.4002 144.747 27.0002 144.747C27.6002 144.637 28.1002 143.975 28.1002 143.314C28.1002 142.543 27.5002 141.992 26.8002 142.102Z" fill="#BFDF83"/>
</g>
<g id="Group_127">
<path id="Vector_94" d="M28.1 134.167C26.8 134.278 27 136.592 28.3 136.371C29.6 136.261 29.4 134.057 28.1 134.167Z" fill="#BFDF83"/>
</g>
<g id="Group_128">
<path id="Vector_95" d="M36.1 135.931C35.7 135.82 35.4 135.931 35.1 136.151C34.5 136.702 34.6 137.474 35.3 137.914C35.6 138.135 36 138.135 36.3 137.914C37.1 137.474 37 136.041 36.1 135.931Z" fill="#BFDF83"/>
</g>
<g id="Group_129">
<path id="Vector_96" d="M48.1003 141.992C46.6003 142.102 46.8003 144.747 48.3003 144.637C49.8003 144.526 49.6003 141.881 48.1003 141.992Z" fill="#BFDF83"/>
</g>
<g id="Group_130">
<path id="Vector_97" d="M55.3 135.38C53.8 135.49 54 138.135 55.5 138.024C57.1 137.914 56.9 135.269 55.3 135.38Z" fill="#BFDF83"/>
</g>
<g id="Group_131">
<path id="Vector_98" d="M63.9 144.416C63.3 144.526 62.8 145.077 62.9 145.849C63 146.51 63.5 147.061 64.2 146.951C64.8 146.841 65.3 146.29 65.2 145.518C65.2 144.857 64.6 144.306 63.9 144.416Z" fill="#BFDF83"/>
</g>
<g id="Group_132">
<path id="Vector_99" d="M53.8001 152.682C52.4001 152.792 52.6001 155.216 54.0001 155.106C55.4001 154.886 55.2001 152.461 53.8001 152.682Z" fill="#BFDF83"/>
</g>
<g id="Group_133">
<path id="Vector_100" d="M40.4 153.012C39.8 153.122 39.3 153.673 39.4 154.445C39.5 155.106 40 155.657 40.7 155.547C41.3 155.437 41.8 154.886 41.7 154.114C41.6 153.453 41 153.012 40.4 153.012Z" fill="#BFDF83"/>
</g>
<g id="Group_134">
<path id="Vector_101" d="M36.2001 163.371C35.6001 163.481 35.1001 164.032 35.1001 164.804C35.2001 165.465 35.7001 166.016 36.4001 166.016C37.0001 165.906 37.5001 165.355 37.5001 164.583C37.4001 163.812 36.9001 163.261 36.2001 163.371Z" fill="#BFDF83"/>
</g>
<g id="Group_135">
<path id="Vector_102" d="M47.7 163.151C46.3 163.261 46.5 165.686 47.9 165.575C49.3 165.355 49.1 162.93 47.7 163.151Z" fill="#BFDF83"/>
</g>
<g id="Group_136">
<path id="Vector_103" d="M43.5003 176.155H43.4003C42.6003 176.155 41.9003 176.706 42.0003 177.587C42.1003 178.469 42.9003 178.91 43.6003 178.689H43.7003C44.8003 178.359 44.6003 176.265 43.5003 176.155Z" fill="#BFDF83"/>
</g>
<g id="Group_137">
<path id="Vector_104" d="M54.3001 174.722C52.9001 174.832 53.1001 177.257 54.5001 177.146C55.9001 177.036 55.7001 174.612 54.3001 174.722Z" fill="#BFDF83"/>
</g>
<g id="Group_138">
<path id="Vector_105" d="M58.4002 164.143C57.0002 164.253 57.2002 166.787 58.6002 166.567C60.0002 166.457 59.8001 164.032 58.4002 164.143Z" fill="#BFDF83"/>
</g>
<g id="Group_139">
<path id="Vector_106" d="M68.0004 157.2C67.8004 156.979 67.7004 156.759 67.5004 156.649C67.0004 156.208 66.2004 156.208 65.8004 156.869C65.3004 157.42 65.5004 158.302 66.0004 158.743C66.2004 158.963 66.4004 159.073 66.6004 159.183C67.6004 159.845 68.8004 158.192 68.0004 157.2Z" fill="#BFDF83"/>
</g>
<g id="Group_140">
<path id="Vector_107" d="M69.3999 171.085C69.1999 170.424 68.5999 170.094 67.9999 170.204C67.2999 170.424 66.8999 171.196 67.1999 171.967C67.3999 172.628 68.0999 172.959 68.6999 172.738C69.1999 172.408 69.5999 171.636 69.3999 171.085Z" fill="#BFDF83"/>
</g>
<g id="Group_141">
<path id="Vector_108" d="M62.0999 180.783C61.3999 180.893 60.8999 181.555 60.8999 182.326C60.9999 183.097 61.5999 183.648 62.2999 183.648C62.9999 183.538 63.4999 182.877 63.4999 182.106C63.3999 181.334 62.7999 180.783 62.0999 180.783Z" fill="#BFDF83"/>
</g>
</g>
</g>
</svg>
