<svg width="87" height="71" viewBox="0 0 87 71" fill="none" xmlns="http://www.w3.org/2000/svg">
<g id="Captus2">
<g id="Group">
<g id="Group_2">
<g id="Group_3">
<path id="Vector" d="M5.26569 55.7669C3.56569 53.8934 1.36569 51.4689 0.165687 48.7139C-0.0343132 49.8159 -0.0343155 51.1383 0.0656846 52.3505C0.965685 60.175 7.76569 64.2525 13.8657 66.5667C20.5657 69.2116 26.0657 67.5586 32.6657 67.1178C25.8657 67.228 19.0657 65.2443 12.9657 61.7178C10.2657 60.0648 7.56569 58.3015 5.26569 55.7669Z" fill="#7DA35E"/>
</g>
<g id="Group_4">
<path id="Vector_2" d="M25.5655 54.0036C25.8655 54.224 26.1655 54.5546 26.4655 54.775C27.0655 55.3261 27.7655 55.9873 28.3655 56.6485C28.5655 56.8689 28.8655 57.0893 29.0655 57.4199C29.3655 57.7505 29.6655 57.9709 29.8655 58.3015L29.9655 58.4117C30.1655 58.6321 30.4655 58.9627 30.6655 59.2933C30.8655 59.6239 31.1655 59.8444 31.3655 60.175L31.4655 60.2852C31.6655 60.6158 31.9655 60.8362 32.1655 61.1668C32.2655 61.3872 32.4655 61.4974 32.5655 61.7178C32.5655 61.828 32.6655 61.828 32.7655 61.9382C32.8655 62.1586 33.0655 62.2688 33.1655 62.4892C33.2655 62.5994 33.2655 62.7096 33.3655 62.7096C33.5655 62.93 33.6655 63.2607 33.8655 63.4811C34.0655 63.8117 34.2655 64.1423 34.5655 64.5831C34.6655 64.6933 34.6655 64.8035 34.7655 64.9137C34.6655 65.1341 34.5655 65.4647 34.3655 65.6851C30.6655 60.5056 25.6655 56.8689 20.4655 53.673C14.4655 49.9261 7.96552 46.5098 1.16553 45.7384C1.36553 45.2976 1.66553 44.8568 1.96553 44.416C2.26553 44.416 2.46553 44.3058 2.66553 44.3058C4.16553 43.9752 5.66553 43.9752 7.06553 44.1956C14.0655 44.8568 20.2655 49.0445 25.5655 54.0036Z" fill="#7DA35E"/>
</g>
<g id="Group_5">
<path id="Vector_3" d="M31.8655 54.8852C33.3655 57.6402 35.5655 61.2769 34.8655 64.2524C34.6655 63.9218 34.5655 63.5912 34.3655 63.1504C33.8655 62.1585 33.3655 61.1668 32.8655 60.1749C32.6655 59.7341 32.4655 59.4035 32.1655 58.9627C31.7655 58.3015 31.3655 57.6403 30.9655 56.979C30.7655 56.6484 30.5655 56.3178 30.2655 55.9872C29.8655 55.4362 29.4655 54.8852 28.9655 54.3342C27.4655 52.4608 25.8655 50.8077 24.0655 49.3751C22.7655 48.3833 21.3655 47.5016 19.8655 46.62C16.5655 44.7466 13.1655 43.0935 9.56552 42.6527C7.26552 42.3221 4.86553 42.4323 2.66553 43.2037C4.96553 40.6691 8.36552 39.2365 11.9655 39.5671C20.4655 40.4487 27.6655 47.0608 31.8655 54.8852Z" fill="#4E7746"/>
</g>
<g id="Group_6">
<path id="Vector_4" d="M7.76562 53.3424C9.66562 54.9955 11.5656 56.5383 13.6656 57.9709C19.7656 62.1586 26.6656 64.583 33.6656 66.4565C33.8656 66.3463 33.9656 66.1259 34.0656 66.0157C31.6656 63.5913 28.8656 61.6076 26.1656 59.8443C24.2656 58.6321 22.3656 57.5301 20.3656 56.5383C17.0656 54.775 13.7656 53.0118 10.4656 51.2486C8.76562 50.3669 7.16562 49.4853 5.46562 48.6037C3.96562 47.8323 2.46562 47.0609 0.865623 46.3997C0.765623 46.5099 0.765625 46.6201 0.765625 46.8405C2.96562 48.9343 5.26562 51.2486 7.76562 53.3424Z" fill="#7DA35E"/>
</g>
<g id="Group_7">
<path id="Vector_5" d="M33.6655 66.4566C33.3655 66.677 33.0655 67.0076 32.7655 67.228C25.9655 67.3382 19.1655 65.3546 13.0655 61.8281C10.2655 60.0649 7.56553 58.3016 5.26553 55.767C3.56553 53.8935 1.36553 51.469 0.165527 48.714C0.265527 48.3834 0.265524 48.0528 0.365524 47.7221C0.365524 47.5017 0.465527 47.3915 0.465527 47.1711C0.565527 46.9507 0.565527 46.7303 0.665527 46.6201C2.96553 48.9344 5.16553 51.1384 7.66553 53.2323C9.56553 54.8853 11.4655 56.4281 13.5655 57.8608C19.6655 62.1587 26.6655 64.5831 33.6655 66.4566Z" fill="#3F6330"/>
</g>
<g id="Group_8">
<path id="Vector_6" d="M34.3658 65.5748C34.2658 65.685 34.1658 65.7952 34.1658 65.9054C34.1658 65.9054 34.1658 65.9054 34.1658 66.0156C33.8658 65.7952 33.6658 65.4646 33.3658 65.2442C33.1658 65.0238 32.8658 64.8034 32.6658 64.583C30.6658 62.8198 28.3658 61.2769 26.2658 59.8442C24.3658 58.632 22.4658 57.53 20.4658 56.5381C17.1658 54.7749 13.8658 53.0117 10.5658 51.2484C8.86581 50.3668 7.26582 49.4852 5.56582 48.6036C4.06582 47.8321 2.56582 47.0607 0.96582 46.3995C1.06582 46.1791 1.16582 45.9587 1.26582 45.7383C8.06581 46.5097 14.5658 49.926 20.5658 53.6729C25.6658 56.7586 30.6658 60.3953 34.3658 65.5748Z" fill="#3F6330"/>
</g>
<g id="Group_9">
<path id="Vector_7" d="M24.1658 49.4853C25.9658 50.918 27.5658 52.571 29.0658 54.4445C29.4658 54.9955 29.9658 55.5465 30.3658 56.0975C30.5658 56.4281 30.7658 56.7587 31.0658 57.0893C31.4658 57.7505 31.8658 58.4118 32.2658 59.073C32.4658 59.5138 32.7658 59.8444 32.9658 60.2852C33.4658 61.277 33.9658 62.2688 34.4658 63.2607C34.6658 63.5913 34.7658 63.9219 34.9658 64.3627C34.9658 64.5831 34.8658 64.6933 34.7658 64.9137C34.6658 64.8035 34.6658 64.6933 34.5658 64.5831C34.3658 64.2525 34.1658 63.9219 33.8658 63.4811C33.6658 63.2607 33.5658 62.9301 33.3658 62.7096C33.2658 62.5994 33.2658 62.4892 33.1658 62.4892C33.0658 62.2688 32.8658 62.1586 32.7658 61.9382C32.7658 61.828 32.6658 61.828 32.5658 61.7178C32.4658 61.4974 32.2658 61.3872 32.1658 61.1668C31.9658 60.8362 31.6658 60.6158 31.4658 60.2852C31.4658 60.175 31.3658 60.175 31.3658 60.175C31.1658 59.8444 30.8658 59.6239 30.6658 59.2933C30.4658 58.9627 30.1658 58.7423 29.9658 58.4117L29.8658 58.3015C29.5658 57.9709 29.3658 57.7505 29.0658 57.4199C28.8658 57.1995 28.5658 56.9791 28.3658 56.6485C27.7658 55.9873 27.1658 55.4363 26.4658 54.7751C26.1658 54.5546 25.8658 54.224 25.5658 54.0036C20.1658 49.1547 14.0658 44.8568 7.06582 43.9752C5.56582 43.7548 4.06582 43.7548 2.66582 44.0854C2.46582 44.0854 2.26582 44.1956 1.96582 44.1956C2.06582 44.0854 2.16582 43.9752 2.16582 43.865C2.26582 43.7548 2.36582 43.5344 2.46582 43.4242C2.56582 43.314 2.56582 43.314 2.66582 43.2038C4.86582 42.4324 7.26582 42.3222 9.56582 42.6528C13.1658 43.2038 16.6658 44.7466 19.8658 46.6201C21.4658 47.6119 22.8658 48.4935 24.1658 49.4853Z" fill="#3F6330"/>
</g>
</g>
<g id="Group_10">
<g id="Group_11">
<path id="Vector_8" d="M0.565819 47.2813C0.465819 47.5017 0.46582 47.6119 0.46582 47.8323C0.56582 47.9425 0.565821 48.0527 0.665821 48.1629C0.765821 48.2731 0.86582 48.3833 0.96582 48.2731L1.06582 48.1629C1.06582 48.0527 1.06582 47.9425 1.06582 47.8323C0.965819 47.7221 0.865818 47.5016 0.865818 47.3914C0.665818 47.2812 0.665819 47.2813 0.565819 47.2813ZM1.46582 49.1547C1.36582 49.2649 1.36582 49.3751 1.46582 49.4853C1.56582 49.5955 1.66582 49.8159 1.76582 49.9261C1.86582 50.0363 1.96582 50.0363 2.06582 49.9261C2.06582 49.9261 2.06582 49.9261 2.16582 49.8159C2.16582 49.7057 2.16582 49.5955 2.16582 49.4853C2.06582 49.3751 1.96582 49.2649 1.86582 49.0445C1.76582 49.0445 1.56582 49.0445 1.46582 49.1547ZM2.76582 50.8077C2.66582 50.9179 2.66582 51.1384 2.76582 51.1384C2.86582 51.2486 2.96582 51.3588 3.16582 51.5792C3.26582 51.6894 3.46582 51.6894 3.46582 51.5792C3.46582 51.5792 3.46582 51.5792 3.46582 51.469C3.56582 51.3588 3.46582 51.2486 3.46582 51.1384C3.36582 51.0282 3.26582 50.9179 3.16582 50.8077C2.96582 50.6975 2.86582 50.6975 2.76582 50.8077ZM4.16582 52.3506C4.06582 52.4608 4.06582 52.6812 4.16582 52.6812C4.26582 52.7914 4.46582 52.9016 4.56582 53.0118C4.66582 53.122 4.86582 53.122 4.86582 53.0118C4.96582 52.9016 4.86582 52.7914 4.76582 52.6812C4.66582 52.571 4.56582 52.4608 4.36582 52.3506C4.46582 52.1302 4.26582 52.2404 4.16582 52.3506ZM5.76582 53.673C5.66582 53.7832 5.66582 54.0036 5.76582 54.0036L6.16582 54.3342C6.26582 54.4445 6.46581 54.4445 6.46581 54.3342C6.56581 54.224 6.46582 54.1138 6.36582 54.0036L5.96581 53.673C5.96581 53.5628 5.76582 53.5628 5.76582 53.673ZM7.26582 55.1057C7.16582 55.2159 7.16582 55.4362 7.26582 55.4362L7.66582 55.7669C7.76582 55.8771 7.96581 55.8771 7.96581 55.7669C8.06581 55.6567 7.96582 55.5464 7.86582 55.4362L7.46581 55.1057C7.46581 54.8852 7.36582 54.8852 7.26582 55.1057ZM8.86581 56.4281C8.76581 56.5383 8.76581 56.7587 8.86581 56.7587L9.26582 57.0893C9.36582 57.1995 9.56582 57.1995 9.56582 57.0893C9.66582 56.9791 9.56581 56.8689 9.46581 56.7587L9.06582 56.4281C9.06582 56.2077 8.96581 56.3179 8.86581 56.4281ZM10.4658 57.7506C10.3658 57.8608 10.3658 58.0812 10.5658 58.0812L10.9658 58.4117C11.0658 58.5219 11.2658 58.522 11.2658 58.3016C11.3658 58.1914 11.2658 57.971 11.1658 57.971L10.7658 57.6403C10.6658 57.5301 10.4658 57.5301 10.4658 57.7506ZM12.0658 58.9628C11.9658 59.073 12.0658 59.2934 12.1658 59.2934C12.2658 59.4036 12.4658 59.5138 12.5658 59.624C12.6658 59.7342 12.8658 59.624 12.8658 59.5138C12.9658 59.4036 12.8658 59.1832 12.7658 59.1832C12.6658 59.073 12.4658 58.9628 12.3658 58.8526C12.2658 58.8526 12.0658 58.8526 12.0658 58.9628ZM13.6658 60.175C13.5658 60.2852 13.6658 60.5056 13.7658 60.5056C13.8658 60.6158 14.0658 60.7261 14.1658 60.7261H14.2658C14.3658 60.8363 14.5658 60.726 14.5658 60.6158C14.6658 60.5056 14.5658 60.2852 14.4658 60.2852H14.3658C14.2658 60.175 14.1658 60.175 13.9658 60.0648C13.9658 59.9546 13.7658 59.9546 13.6658 60.175ZM15.7658 61.0567C15.6658 60.9464 15.4658 61.0566 15.4658 61.1668C15.3658 61.277 15.4658 61.4974 15.5658 61.4974C15.6658 61.6076 15.8658 61.6076 15.9658 61.7178C16.0658 61.828 16.2658 61.7179 16.2658 61.6077C16.3658 61.4975 16.2658 61.2771 16.1658 61.2771C16.0658 61.2771 15.9658 61.1669 15.7658 61.0567ZM17.5658 62.0484C17.4658 61.9382 17.2658 62.0485 17.2658 62.1587C17.1658 62.2689 17.2658 62.4893 17.3658 62.4893C17.5658 62.5995 17.6658 62.5995 17.8658 62.7097C17.9658 62.7097 18.0658 62.7097 18.1658 62.5995C18.1658 62.4893 18.1658 62.2689 18.0658 62.2689C17.8658 62.1587 17.6658 62.0484 17.5658 62.0484ZM19.3658 62.8199C19.2658 62.8199 19.0658 62.8199 19.0658 62.9301C19.0658 63.0403 19.0658 63.2607 19.1658 63.2607C19.3658 63.3709 19.4658 63.3709 19.6658 63.4811C19.7658 63.4811 19.8658 63.4811 19.9658 63.3709C19.9658 63.2607 19.9658 63.0403 19.8658 63.0403C19.6658 62.9301 19.5658 62.9301 19.3658 62.8199ZM21.6658 63.7015C21.4658 63.5913 21.3658 63.5913 21.1658 63.4811C21.0658 63.4811 20.8658 63.4811 20.8658 63.7015C20.8658 63.8117 20.8658 64.0322 21.0658 64.0322C21.2658 64.1424 21.3658 64.1423 21.5658 64.2525C21.6658 64.2525 21.7658 64.2525 21.8658 64.1423C21.8658 63.9219 21.8658 63.8117 21.6658 63.7015ZM23.5658 64.3627L23.0658 64.2525C22.9658 64.2525 22.7658 64.2525 22.7658 64.4729C22.7658 64.5831 22.7658 64.8035 22.9658 64.8035L23.4658 64.9138C23.5658 64.9138 23.6658 64.9137 23.7658 64.8035C23.7658 64.8035 23.7658 64.8035 23.7658 64.6933C23.7658 64.5831 23.6658 64.4729 23.5658 64.3627ZM25.4658 65.0239L24.9658 64.9138C24.8658 64.9138 24.6658 64.9138 24.6658 65.1342C24.6658 65.2444 24.6658 65.4648 24.8658 65.4648L25.3658 65.575C25.4658 65.575 25.5658 65.575 25.6658 65.4648C25.6658 65.4648 25.6658 65.4647 25.6658 65.3545C25.6658 65.1341 25.5658 65.0239 25.4658 65.0239ZM27.3658 65.4648L26.8658 65.3545C26.7658 65.3545 26.5658 65.4648 26.5658 65.575C26.5658 65.6852 26.6658 65.9056 26.7658 65.9056L27.2658 66.0158C27.3658 66.0158 27.4658 66.0158 27.5658 65.9056C27.5658 65.9056 27.5658 65.9056 27.5658 65.7954C27.5658 65.6852 27.5658 65.4648 27.3658 65.4648ZM29.3658 65.9056L28.8658 65.7954C28.7658 65.7954 28.5658 65.9056 28.5658 66.0158C28.5658 66.126 28.6658 66.3464 28.7658 66.3464L29.2658 66.4566C29.3658 66.4566 29.4658 66.4566 29.5658 66.3464C29.5658 66.3464 29.5658 66.3464 29.5658 66.2362C29.5658 66.126 29.4658 65.9056 29.3658 65.9056ZM31.2658 66.2362L30.7658 66.126C30.6658 66.126 30.4658 66.2362 30.4658 66.3464C30.4658 66.4566 30.5658 66.677 30.6658 66.677L31.1658 66.7872C31.2658 66.7872 31.3658 66.7872 31.3658 66.677V66.5668C31.4658 66.4566 31.3658 66.3464 31.2658 66.2362Z" fill="#BFDF83"/>
</g>
</g>
<g id="Group_12">
<g id="Group_13">
<path id="Vector_9" d="M2.86562 43.4241H2.56562C2.46562 43.5343 2.36562 43.7547 2.26562 43.8649C2.36562 43.9751 2.36563 43.9751 2.46563 43.9751L2.96563 43.8649C3.06563 43.8649 3.06563 43.7547 3.16563 43.7547C3.16563 43.7547 3.16563 43.6445 3.16563 43.5343C3.16563 43.5343 3.06562 43.4241 2.86562 43.4241ZM4.86562 43.2037C4.66562 43.2037 4.56562 43.2037 4.36562 43.2037C4.26562 43.2037 4.16563 43.3139 4.16563 43.5343C4.16563 43.6445 4.26562 43.7547 4.46562 43.7547C4.66562 43.7547 4.76562 43.7547 4.96562 43.7547C5.06562 43.7547 5.16562 43.6445 5.16562 43.6445V43.5343C5.16562 43.3139 5.06562 43.2037 4.86562 43.2037ZM6.86562 43.0935C6.66562 43.0935 6.56562 43.0935 6.36562 43.0935C6.26562 43.0935 6.16562 43.2037 6.16562 43.4241C6.16562 43.5343 6.26562 43.6445 6.46562 43.6445C6.66562 43.6445 6.76562 43.6445 6.96562 43.6445C7.06562 43.6445 7.16562 43.6445 7.16562 43.5343V43.4241C7.16562 43.2037 7.06562 43.0935 6.86562 43.0935ZM8.86562 43.2037C8.66562 43.2037 8.56562 43.2037 8.36562 43.2037C8.26562 43.2037 8.06562 43.3139 8.06562 43.4241C8.06562 43.5343 8.16562 43.7547 8.26562 43.7547C8.46562 43.7547 8.56562 43.7547 8.76562 43.7547C8.86562 43.7547 8.96562 43.7547 8.96562 43.6445V43.5343C9.16562 43.3139 9.06562 43.2037 8.86562 43.2037ZM10.8656 43.5343C10.6656 43.5343 10.5656 43.4241 10.3656 43.4241C10.2656 43.4241 10.0656 43.5343 10.0656 43.6445C10.0656 43.7547 10.1656 43.9751 10.2656 43.9751C10.4656 43.9751 10.5656 44.0853 10.7656 44.0853C10.8656 44.0853 10.9656 44.0854 11.0656 43.9751C11.0656 43.9751 11.0656 43.9751 11.0656 43.8649C11.0656 43.7547 10.9656 43.5343 10.8656 43.5343ZM12.3656 43.9751C12.2656 43.9751 12.0656 43.9751 12.0656 44.1955C12.0656 44.3057 12.0656 44.5262 12.2656 44.5262C12.4656 44.6364 12.5656 44.6363 12.7656 44.7465C12.8656 44.7465 12.9656 44.7465 13.0656 44.6363C13.1656 44.5261 13.0656 44.3057 12.9656 44.3057C12.6656 44.0853 12.4656 44.0854 12.3656 43.9751ZM14.1656 44.8568C14.0656 44.7466 13.8656 44.8568 13.8656 44.967C13.7656 45.0772 13.8656 45.2976 13.9656 45.2976C14.0656 45.4078 14.2656 45.4078 14.3656 45.518C14.4656 45.6282 14.6656 45.518 14.6656 45.4078C14.7656 45.2976 14.6656 45.0772 14.5656 45.0772C14.4656 44.967 14.3656 44.8568 14.1656 44.8568ZM15.9656 45.7384C15.8656 45.6282 15.6656 45.7384 15.6656 45.8486C15.5656 45.9588 15.6656 46.1792 15.7656 46.1792L16.1656 46.3996C16.2656 46.5098 16.4656 46.3996 16.4656 46.2894C16.5656 46.1792 16.4656 45.9588 16.3656 45.9588L15.9656 45.7384ZM17.7656 46.7302C17.6656 46.62 17.4656 46.7302 17.4656 46.8404C17.4656 46.9506 17.4656 47.171 17.5656 47.171L17.9656 47.3914C18.0656 47.5016 18.2656 47.3914 18.2656 47.2812C18.3656 47.171 18.2656 46.9506 18.1656 46.9506L17.7656 46.7302ZM19.5656 47.6118C19.4656 47.5016 19.2656 47.6118 19.2656 47.722C19.1656 47.8322 19.2656 48.0526 19.3656 48.0526L19.7656 48.2731C19.8656 48.3833 20.0656 48.273 20.0656 48.1628C20.1656 48.0526 20.0656 47.8322 19.9656 47.8322L19.5656 47.6118ZM21.3656 48.6036C21.2656 48.4934 21.0656 48.6037 21.0656 48.7139C20.9656 48.8241 21.0656 49.0445 21.1656 49.0445C21.2656 49.1547 21.4656 49.2649 21.5656 49.2649C21.6656 49.3751 21.8656 49.2649 21.8656 49.1547C21.9656 49.0445 21.8656 48.8241 21.7656 48.8241C21.6656 48.8241 21.4656 48.7139 21.3656 48.6036ZM22.7656 49.8159C22.6656 49.9261 22.7656 50.1465 22.8656 50.1465C22.9656 50.2567 23.1656 50.3669 23.2656 50.4771C23.3656 50.5873 23.5656 50.4771 23.5656 50.3669C23.6656 50.2567 23.5656 50.0363 23.4656 50.0363C23.3656 49.9261 23.1656 49.8159 23.0656 49.7057C22.9656 49.5955 22.7656 49.7057 22.7656 49.8159ZM24.3656 51.0281C24.2656 51.1383 24.3656 51.3587 24.4656 51.4689C24.5656 51.5791 24.6656 51.6893 24.7656 51.7995C24.8656 51.9097 25.0656 51.9097 25.0656 51.7995C25.1656 51.6893 25.0656 51.5791 24.9656 51.4689C24.8656 51.3587 24.7656 51.2485 24.5656 51.1383C24.6656 50.8077 24.4656 50.9179 24.3656 51.0281ZM25.8656 52.4607C25.7656 52.571 25.7656 52.7914 25.8656 52.7914C25.9656 52.9016 26.0656 53.0118 26.1656 53.122C26.2656 53.2322 26.4656 53.2322 26.4656 53.122C26.4656 53.122 26.4656 53.122 26.4656 53.0118C26.5656 52.9016 26.4656 52.7914 26.4656 52.6812C26.3656 52.571 26.2656 52.4608 26.0656 52.2404C26.1656 52.3506 25.9656 52.3505 25.8656 52.4607ZM27.2656 54.0036C27.1656 54.1138 27.1656 54.3342 27.2656 54.3342L27.5656 54.775C27.6656 54.8852 27.7656 54.8852 27.8656 54.775C27.8656 54.775 27.8656 54.775 27.8656 54.6648C27.9656 54.5546 27.8656 54.4444 27.8656 54.3342L27.5656 53.8934C27.5656 53.8934 27.3656 53.8934 27.2656 54.0036ZM28.5656 55.6566C28.4656 55.7668 28.4656 55.877 28.5656 55.9872L28.8656 56.4281C28.9656 56.5383 29.0656 56.5383 29.1656 56.4281C29.1656 56.4281 29.1656 56.4281 29.2656 56.3179C29.3656 56.2077 29.2656 56.0974 29.2656 55.9872L28.9656 55.5464C28.8656 55.5464 28.6656 55.5464 28.5656 55.6566ZM29.8656 57.3097C29.7656 57.4199 29.7656 57.5301 29.8656 57.6403L30.1656 58.0811C30.2656 58.1913 30.3656 58.1913 30.4656 58.0811C30.4656 58.0811 30.4656 58.0811 30.5656 57.9709C30.5656 57.8607 30.5656 57.7505 30.5656 57.6403L30.2656 57.1995C30.0656 57.1995 29.9656 57.1995 29.8656 57.3097ZM31.0656 58.9627C30.9656 59.0729 30.9656 59.1831 31.0656 59.2933L31.3656 59.7341C31.4656 59.8443 31.5656 59.8443 31.6656 59.7341C31.6656 59.7341 31.6656 59.7342 31.7656 59.624C31.7656 59.5138 31.7656 59.4035 31.7656 59.2933L31.4656 58.8525C31.3656 58.9627 31.1656 58.9627 31.0656 58.9627ZM32.2656 60.726C32.1656 60.8362 32.1656 60.9464 32.1656 61.0566L32.4656 61.4974L32.5656 61.6076C32.6656 61.6076 32.7656 61.6076 32.7656 61.6076C32.7656 61.6076 32.7656 61.6076 32.8656 61.4974C32.8656 61.3872 32.8656 61.277 32.8656 61.1668L32.5656 60.726C32.5656 60.726 32.3656 60.6158 32.2656 60.726Z" fill="#BFDF83"/>
</g>
</g>
<g id="Group_14">
<g id="Group_15">
<path id="Vector_10" d="M2.26582 45.8485C2.06582 45.8485 1.96582 45.7383 1.76582 45.7383C1.66582 45.7383 1.46582 45.8485 1.46582 45.9587C1.46582 46.0689 1.46582 46.2893 1.66582 46.2893C1.86582 46.2893 1.96582 46.3995 2.16582 46.3995C2.26582 46.3995 2.36582 46.3995 2.46582 46.2893C2.46582 46.2893 2.46582 46.2893 2.46582 46.1791C2.56582 46.0689 2.46582 45.9587 2.26582 45.8485ZM4.26582 46.5097C4.06582 46.5097 3.96582 46.3995 3.76582 46.3995C3.66582 46.3995 3.46582 46.3995 3.46582 46.6199C3.46582 46.8403 3.46582 46.9505 3.66582 46.9505C3.86582 46.9505 3.96582 47.0607 4.16582 47.0607C4.26582 47.0607 4.36582 47.0607 4.46582 46.9505C4.46582 46.7301 4.36582 46.5097 4.26582 46.5097ZM5.66582 47.0607C5.56582 47.0607 5.36582 47.0607 5.36582 47.1709C5.36582 47.2811 5.36581 47.5015 5.46581 47.5015L5.96581 47.7219C6.06581 47.7219 6.16582 47.7219 6.26582 47.6117C6.26582 47.5015 6.26582 47.2811 6.16582 47.2811L5.66582 47.0607ZM7.46581 47.7219C7.36581 47.6117 7.16582 47.722 7.16582 47.8322C7.16582 47.9424 7.16582 48.1628 7.26582 48.1628L7.76582 48.3832C7.86582 48.3832 7.96582 48.3832 8.06582 48.273C8.06582 48.1628 8.06581 47.9423 7.96581 47.9423L7.46581 47.7219ZM9.36581 48.6036C9.26581 48.4934 9.06582 48.6036 9.06582 48.7138C8.96582 48.824 9.06582 49.0444 9.16582 49.0444L9.66582 49.2648C9.76582 49.375 9.96581 49.2648 9.96581 49.1546C10.0658 49.0444 9.96581 48.824 9.86581 48.824L9.36581 48.6036ZM11.1658 49.4852C11.0658 49.375 10.8658 49.4852 10.8658 49.5954C10.7658 49.7056 10.8658 49.926 10.9658 49.926L11.3658 50.1464C11.4658 50.2566 11.6658 50.1464 11.6658 50.0362C11.7658 49.926 11.6658 49.7056 11.5658 49.7056L11.1658 49.4852ZM12.9658 50.3668C12.8658 50.2566 12.6658 50.3668 12.6658 50.477C12.5658 50.5872 12.6658 50.8076 12.7658 50.8076L13.1658 51.028C13.2658 51.1382 13.4658 51.028 13.4658 50.9178C13.5658 50.8076 13.4658 50.5872 13.3658 50.5872L12.9658 50.3668ZM14.7658 51.3586C14.6658 51.2484 14.4658 51.3586 14.4658 51.4688C14.3658 51.579 14.4658 51.7994 14.5658 51.7994L14.9658 52.0198C15.0658 52.13 15.2658 52.0198 15.2658 51.9096C15.3658 51.7994 15.2658 51.579 15.1658 51.579L14.7658 51.3586ZM16.5658 52.3504C16.4658 52.2402 16.2658 52.3504 16.2658 52.4606C16.1658 52.5708 16.2658 52.7913 16.3658 52.7913L16.7658 53.0117C16.8658 53.1219 17.0658 53.0116 17.0658 52.9014C17.1658 52.7912 17.0658 52.5709 16.9658 52.5709L16.5658 52.3504ZM18.2658 53.3423C18.1658 53.2321 17.9658 53.3423 17.9658 53.4525C17.8658 53.5627 17.9658 53.7831 18.0658 53.7831L18.4658 54.0035C18.5658 54.1137 18.7658 54.0035 18.7658 53.8933C18.8658 53.7831 18.7658 53.5627 18.6658 53.5627L18.2658 53.3423ZM20.0658 54.3341C19.9658 54.2239 19.7658 54.3341 19.7658 54.4443C19.6658 54.5545 19.7658 54.7749 19.8658 54.7749L20.2658 54.9953C20.3658 55.1055 20.5658 54.9953 20.5658 54.8851C20.6658 54.7749 20.5658 54.5545 20.4658 54.5545L20.0658 54.3341ZM21.8658 55.3259C21.7658 55.2157 21.5658 55.3259 21.5658 55.4361C21.4658 55.5463 21.5658 55.7668 21.6658 55.7668L22.0658 55.9871C22.1658 56.0973 22.3658 55.9871 22.3658 55.8769C22.4658 55.7667 22.3658 55.5463 22.2658 55.5463L21.8658 55.3259ZM23.2658 56.5381C23.1658 56.6483 23.2658 56.8688 23.3658 56.8688C23.4658 56.979 23.6658 57.0892 23.7658 57.1994C23.8658 57.3096 24.0658 57.1993 24.0658 57.0891C24.1658 56.9789 24.0658 56.7585 23.9658 56.7585C23.8658 56.6483 23.6658 56.5381 23.5658 56.4279C23.4658 56.3177 23.2658 56.4279 23.2658 56.5381ZM24.8658 57.6401C24.7658 57.7503 24.8658 57.9708 24.9658 57.9708C25.0658 58.081 25.2658 58.1912 25.3658 58.3014C25.4658 58.4116 25.6658 58.3014 25.6658 58.1912C25.7658 58.081 25.6658 57.8606 25.5658 57.8606C25.4658 57.7504 25.2658 57.6402 25.1658 57.53C25.1658 57.53 24.9658 57.5299 24.8658 57.6401ZM26.5658 58.8524C26.4658 58.9626 26.4658 59.183 26.6658 59.183L27.0658 59.5136C27.1658 59.6238 27.3658 59.6238 27.3658 59.4034C27.4658 59.2932 27.3658 59.183 27.2658 59.0728L26.8658 58.7422C26.7658 58.7422 26.5658 58.7422 26.5658 58.8524ZM28.0658 60.1749C27.9658 60.2851 27.9658 60.5054 28.0658 60.6156L28.4658 60.9462C28.5658 61.0564 28.7658 61.0564 28.7658 60.9462C28.8658 60.836 28.7658 60.7258 28.6658 60.6156L28.2658 60.285C28.3658 60.0646 28.1658 60.0647 28.0658 60.1749ZM29.6658 61.6075C29.5658 61.7177 29.5658 61.9381 29.6658 61.9381L30.0658 62.2687C30.1658 62.3789 30.3658 62.3789 30.3658 62.2687C30.4658 62.1585 30.3658 62.0483 30.2658 61.9381L29.8658 61.6075C29.8658 61.4973 29.7658 61.4973 29.6658 61.6075ZM31.1658 63.0401C31.0658 63.1503 31.0658 63.3707 31.1658 63.3707L31.5658 63.7013C31.6658 63.8115 31.8658 63.8115 31.8658 63.7013C31.9658 63.5911 31.8658 63.4809 31.7658 63.3707L31.3658 63.0401C31.3658 62.8197 31.2658 62.9299 31.1658 63.0401Z" fill="#BFDF83"/>
</g>
</g>
</g>
<g id="Group_16">
<g id="Group_17">
<g id="Group_18">
<path id="Vector_11" d="M27.0658 19.8406C28.1658 16.3141 29.7658 11.7958 32.1658 8.48975C30.7658 8.93056 29.2658 9.59177 27.8658 10.5836C19.3658 16.5345 18.7658 28.5466 19.6658 38.575C20.6658 49.4851 25.8658 56.3177 30.2658 65.2441C26.0658 55.7667 24.3658 44.9668 24.6658 34.3874C25.1658 29.318 25.5658 24.5793 27.0658 19.8406Z" fill="#7DA35E"/>
</g>
<g id="Group_19">
<path id="Vector_12" d="M41.366 47.1702C41.266 47.7212 41.066 48.2722 40.966 48.9335C40.666 50.1457 40.366 51.4681 39.966 52.6803C39.866 53.1212 39.666 53.6721 39.566 54.113C39.366 54.664 39.166 55.215 39.066 55.766C39.066 55.8762 39.066 55.8762 38.966 55.9864C38.766 56.5374 38.666 56.9782 38.466 57.5293C38.266 58.0803 38.066 58.5211 37.866 59.0721C37.866 59.1823 37.766 59.2925 37.766 59.2925C37.566 59.8435 37.366 60.2843 37.166 60.8353C37.066 61.1659 36.866 61.4965 36.766 61.7169C36.666 61.8271 36.666 61.9373 36.566 62.0475C36.466 62.3781 36.266 62.5986 36.166 62.9292C36.066 63.0394 36.066 63.2598 35.966 63.37C35.766 63.8108 35.566 64.1414 35.366 64.5823C35.066 65.1333 34.866 65.574 34.566 66.125C34.466 66.2353 34.366 66.4557 34.366 66.5659C34.366 66.5659 34.366 66.5659 34.266 66.5659C33.966 66.5659 33.566 66.5659 33.166 66.5659C36.966 58.3007 38.166 49.1538 38.766 39.8968C39.466 29.2072 39.566 18.1869 36.366 8.15845C37.066 8.15845 37.766 8.26864 38.466 8.48904C38.666 8.81965 38.866 9.15024 39.066 9.37065C40.266 11.2441 41.166 13.338 41.866 15.542C44.966 25.5705 43.766 36.8111 41.366 47.1702Z" fill="#7DA35E"/>
</g>
<g id="Group_20">
<path id="Vector_13" d="M44.0658 56.5381C41.7658 60.285 38.8658 65.5747 34.9658 66.3461C35.2658 65.9053 35.5658 65.4645 35.8658 65.0237C36.7658 63.8115 37.5658 62.489 38.3658 61.1666C38.6658 60.6156 39.0658 60.0646 39.3658 59.5135C39.8658 58.5217 40.3658 57.6401 40.8658 56.6483C41.0658 56.0973 41.3658 55.6565 41.5658 55.1054C41.9658 54.2238 42.3658 53.232 42.7658 52.3504C44.0658 49.2647 44.9658 45.9586 45.4658 42.5423C45.8658 40.1179 46.0658 37.5832 46.1658 35.0486C46.3658 29.318 46.1658 23.5875 44.6658 18.1875C43.6658 14.7713 42.0658 11.4652 39.9658 8.82031C44.2658 10.4734 47.8658 14.4407 49.6658 19.7304C53.8658 31.9629 50.5658 46.0688 44.0658 56.5381Z" fill="#4E7746"/>
</g>
<g id="Group_21">
<path id="Vector_14" d="M31.3659 21.7142C30.6659 25.3509 29.9659 28.9875 29.5659 32.7344C28.2659 43.7547 29.6659 54.9953 31.6659 65.9054C31.9659 66.0156 32.1659 66.1259 32.4659 66.2361C33.7659 61.4974 34.3659 56.3178 34.8659 51.4689C35.1659 48.1628 35.1659 44.7465 35.2659 41.3302C35.3659 35.5997 35.3659 29.8692 35.4659 24.1386C35.4659 21.2734 35.5659 18.4081 35.5659 15.5428C35.5659 13.0081 35.4659 10.3633 35.3659 7.82861C35.1659 7.82861 34.9659 7.82861 34.8659 7.82861C33.5659 12.4571 32.2659 17.0856 31.3659 21.7142Z" fill="#7DA35E"/>
</g>
<g id="Group_22">
<path id="Vector_15" d="M31.6659 66.0148C31.1659 65.7944 30.7659 65.574 30.2659 65.2434C26.0659 55.766 24.3659 44.9661 24.6659 34.3866C25.0659 29.4275 25.4659 24.5786 26.9659 19.8399C28.0659 16.3134 29.6659 11.7951 32.0659 8.489C32.4659 8.3788 32.8659 8.26861 33.2659 8.15841C33.4659 8.15841 33.7659 8.0482 33.9659 8.0482C34.2659 8.0482 34.4659 7.93799 34.7659 7.93799C33.4659 12.4563 32.1659 17.0848 31.2659 21.7133C30.5659 25.35 29.8659 28.9867 29.4659 32.7336C28.2659 43.8641 29.6659 54.9946 31.6659 66.0148Z" fill="#3F6330"/>
</g>
<g id="Group_23">
<path id="Vector_16" d="M33.1658 66.4556C32.9658 66.4556 32.7658 66.3455 32.5658 66.3455H32.4658C32.5658 65.7944 32.7658 65.3536 32.8658 64.8026C32.9658 64.3618 33.0658 63.921 33.1658 63.4802C34.0658 59.5129 34.4658 55.5456 34.8658 51.5783C35.1658 48.2722 35.1658 44.8559 35.2658 41.4396C35.3658 35.7091 35.3658 29.9785 35.4658 24.248C35.4658 21.3827 35.5658 18.5175 35.5658 15.6522C35.5658 13.1175 35.4658 10.4727 35.3658 7.93799C35.6658 7.93799 36.0658 7.93799 36.3658 7.93799C39.5658 17.9664 39.4658 29.0969 38.7658 39.6764C38.1658 49.0436 36.9658 58.1904 33.1658 66.4556Z" fill="#3F6330"/>
</g>
<g id="Group_24">
<path id="Vector_17" d="M45.6658 42.5417C45.1658 45.958 44.1658 49.264 42.9658 52.3497C42.5658 53.3415 42.1658 54.2232 41.7658 55.1048C41.5658 55.6558 41.2658 56.0966 41.0658 56.6477C40.5658 57.6395 40.0658 58.5211 39.5658 59.5129C39.2658 60.0639 38.9658 60.6149 38.5658 61.1659C37.7658 62.4884 36.9658 63.8108 36.0658 65.023C35.7658 65.4638 35.4658 65.9047 35.1658 66.3455C34.9658 66.3455 34.6658 66.4557 34.4658 66.4557C34.5658 66.3455 34.6658 66.1251 34.6658 66.0149C34.9658 65.4639 35.2658 65.023 35.4658 64.472C35.6658 64.1414 35.8658 63.7006 36.0658 63.2598C36.1658 63.1496 36.1658 62.9292 36.2658 62.819C36.3658 62.4884 36.5658 62.268 36.6658 61.9374C36.7658 61.8272 36.7658 61.717 36.8658 61.6068C36.9658 61.2762 37.1658 60.9456 37.2658 60.7252C37.4658 60.1742 37.6658 59.7333 37.8658 59.1823C37.8658 59.0721 37.9658 58.9619 37.9658 58.9619C38.1658 58.4109 38.3658 57.9701 38.5658 57.4191C38.7658 56.8681 38.9658 56.4272 39.0658 55.8762C39.0658 55.8762 39.0658 55.766 39.1658 55.6558C39.3658 55.1048 39.5658 54.5538 39.6658 54.0028C39.7658 53.562 39.9658 53.0109 40.0658 52.5701C40.4658 51.3579 40.7658 50.0355 41.0658 48.8233C41.1658 48.2722 41.3658 47.7212 41.4658 47.06C43.8658 36.5907 45.0658 25.3501 41.9658 15.2114C41.2658 13.0074 40.4658 10.9135 39.1658 9.04006C39.0658 8.81965 38.7658 8.48906 38.5658 8.15845C38.7658 8.15845 38.9658 8.26862 39.0658 8.26862C39.2658 8.37883 39.5658 8.37884 39.7658 8.48904C39.8658 8.48904 39.9658 8.59925 40.1658 8.59925C42.3658 11.2441 43.8658 14.5502 44.8658 17.9665C46.4658 23.3664 46.6658 29.2072 46.3658 34.8275C46.2658 37.4724 46.0658 40.007 45.6658 42.5417Z" fill="#3F6330"/>
</g>
</g>
<g id="Group_25">
<g id="Group_26">
<path id="Vector_18" d="M34.0659 8.04858C33.8659 8.04858 33.5659 8.15879 33.3659 8.15879C33.2659 8.269 33.1659 8.48939 33.0659 8.5996C32.9659 8.82 32.9659 9.04041 33.1659 9.15061C33.2659 9.15061 33.2659 9.26082 33.3659 9.26082C33.4659 9.26082 33.5659 9.26081 33.6659 9.15061C33.7659 8.93021 33.9659 8.70979 34.0659 8.48939C34.1659 8.26898 34.1659 8.15879 34.0659 8.04858ZM32.4659 10.473C32.2659 10.3628 32.0659 10.473 31.9659 10.5832C31.8659 10.8036 31.7659 11.024 31.6659 11.2445C31.5659 11.4649 31.6659 11.6853 31.8659 11.7955H31.9659C32.0659 11.7955 32.2659 11.6853 32.2659 11.575C32.3659 11.3546 32.4659 11.1343 32.5659 10.9139C32.6659 10.8037 32.6659 10.5832 32.4659 10.473ZM31.3659 13.2281C31.1659 13.1179 30.9659 13.2281 30.9659 13.4485C30.8659 13.6689 30.7659 13.8893 30.7659 14.2199C30.6659 14.4403 30.7659 14.6607 30.9659 14.6607H31.0659C31.2659 14.6607 31.3659 14.5505 31.4659 14.4403C31.5659 14.2199 31.5659 13.9995 31.6659 13.6689C31.5659 13.5587 31.4659 13.3383 31.3659 13.2281ZM30.4659 16.2036C30.2659 16.0934 30.0659 16.3138 30.0659 16.424C29.9659 16.6444 29.9659 16.975 29.8659 17.1954C29.7659 17.4158 29.9659 17.6362 30.0659 17.6362H30.1659C30.3659 17.6362 30.4659 17.526 30.5659 17.3056C30.6659 17.0852 30.6659 16.8648 30.7659 16.5342C30.7659 16.424 30.6659 16.2036 30.4659 16.2036ZM29.7659 19.1791C29.5659 19.1791 29.3659 19.2892 29.3659 19.5097L29.1659 20.2811C29.1659 20.5015 29.2659 20.7219 29.4659 20.7219C29.6659 20.7219 29.7659 20.6117 29.8659 20.3913L30.0659 19.6199C30.0659 19.3995 29.9659 19.1791 29.7659 19.1791ZM29.1659 22.1545C28.9659 22.1545 28.7659 22.2647 28.7659 22.4851L28.5659 23.2565C28.5659 23.4769 28.6659 23.6973 28.8659 23.6973C29.0659 23.6973 29.1659 23.5872 29.2659 23.3667L29.4659 22.5953C29.4659 22.3749 29.2659 22.1545 29.1659 22.1545ZM28.4659 25.13C28.2659 25.13 28.0659 25.2402 28.0659 25.4606L27.9659 26.232C27.9659 26.4524 28.0659 26.6728 28.2659 26.6728C28.4659 26.6728 28.5659 26.5626 28.6659 26.3422L28.7659 25.5708C28.8659 25.3504 28.6659 25.2402 28.4659 25.13ZM27.9659 28.1054C27.7659 28.1054 27.5659 28.2157 27.5659 28.4361L27.4659 29.2075C27.4659 29.4279 27.5659 29.6483 27.7659 29.6483C27.9659 29.6483 28.0659 29.5381 28.1659 29.3177L28.2659 28.5463C28.2659 28.4361 28.1659 28.2157 27.9659 28.1054ZM27.4659 31.1911C27.2659 31.1911 27.0659 31.3013 27.0659 31.5217C27.0659 31.7421 26.9659 32.0728 26.9659 32.2932C26.9659 32.5136 27.0659 32.734 27.2659 32.734C27.4659 32.734 27.5659 32.6238 27.6659 32.4034C27.6659 32.183 27.7659 31.8524 27.7659 31.6319C27.7659 31.4115 27.6659 31.1911 27.4659 31.1911ZM27.0659 34.2768C26.8659 34.2768 26.6659 34.387 26.6659 34.6074C26.6659 34.8278 26.6659 35.0482 26.5659 35.2686V35.3788C26.5659 35.5992 26.6659 35.8196 26.8659 35.8196C27.0659 35.8196 27.2659 35.7094 27.2659 35.489V35.3788C27.2659 35.1584 27.2659 34.938 27.3659 34.7176C27.4659 34.387 27.2659 34.2768 27.0659 34.2768ZM27.2659 37.6931C27.2659 37.4727 27.0659 37.2523 26.9659 37.2523C26.7659 37.2523 26.6659 37.3625 26.5659 37.5829C26.5659 37.8033 26.5659 38.1339 26.5659 38.3543C26.5659 38.5747 26.6659 38.6849 26.8659 38.7951C27.0659 38.7951 27.2659 38.5747 27.2659 38.4645C27.2659 38.2441 27.2659 37.9135 27.2659 37.6931ZM27.2659 40.7788C27.2659 40.5583 27.0659 40.4482 26.8659 40.4482C26.6659 40.4482 26.5659 40.6686 26.5659 40.889C26.5659 41.1094 26.5659 41.44 26.5659 41.6604C26.5659 41.8808 26.6659 41.991 26.8659 41.991C27.0659 41.991 27.1659 41.7706 27.1659 41.5502C27.2659 41.2196 27.2659 40.9992 27.2659 40.7788ZM27.3659 43.7542C27.3659 43.5338 27.1659 43.4236 26.9659 43.4236C26.7659 43.4236 26.6659 43.644 26.6659 43.8644C26.6659 44.0849 26.6659 44.4154 26.7659 44.6358C26.7659 44.8563 26.8659 44.9665 27.0659 44.9665C27.0659 44.9665 27.0659 44.9665 27.1659 44.9665C27.3659 44.9665 27.4659 44.7461 27.4659 44.5257C27.3659 44.3053 27.3659 44.0848 27.3659 43.7542ZM27.6659 47.6113C27.6659 47.3909 27.5659 47.0603 27.5659 46.8399C27.5659 46.6195 27.3659 46.5093 27.1659 46.5093C26.9659 46.5093 26.8659 46.7297 26.8659 46.9501C26.8659 47.1705 26.9659 47.5011 26.9659 47.7215C26.9659 47.9419 27.1659 48.0521 27.2659 48.0521C27.2659 48.0521 27.2659 48.0521 27.3659 48.0521C27.5659 47.9419 27.7659 47.8317 27.6659 47.6113ZM28.0659 50.5868L27.9659 49.8154C27.9659 49.595 27.7659 49.4848 27.5659 49.4848C27.3659 49.4848 27.2659 49.7052 27.2659 49.9256L27.3659 50.697C27.3659 50.9174 27.5659 51.0276 27.6659 51.0276H27.7659C27.9659 51.0276 28.0659 50.8072 28.0659 50.5868ZM28.5659 53.6725L28.4659 52.901C28.4659 52.6806 28.2659 52.5704 28.0659 52.5704C27.8659 52.5704 27.7659 52.7909 27.7659 53.0113L27.8659 53.7827C27.8659 54.0031 28.0659 54.1133 28.1659 54.1133H28.2659C28.4659 54.0031 28.5659 53.8929 28.5659 53.6725ZM29.0659 56.648L28.9659 55.8765C28.9659 55.6561 28.7659 55.5459 28.5659 55.5459C28.3659 55.5459 28.2659 55.7663 28.2659 55.9867L28.4659 56.7581C28.4659 56.9785 28.6659 57.0887 28.7659 57.0887H28.8659C29.0659 57.0887 29.1659 56.8684 29.0659 56.648ZM29.7659 59.6234L29.5659 58.852C29.5659 58.6316 29.3659 58.5214 29.1659 58.5214C28.9659 58.5214 28.8659 58.7418 28.8659 58.9622L29.0659 59.7336C29.0659 59.954 29.2659 59.954 29.3659 60.0642H29.4659C29.6659 60.0642 29.7659 59.8439 29.7659 59.6234ZM30.4659 62.5989L30.2659 61.8275C30.1659 61.6071 30.0659 61.4969 29.8659 61.6071C29.6659 61.6071 29.5659 61.8274 29.6659 62.0479L29.8659 62.8193C29.8659 62.9295 30.0659 63.0397 30.1659 63.0397H30.2659C30.4659 62.9295 30.5659 62.7091 30.4659 62.5989Z" fill="#BFDF83"/>
</g>
</g>
<g id="Group_27">
<g id="Group_28">
<path id="Vector_19" d="M39.9657 9.04086L39.7657 8.60006C39.5657 8.48985 39.2657 8.48984 39.0657 8.37964C38.9657 8.48984 38.9657 8.71024 39.0657 8.82044L39.4657 9.48167C39.5657 9.59187 39.6657 9.70208 39.7657 9.70208C39.8657 9.70208 39.9657 9.70208 39.9657 9.59187C40.0657 9.48167 40.0657 9.26127 39.9657 9.04086ZM41.4657 11.6857C41.3657 11.4653 41.2657 11.2449 41.0657 11.0245C40.9657 10.8041 40.7657 10.8041 40.5657 10.9143C40.3657 11.0245 40.3657 11.2449 40.4657 11.4653C40.5657 11.6857 40.6657 11.9061 40.7657 12.1265C40.8657 12.2367 40.9657 12.3469 41.0657 12.3469C41.1657 12.3469 41.1657 12.3469 41.2657 12.3469C41.4657 12.1265 41.5657 11.9061 41.4657 11.6857ZM42.7657 14.4408C42.6657 14.2204 42.5657 14 42.4657 13.7796C42.3657 13.5592 42.1657 13.5592 41.9657 13.5592C41.7657 13.6694 41.7657 13.8898 41.7657 14.1102C41.8657 14.3306 41.9657 14.551 42.0657 14.7714C42.1657 14.8816 42.2657 14.9918 42.3657 14.9918C42.4657 14.9918 42.4657 14.9918 42.5657 14.9918C42.7657 14.8816 42.8657 14.6612 42.7657 14.4408ZM43.8657 17.3061C43.7657 17.0857 43.6657 16.8652 43.6657 16.5346C43.5657 16.3142 43.3657 16.204 43.1657 16.3142C42.9657 16.4244 42.8657 16.6449 42.9657 16.8653C43.0657 17.0857 43.1657 17.3061 43.1657 17.5265C43.1657 17.6367 43.3657 17.7469 43.4657 17.7469H43.5657C43.7657 17.7469 43.8657 17.5265 43.8657 17.3061ZM44.5657 20.2815C44.4657 20.0611 44.4657 19.7305 44.3657 19.5101C44.3657 19.2897 44.1657 19.1795 43.9657 19.1795C43.7657 19.1795 43.6657 19.3999 43.6657 19.6203C43.7657 19.8407 43.7657 20.0611 43.8657 20.3917C43.8657 20.6121 44.0657 20.7224 44.1657 20.7224H44.2657C44.4657 20.7224 44.6657 20.502 44.5657 20.2815ZM44.9657 22.5958C44.9657 22.3754 44.7657 22.2652 44.5657 22.2652C44.3657 22.2652 44.2657 22.4856 44.2657 22.706C44.2657 22.9264 44.2657 23.257 44.3657 23.4774C44.3657 23.6978 44.4657 23.808 44.6657 23.808C44.6657 23.808 44.6657 23.808 44.7657 23.808C44.9657 23.808 45.0657 23.5876 45.0657 23.3672C44.9657 23.1468 44.9657 22.9264 44.9657 22.5958ZM45.0657 25.6815C45.0657 25.4611 44.9657 25.3508 44.6657 25.3508C44.4657 25.3508 44.3657 25.5713 44.3657 25.7917C44.3657 26.0121 44.3657 26.3427 44.3657 26.5631C44.3657 26.7835 44.4657 26.8937 44.6657 26.8937C44.8657 26.8937 44.9657 26.6733 44.9657 26.5631C45.0657 26.2325 45.0657 26.0121 45.0657 25.6815ZM45.0657 28.7671C45.0657 28.5467 44.8657 28.4365 44.7657 28.3263C44.5657 28.3263 44.4657 28.5467 44.3657 28.6569V29.4284C44.3657 29.6488 44.4657 29.7589 44.6657 29.7589C44.8657 29.7589 44.9657 29.5386 45.0657 29.4284V28.7671ZM45.0657 31.8528C45.0657 31.6324 44.9657 31.5222 44.7657 31.412C44.5657 31.412 44.4657 31.6324 44.3657 31.7426V32.514C44.3657 32.7344 44.4657 32.8447 44.6657 32.9549C44.8657 32.9549 45.0657 32.7344 45.0657 32.6242V31.8528ZM45.0657 34.9385C45.0657 34.7181 44.8657 34.4977 44.7657 34.4977C44.5657 34.4977 44.4657 34.7181 44.3657 34.8283V35.5997C44.3657 35.8201 44.4657 35.9303 44.6657 36.0405C44.8657 36.0405 44.9657 35.8201 45.0657 35.7099V34.9385ZM44.9657 38.0242C44.9657 37.8037 44.8657 37.5833 44.6657 37.5833C44.4657 37.5833 44.2657 37.6936 44.2657 37.914C44.2657 38.1344 44.2657 38.465 44.2657 38.6854C44.2657 38.9058 44.3657 39.016 44.5657 39.1262C44.7657 39.1262 44.9657 39.016 44.9657 38.7956C44.9657 38.5752 44.9657 38.2446 44.9657 38.0242ZM44.4657 40.669C44.2657 40.669 44.0657 40.7792 44.0657 40.9996C44.0657 41.22 43.9657 41.5507 43.9657 41.7711C43.9657 41.9915 44.0657 42.2119 44.2657 42.2119C44.4657 42.2119 44.6657 42.1017 44.6657 41.8812C44.6657 41.6608 44.7657 41.3302 44.7657 41.1098C44.7657 40.8894 44.6657 40.669 44.4657 40.669ZM44.0657 43.7547C43.8657 43.7547 43.6657 43.8649 43.6657 44.0853C43.6657 44.3057 43.5657 44.5261 43.5657 44.7465C43.4657 44.9669 43.6657 45.1873 43.7657 45.1873C43.7657 45.1873 43.7657 45.1873 43.8657 45.1873C44.0657 45.1873 44.1657 45.0771 44.2657 44.8567C44.3657 44.6363 44.3657 44.4159 44.4657 44.0853C44.3657 43.9751 44.2657 43.8649 44.0657 43.7547ZM43.2657 46.7302C43.0657 46.62 42.8657 46.7302 42.8657 46.9506C42.7657 47.171 42.6657 47.3914 42.6657 47.722C42.5657 47.9424 42.6657 48.1628 42.8657 48.1628H42.9657C43.1657 48.1628 43.2657 48.0526 43.3657 47.9424C43.4657 47.722 43.5657 47.5016 43.5657 47.171C43.5657 46.9506 43.4657 46.7302 43.2657 46.7302ZM42.3657 49.5954C42.1657 49.4852 41.9657 49.5954 41.8657 49.8158L41.5657 50.4771C41.4657 50.6975 41.5657 50.9179 41.7657 51.0281H41.8657C41.9657 51.0281 42.1657 50.9179 42.1657 50.8077L42.4657 50.1464C42.5657 49.926 42.4657 49.5954 42.3657 49.5954ZM41.2657 52.3505C41.0657 52.2403 40.8657 52.3505 40.7657 52.5709L40.4657 53.2321C40.3657 53.4525 40.4657 53.673 40.6657 53.7832H40.7657C40.8657 53.7832 41.0657 53.6729 41.0657 53.5627L41.3657 52.9015C41.4657 52.6811 41.3657 52.4607 41.2657 52.3505ZM40.0657 55.2158C39.8657 55.1056 39.6657 55.2158 39.5657 55.4362L39.2657 56.0974C39.1657 56.3178 39.2657 56.5382 39.4657 56.6484H39.5657C39.6657 56.6484 39.8657 56.5382 39.8657 56.428L40.1657 55.7668C40.2657 55.5464 40.2657 55.326 40.0657 55.2158ZM38.8657 57.9709C38.6657 57.8607 38.4657 57.9708 38.3657 58.1912L38.0657 58.8525C37.9657 59.0729 38.0657 59.2933 38.1657 59.4035H38.2657C38.3657 59.4035 38.5657 59.2933 38.5657 59.1831L38.8657 58.5219C39.0657 58.3015 38.9657 58.0811 38.8657 57.9709ZM37.5657 60.6157C37.4657 60.5055 37.2657 60.6157 37.1657 60.7259L36.8657 61.3871C36.8657 61.4973 36.8657 61.4973 36.8657 61.6075C36.8657 61.7178 36.9657 61.8279 37.0657 61.9381H37.1657C37.2657 61.9381 37.4657 61.8279 37.4657 61.7177L37.7657 61.0565C37.7657 60.9463 37.6657 60.7259 37.5657 60.6157Z" fill="#BFDF83"/>
</g>
</g>
<g id="Group_29">
<g id="Group_30">
<path id="Vector_20" d="M36.7659 9.70212C36.7659 9.48172 36.6659 9.1511 36.6659 8.93069C36.6659 8.71029 36.4659 8.6001 36.2659 8.6001C36.0659 8.6001 35.9659 8.8205 35.9659 9.0409C35.9659 9.26131 36.0659 9.59193 36.0659 9.81233C36.0659 10.0327 36.2659 10.1429 36.3659 10.1429H36.4659C36.6659 10.1429 36.7659 9.92253 36.7659 9.70212ZM37.1659 12.7878C37.1659 12.5674 37.0659 12.2368 37.0659 12.0164C37.0659 11.796 36.8659 11.6858 36.6659 11.6858C36.4659 11.6858 36.3659 11.9062 36.3659 12.1266C36.3659 12.347 36.4659 12.6776 36.4659 12.898C36.4659 13.1184 36.6659 13.2286 36.7659 13.2286C36.7659 13.2286 36.7659 13.2286 36.8659 13.2286C37.0659 13.1184 37.1659 12.898 37.1659 12.7878ZM37.4659 14.9918C37.4659 14.7714 37.2659 14.6612 37.0659 14.6612C36.8659 14.6612 36.7659 14.8816 36.7659 15.1021L36.8659 15.8735C36.8659 16.0939 37.0659 16.2041 37.1659 16.2041H37.2659C37.4659 16.2041 37.5659 15.9837 37.5659 15.7633L37.4659 14.9918ZM37.6659 18.0775C37.6659 17.8571 37.4659 17.7469 37.2659 17.7469C37.0659 17.7469 36.9659 17.9673 36.9659 18.1877V18.9591C36.9659 19.1796 37.0659 19.2897 37.2659 19.2897C37.4659 19.2897 37.5659 19.0693 37.5659 18.8489L37.6659 18.0775ZM37.8659 21.1632C37.8659 20.9428 37.6659 20.8326 37.4659 20.8326C37.2659 20.8326 37.1659 21.053 37.1659 21.2734V22.0448C37.1659 22.2652 37.2659 22.3754 37.4659 22.3754C37.6659 22.3754 37.7659 22.155 37.7659 21.9346L37.8659 21.1632ZM37.8659 24.2489C37.8659 24.0285 37.6659 23.9183 37.4659 23.9183C37.2659 23.9183 37.1659 24.1387 37.1659 24.3591V25.1305C37.1659 25.3509 37.2659 25.4611 37.4659 25.4611C37.6659 25.4611 37.7659 25.2407 37.7659 25.1305L37.8659 24.2489ZM37.9659 27.3346C37.9659 27.1142 37.7659 27.004 37.6659 26.8938C37.4659 26.8938 37.3659 27.1141 37.2659 27.2244V27.9958C37.2659 28.2162 37.3659 28.3264 37.5659 28.3264C37.7659 28.3264 37.8659 28.106 37.9659 27.9958V27.3346ZM37.8659 30.4202C37.8659 30.1998 37.6659 29.9794 37.5659 29.9794C37.3659 29.9794 37.1659 30.1998 37.1659 30.31V31.0814C37.1659 31.3019 37.2659 31.412 37.4659 31.5223C37.6659 31.5223 37.7659 31.3019 37.8659 31.1917V30.4202ZM37.8659 33.5059C37.8659 33.2855 37.6659 33.0651 37.5659 33.0651C37.3659 33.0651 37.1659 33.1753 37.1659 33.3957V34.1671C37.1659 34.3875 37.2659 34.4977 37.4659 34.6079C37.6659 34.6079 37.7659 34.4977 37.8659 34.2773V33.5059ZM37.7659 36.5916C37.7659 36.3712 37.5659 36.1508 37.4659 36.1508C37.2659 36.1508 37.0659 36.261 37.0659 36.4814V37.2528C37.0659 37.4732 37.1659 37.5834 37.3659 37.6936C37.5659 37.6936 37.7659 37.5834 37.7659 37.363V36.5916ZM37.6659 39.6772C37.6659 39.4568 37.4659 39.2364 37.3659 39.2364C37.1659 39.2364 37.0659 39.3467 36.9659 39.5671V40.3385C36.9659 40.5589 37.0659 40.6691 37.2659 40.7793C37.4659 40.7793 37.6659 40.6691 37.6659 40.4487V39.6772ZM37.5659 42.7629C37.5659 42.5425 37.4659 42.3221 37.2659 42.3221C37.0659 42.3221 36.8659 42.4323 36.8659 42.6527V43.4242C36.8659 43.6446 36.9659 43.865 37.1659 43.865C37.3659 43.865 37.5659 43.7547 37.5659 43.5343V42.7629ZM36.9659 45.4078C36.7659 45.4078 36.5659 45.518 36.5659 45.7384C36.5659 45.9588 36.5659 46.2894 36.4659 46.5098C36.4659 46.7302 36.5659 46.9506 36.7659 46.9506C36.9659 46.9506 37.1659 46.8404 37.1659 46.62C37.1659 46.3996 37.1659 46.069 37.2659 45.8486C37.3659 45.6282 37.1659 45.4078 36.9659 45.4078ZM36.6659 48.4935C36.4659 48.4935 36.2659 48.6037 36.2659 48.8241C36.2659 49.0445 36.1659 49.3751 36.1659 49.5955C36.1659 49.8159 36.2659 50.0363 36.4659 50.0363C36.6659 50.0363 36.7659 49.9261 36.8659 49.7057C36.8659 49.4853 36.9659 49.1547 36.9659 48.9343C36.9659 48.7139 36.8659 48.4935 36.6659 48.4935ZM36.1659 51.469C35.9659 51.469 35.7659 51.5791 35.7659 51.7995L35.6659 52.571C35.6659 52.7914 35.7659 53.0118 35.9659 53.0118C36.1659 53.0118 36.2659 52.9016 36.3659 52.6812L36.4659 51.9098C36.5659 51.6894 36.3659 51.469 36.1659 51.469ZM35.6659 54.4444C35.4659 54.4444 35.2659 54.5546 35.2659 54.775L35.0659 55.5465C34.9659 55.7669 35.1659 55.9872 35.3659 55.9872C35.3659 55.9872 35.3659 55.9872 35.4659 55.9872C35.6659 55.9872 35.7659 55.877 35.8659 55.6566L36.0659 54.8852C35.9659 54.775 35.8659 54.5546 35.6659 54.4444ZM34.9659 57.4199C34.7659 57.3097 34.5659 57.5301 34.5659 57.6403L34.3659 58.4117C34.2659 58.6321 34.4659 58.8526 34.5659 58.8526H34.6659C34.8659 58.8526 34.9659 58.7424 35.0659 58.522L35.2659 57.7505C35.2659 57.7505 35.1659 57.5301 34.9659 57.4199ZM34.2659 60.3953C34.0659 60.2851 33.8659 60.5056 33.8659 60.6158L33.6659 61.3872C33.5659 61.6076 33.7659 61.828 33.8659 61.828C33.8659 61.828 33.8659 61.828 33.9659 61.828C34.1659 61.828 34.2659 61.7178 34.3659 61.6076L34.5659 60.8362C34.5659 60.726 34.4659 60.5056 34.2659 60.3953Z" fill="#BFDF83"/>
</g>
</g>
</g>
<g id="Group_31">
<g id="Group_32">
<g id="Group_33">
<path id="Vector_21" d="M65.3654 32.404C68.5654 31.0815 72.6654 29.6489 76.5654 29.5387C75.3654 28.5469 73.9654 27.7754 72.3654 27.2244C62.8654 23.6979 54.0654 30.7509 47.5654 37.9141C40.5654 45.6283 39.0654 54.4445 35.5654 63.8117C39.5654 54.2241 46.0654 45.9589 53.6654 39.5671C57.3654 36.7019 61.0654 34.057 65.3654 32.404Z" fill="#7DA35E"/>
</g>
<g id="Group_34">
<path id="Vector_22" d="M55.1654 61.8282C54.6654 62.0487 54.1654 62.269 53.6654 62.5996C52.5654 63.1506 51.4654 63.5915 50.3654 64.1425C49.9654 64.3629 49.5654 64.4731 49.0654 64.6935C48.5654 64.9139 48.0654 65.1343 47.5654 65.3547C47.4654 65.3547 47.4654 65.3547 47.3654 65.4649C46.8654 65.6853 46.4654 65.7955 45.9654 66.0159C45.4654 66.2364 45.0654 66.3465 44.5654 66.4567C44.4654 66.4567 44.3654 66.567 44.3654 66.567C43.8654 66.6772 43.3654 66.8975 42.9654 67.0077C42.6654 67.1179 42.3654 67.2281 42.0654 67.2281C41.9654 67.2281 41.8654 67.3384 41.7654 67.3384C41.4654 67.4486 41.1654 67.4485 40.8654 67.5587C40.7654 67.5587 40.5654 67.669 40.4654 67.669C40.0654 67.7792 39.6654 67.8894 39.2654 67.8894C38.7654 67.9996 38.1654 68.1098 37.6654 68.1098C37.4654 68.1098 37.3654 68.1098 37.1654 68.22C37.1654 68.22 37.1654 68.22 37.1654 68.1098C36.9654 67.7791 36.7654 67.5588 36.5654 67.2281C44.7654 65.2445 51.9654 60.5058 58.8654 55.1058C66.8654 48.9345 74.6654 41.9917 79.6654 32.9551C80.0654 33.6163 80.4654 34.2775 80.7654 34.9387C80.6654 35.3795 80.5654 35.7101 80.4654 36.0407C79.9654 38.2448 78.9654 40.3387 77.8654 42.3223C72.6654 51.2488 63.9654 57.3099 55.1654 61.8282Z" fill="#7DA35E"/>
</g>
<g id="Group_35">
<path id="Vector_23" d="M50.2654 70.0931C46.1654 70.5339 40.6654 71.3053 37.5654 68.5502C37.5654 68.5502 37.5654 68.5502 37.6654 68.5502C38.1654 68.5502 38.6654 68.5502 39.1654 68.5502C40.5654 68.5502 42.0654 68.4401 43.4654 68.2197C44.0654 68.1094 44.6654 68.1094 45.2654 67.9992C46.2654 67.889 47.2654 67.6686 48.2654 67.4482C48.7654 67.338 49.2654 67.2278 49.7654 67.1176C50.6654 66.8972 51.5654 66.6768 52.4654 66.3462C55.4654 65.4646 58.3654 64.1421 61.0654 62.4891C63.0654 61.2769 64.9654 59.8443 66.7654 58.3014C70.8655 54.8851 74.8654 51.028 77.6655 46.2893C79.4655 43.3139 80.7655 39.8976 81.2655 36.3711C82.8655 41.1098 82.3655 46.7301 79.7655 51.4689C73.8655 62.9299 61.7654 68.9911 50.2654 70.0931Z" fill="#4E7746"/>
</g>
<g id="Group_36">
<path id="Vector_24" d="M66.7653 37.2529C63.7653 38.9059 60.7653 40.6691 57.8653 42.6528C49.2652 48.6037 42.2652 56.8689 35.8652 65.4647C35.9652 65.7953 36.0652 66.1259 36.1652 66.3463C40.3652 64.4729 44.3652 61.7178 48.0652 58.9628C50.5653 57.0893 52.9652 54.9955 55.3653 52.9016C59.4653 49.3751 63.4653 45.7385 67.5653 42.212C69.5653 40.4487 71.6653 38.6855 73.6653 36.9222C75.4653 35.2692 77.2653 33.6162 78.9653 31.8529C78.8653 31.7427 78.7653 31.5223 78.5653 31.4121C74.5653 33.2856 70.5653 35.0488 66.7653 37.2529Z" fill="#7DA35E"/>
</g>
<g id="Group_37">
<path id="Vector_25" d="M35.8654 65.4648C35.7654 64.9137 35.5654 64.3627 35.5654 63.7015C39.5654 54.1138 46.0654 45.8487 53.6654 39.4569C57.3654 36.5916 61.0654 33.9468 65.3654 32.2937C68.5654 30.9713 72.6654 29.5387 76.5654 29.4285C76.8654 29.6489 77.2654 29.9795 77.5654 30.3101C77.7654 30.5305 77.8654 30.6407 78.0654 30.8611C78.2654 31.0815 78.4654 31.3019 78.6654 31.5223C74.6654 33.2856 70.6654 35.159 66.7654 37.2529C63.7654 38.9059 60.7654 40.6691 57.8654 42.6528C49.2654 48.6037 42.2654 56.8689 35.8654 65.4648Z" fill="#3F6330"/>
</g>
<g id="Group_38">
<path id="Vector_26" d="M36.4655 67.0077C36.3655 66.7873 36.2655 66.6771 36.1655 66.4567V66.3465C36.5655 66.1261 37.0655 65.9057 37.4655 65.6853C37.8655 65.4649 38.2655 65.2445 38.6655 65.1343C41.9655 63.3711 45.1655 61.167 48.0655 58.9629C50.5655 57.0895 52.9655 54.9956 55.3655 52.9017C59.4655 49.3753 63.4655 45.7386 67.5655 42.2121C69.5655 40.4488 71.6655 38.6856 73.6655 36.9223C75.4655 35.3795 77.2655 33.6163 78.9655 31.853C79.1655 32.1836 79.3655 32.404 79.5655 32.7346C74.4655 41.7713 66.6655 48.714 58.7655 54.8854C51.8655 60.2853 44.6655 65.024 36.4655 67.0077Z" fill="#3F6330"/>
</g>
<g id="Group_39">
<path id="Vector_27" d="M61.1655 62.5994C58.4655 64.2524 55.5655 65.5748 52.5655 66.4565C51.6655 66.7871 50.7655 67.0075 49.8655 67.2279C49.3655 67.3381 48.8655 67.4483 48.3655 67.5585C47.3655 67.7789 46.3655 67.8891 45.3655 68.1095C44.7655 68.2197 44.1655 68.2197 43.5655 68.3299C42.1655 68.4401 40.6655 68.5503 39.2655 68.6605C38.7655 68.6605 38.2655 68.6605 37.7655 68.6605C37.7655 68.6605 37.7655 68.6605 37.6655 68.6605C37.4655 68.5503 37.3655 68.3299 37.1655 68.1095C37.3655 68.1095 37.4655 68.1095 37.6655 67.9993C38.1655 67.8891 38.7655 67.7789 39.2655 67.7789C39.6655 67.6687 40.0655 67.6687 40.4655 67.5585C40.5655 67.5585 40.7655 67.4483 40.8655 67.4483C41.1655 67.3381 41.4655 67.3381 41.7655 67.2279C41.8655 67.2279 41.9655 67.1177 42.0655 67.1177C42.3655 67.0075 42.6655 67.0075 42.9655 66.8973C43.4655 66.7871 43.9655 66.5667 44.3655 66.4565C44.4655 66.4565 44.5655 66.4565 44.5655 66.3463C45.0655 66.2361 45.4655 66.0157 45.9655 65.9055C46.4655 65.7952 46.8655 65.5748 47.3655 65.3544C47.3655 65.3544 47.4655 65.3545 47.5655 65.2443C48.0655 65.0239 48.5655 64.8035 49.0655 64.5831C49.4655 64.3627 49.8655 64.2525 50.3655 64.0321C51.4655 63.5912 52.5655 63.0402 53.6655 62.4892C54.1655 62.2688 54.6655 62.0484 55.1655 61.7178C64.0655 57.1994 72.6655 51.1383 77.8655 41.9915C78.9655 40.0078 79.8655 37.914 80.4655 35.7099C80.5655 35.3793 80.6655 35.0487 80.7655 34.6079C80.8655 34.8283 80.9655 34.9385 80.9655 35.1589C81.0655 35.3793 81.1655 35.7099 81.2655 35.9303C81.3655 36.0405 81.3655 36.1507 81.3655 36.3711C80.8655 39.8976 79.5655 43.3139 77.7655 46.2894C74.9655 51.0281 70.9655 54.8852 66.8655 58.3015C65.0655 59.9545 63.1655 61.3871 61.1655 62.5994Z" fill="#3F6330"/>
</g>
</g>
<g id="Group_40">
<g id="Group_41">
<path id="Vector_28" d="M78.0655 30.8611C77.8655 30.6407 77.7655 30.5305 77.5655 30.3101C77.3655 30.3101 77.1655 30.3101 77.0655 30.3101C76.8655 30.3101 76.7655 30.5305 76.7655 30.7509C76.7655 30.8611 76.7655 30.8611 76.8655 30.9713C76.9655 31.0815 77.0655 31.1917 77.1655 31.1917C77.3655 31.1917 77.6655 31.1917 77.8655 31.1917C77.8655 31.0815 77.9655 30.9713 78.0655 30.8611ZM75.3655 31.0815C75.3655 30.8611 75.1655 30.7509 74.9655 30.7509C74.7655 30.8611 74.4655 30.8611 74.2655 30.9713C74.0655 31.0815 73.9655 31.1917 74.0655 31.4121V31.5223C74.1655 31.6325 74.2655 31.7427 74.4655 31.6325C74.6655 31.5223 74.8655 31.5223 75.1655 31.4121C75.2655 31.4121 75.3655 31.1917 75.3655 31.0815ZM72.6655 31.8529C72.5655 31.6325 72.3655 31.5223 72.2655 31.6325C72.0655 31.7427 71.8655 31.8529 71.5655 31.8529C71.3655 31.9631 71.2655 32.1835 71.3655 32.2937V32.4039C71.4655 32.5141 71.6655 32.6243 71.7655 32.5141C71.9655 32.4039 72.1655 32.2937 72.4655 32.2937C72.5655 32.2937 72.6655 32.0733 72.6655 31.8529ZM70.0655 32.955C69.9655 32.7345 69.7655 32.6243 69.5655 32.7345C69.3655 32.8447 69.1655 32.9549 68.9655 33.0651C68.7655 33.1753 68.6655 33.3957 68.7655 33.6161V33.7264C68.8655 33.8366 69.0655 33.9468 69.1655 33.8366C69.3655 33.7264 69.5655 33.6162 69.7655 33.506C70.0655 33.3958 70.0655 33.1754 70.0655 32.955ZM67.4655 34.1672C67.3655 33.9468 67.1655 33.9468 66.9655 33.9468L66.3655 34.2774C66.1655 34.3876 66.1655 34.608 66.1655 34.8284C66.2655 34.9386 66.4655 35.0488 66.5655 34.9386L67.1655 34.608C67.4655 34.608 67.5655 34.3876 67.4655 34.1672ZM64.9655 35.5998C64.8655 35.3794 64.6655 35.3794 64.4655 35.3794L63.8655 35.71C63.6655 35.8202 63.6655 36.0406 63.6655 36.261C63.7655 36.3712 63.9655 36.4814 64.0655 36.3712L64.6655 36.0406C64.9655 36.0406 65.0655 35.71 64.9655 35.5998ZM62.4655 36.9222C62.3655 36.7018 62.1655 36.7018 61.9655 36.7018L61.3655 37.0324C61.1655 37.1426 61.1655 37.363 61.1655 37.5835C61.2655 37.6937 61.4655 37.8039 61.5655 37.6937L62.1655 37.3631C62.5655 37.3631 62.5655 37.1426 62.4655 36.9222ZM60.0655 38.3549C59.9655 38.1345 59.7655 38.1345 59.5655 38.2447L58.9655 38.5753C58.7655 38.6855 58.7655 38.9059 58.8655 39.1263C58.9655 39.2365 59.1655 39.3467 59.3655 39.2365L59.9655 38.9059C60.0655 38.7957 60.1655 38.5753 60.0655 38.3549ZM57.5655 39.8977C57.4655 39.6773 57.2655 39.6773 57.0655 39.7875C56.8655 39.8977 56.6655 40.0079 56.4655 40.2283C56.2655 40.3385 56.2655 40.5589 56.3655 40.7793C56.4655 40.8895 56.6655 40.9997 56.8655 40.8895C57.0655 40.7793 57.2655 40.6691 57.4655 40.4487C57.6655 40.3385 57.6655 40.0079 57.5655 39.8977ZM55.2655 41.4405C55.1655 41.2201 54.9655 41.2201 54.7655 41.3303C54.5655 41.4405 54.4655 41.5508 54.2655 41.661H54.1655C53.9655 41.7712 53.9655 41.9916 54.0655 42.212C54.1655 42.4324 54.3655 42.4324 54.5655 42.3222H54.6655C54.8655 42.212 54.9655 42.1018 55.1655 41.9916C55.2655 41.8814 55.3655 41.661 55.2655 41.4405ZM52.8655 43.7548C53.0655 43.6446 53.0655 43.314 52.9655 43.2038C52.8655 43.0936 52.6655 42.9834 52.4655 43.0936C52.2655 43.2038 52.0655 43.4242 51.8655 43.5344C51.7655 43.6446 51.6655 43.865 51.7655 44.0854C51.8655 44.3058 52.0655 44.3058 52.2655 44.1956C52.5655 44.0854 52.6655 43.9752 52.8655 43.7548ZM50.7655 45.7385C50.8655 45.6282 50.9655 45.4078 50.7655 45.1874C50.6655 45.0772 50.4655 44.967 50.2655 45.1874C50.0655 45.4078 49.8655 45.518 49.7655 45.7385C49.6655 45.8487 49.5655 46.0691 49.6655 46.2895C49.7655 46.3997 49.9655 46.3997 50.1655 46.2895C50.3655 46.0691 50.5655 45.8487 50.7655 45.7385ZM48.6655 47.7221C48.7655 47.6119 48.8655 47.3915 48.6655 47.1711C48.5655 47.0609 48.2655 47.0609 48.1655 47.1711C47.9655 47.3915 47.8655 47.5017 47.6655 47.7221C47.5655 47.8323 47.5655 48.0527 47.6655 48.1629C47.7655 48.2731 48.0655 48.2731 48.1655 48.1629C48.3655 48.1629 48.5655 47.9425 48.6655 47.7221ZM46.2655 50.4772C46.4655 50.2568 46.5655 50.1466 46.7655 49.9262C46.8655 49.816 46.8655 49.4854 46.7655 49.3752C46.6655 49.265 46.3655 49.265 46.2655 49.3752C46.0655 49.5956 45.9655 49.7058 45.7655 49.9262C45.6655 50.0364 45.6655 50.2568 45.7655 50.367C45.7655 50.367 45.7655 50.367 45.7655 50.4772C45.8655 50.5874 46.0655 50.5874 46.2655 50.4772ZM44.3655 52.6812L44.8655 52.1302C44.9655 52.02 44.9655 51.6894 44.8655 51.5792C44.7655 51.469 44.4655 51.469 44.3655 51.5792L43.8655 52.1302C43.7655 52.2404 43.7655 52.4608 43.8655 52.571C43.8655 52.571 43.8655 52.571 43.9655 52.6812C43.9655 52.9017 44.1655 52.9017 44.3655 52.6812ZM42.4655 54.9955L42.8655 54.4445C42.9655 54.3343 42.9655 54.0037 42.8655 53.8935C42.7655 53.7833 42.4655 53.7833 42.3655 53.8935L41.8655 54.4445C41.7655 54.5547 41.7655 54.7751 41.8655 54.8853C41.8655 54.8853 41.8655 54.8853 41.9655 54.9955C42.1655 55.2159 42.3655 55.2159 42.4655 54.9955ZM40.7655 57.42L41.1655 56.869C41.2655 56.7588 41.2655 56.4282 41.0655 56.318C40.8655 56.2078 40.6655 56.2078 40.5655 56.318L40.1655 56.9792C40.0655 57.0894 40.0655 57.3098 40.1655 57.42C40.1655 57.42 40.1655 57.5302 40.2655 57.5302C40.4655 57.5302 40.6655 57.5302 40.7655 57.42ZM39.0655 59.8444L39.4655 59.1832C39.5655 58.9628 39.5655 58.7424 39.3655 58.6322C39.1655 58.522 38.9655 58.522 38.8655 58.7424L38.4655 59.4036C38.3655 59.5138 38.3655 59.7342 38.4655 59.8444C38.4655 59.8444 38.4655 59.9546 38.5655 59.9546C38.7655 60.0648 38.9655 59.9546 39.0655 59.8444ZM37.4655 62.3791L37.8655 61.7179C37.9655 61.4975 37.9655 61.277 37.7655 61.1668C37.5655 61.0566 37.3655 61.0567 37.2655 61.2771L36.8655 61.9383C36.7655 62.0485 36.7655 62.2689 36.8655 62.3791L36.9655 62.4893C37.1655 62.5995 37.3655 62.4893 37.4655 62.3791Z" fill="#BFDF83"/>
</g>
</g>
<g id="Group_42">
<g id="Group_43">
<path id="Vector_29" d="M81.0652 36.4815L81.1652 36.0407C81.0652 35.8203 80.9652 35.4897 80.8652 35.2693C80.7652 35.2693 80.6652 35.3795 80.5652 35.4897L80.3652 36.2611C80.3652 36.3713 80.3652 36.4815 80.3652 36.5917C80.3652 36.7019 80.4652 36.7019 80.5652 36.7019C80.7652 36.8121 80.9652 36.7019 81.0652 36.4815ZM80.1652 39.457C80.2652 39.2366 80.3652 39.0162 80.3652 38.6856C80.4652 38.4652 80.3652 38.2448 80.1652 38.2448C79.9652 38.1346 79.7652 38.2448 79.7652 38.4652C79.6652 38.6856 79.5652 38.906 79.5652 39.2366C79.5652 39.3468 79.5652 39.457 79.5652 39.5672C79.5652 39.6774 79.6652 39.6774 79.7652 39.6774C79.8652 39.7876 80.0652 39.6774 80.1652 39.457ZM79.0652 42.3223C79.1652 42.1019 79.2652 41.8815 79.3652 41.6611C79.4652 41.4407 79.3652 41.2203 79.1652 41.11C78.9652 40.9998 78.7652 41.11 78.6652 41.3304C78.5652 41.5508 78.4652 41.7713 78.3652 41.9917C78.2652 42.1019 78.3652 42.2121 78.3652 42.4325L78.4652 42.5427C78.7652 42.5427 78.9652 42.5427 79.0652 42.3223ZM77.6652 45.0774C77.7652 44.8569 77.8652 44.6365 78.0652 44.4161C78.1652 44.1957 78.0652 43.9753 77.9652 43.8651C77.7652 43.7549 77.5652 43.8651 77.4652 43.9753C77.3652 44.1957 77.2652 44.4161 77.1652 44.6365C77.0652 44.7467 77.0652 44.9671 77.1652 45.0774L77.2652 45.1875C77.3652 45.2977 77.5652 45.1876 77.6652 45.0774ZM76.0652 47.612C76.2652 47.3916 76.3652 47.1712 76.4652 46.9508C76.5652 46.7304 76.5652 46.51 76.3652 46.3998C76.1652 46.2896 75.9652 46.2896 75.8652 46.51C75.7652 46.7304 75.5652 46.9508 75.4652 47.061C75.3652 47.1712 75.3652 47.3916 75.4652 47.5018C75.4652 47.5018 75.4652 47.5018 75.5652 47.612C75.7652 47.8324 75.9652 47.7222 76.0652 47.612ZM74.6652 49.3752C74.7652 49.265 74.7652 48.9344 74.6652 48.8242C74.5652 48.714 74.2652 48.714 74.1652 48.8242C73.9652 49.0446 73.8652 49.1548 73.6652 49.3752C73.5652 49.4855 73.5652 49.7059 73.6652 49.8161C73.7652 49.9263 74.0652 49.9263 74.1652 49.8161C74.3652 49.7059 74.4652 49.4855 74.6652 49.3752ZM72.5652 51.4691C72.6652 51.3589 72.7652 51.1385 72.5652 50.9181C72.4652 50.8079 72.2652 50.6977 72.0652 50.9181C71.8652 51.0283 71.6652 51.2487 71.5652 51.3589C71.4652 51.4691 71.3652 51.6895 71.4652 51.9099C71.5652 52.0201 71.7652 52.1303 71.9652 51.9099C72.2652 51.7997 72.3652 51.5793 72.5652 51.4691ZM70.4652 53.3426C70.5652 53.2323 70.6652 53.0119 70.5652 52.7915C70.4652 52.6813 70.2652 52.5711 70.0652 52.6813L69.5652 53.1221C69.4652 53.2323 69.3652 53.4527 69.4652 53.6731C69.5652 53.7833 69.7652 53.8936 69.9652 53.7834L70.4652 53.3426ZM68.2652 55.3262C68.3652 55.216 68.4652 54.9956 68.3652 54.7752C68.2652 54.5548 68.0652 54.5548 67.8652 54.665L67.3652 55.1058C67.2652 55.216 67.1652 55.4364 67.2652 55.6568C67.3652 55.8772 67.5652 55.8772 67.7652 55.767L68.2652 55.3262ZM66.0652 57.1996C66.2652 57.0894 66.2652 56.869 66.1652 56.6486C66.0652 56.4282 65.8652 56.4282 65.6652 56.5384L65.1652 56.9792C65.0652 57.0894 64.9652 57.3098 65.0652 57.5302C65.1652 57.7506 65.3652 57.7506 65.5652 57.6404L66.0652 57.1996ZM63.8652 59.0731C64.0652 58.9629 64.0652 58.7425 63.9652 58.5221C63.8652 58.3017 63.6652 58.3016 63.4652 58.4118C63.2652 58.5221 63.0652 58.7425 62.8652 58.8527C62.6652 58.9629 62.6652 59.1833 62.7652 59.4037C62.8652 59.6241 63.0652 59.6241 63.2652 59.5139C63.4652 59.4037 63.6652 59.2935 63.8652 59.0731ZM61.6652 60.3955C61.5652 60.2853 61.3652 60.1751 61.1652 60.2853C60.9652 60.3955 60.7652 60.5057 60.5652 60.7261C60.3652 60.8363 60.3652 61.0568 60.4652 61.2772C60.5652 61.4976 60.7652 61.4975 60.9652 61.3873C61.1652 61.2771 61.3652 61.1669 61.5652 60.9465C61.7652 60.8363 61.7652 60.6159 61.6652 60.3955ZM59.2652 61.9383C59.1652 61.7179 58.9652 61.718 58.7652 61.8282C58.5652 61.9384 58.3652 62.0486 58.1652 62.1588C57.9652 62.269 57.8652 62.4894 57.9652 62.7098C57.9652 62.7098 57.9652 62.7098 57.9652 62.82C58.0652 62.9302 58.2652 63.0404 58.3652 62.9302C58.5652 62.82 58.7652 62.7097 58.9652 62.5995C59.2652 62.3791 59.3652 62.1588 59.2652 61.9383ZM56.7652 63.1505C56.6652 62.9301 56.4652 62.82 56.3652 62.9302C56.1652 63.0404 55.9652 63.1505 55.6652 63.1505C55.4652 63.2608 55.3652 63.4812 55.4652 63.5914V63.7016C55.5652 63.8118 55.6652 63.922 55.8652 63.8118C56.0652 63.7016 56.2652 63.5914 56.5652 63.5914C56.6652 63.5914 56.7652 63.371 56.7652 63.1505ZM54.0652 64.1424C53.9652 63.922 53.7652 63.8118 53.6652 63.922L52.9652 64.1424C52.7652 64.2526 52.6652 64.3628 52.7652 64.5832C52.7652 64.5832 52.7652 64.6934 52.8652 64.6934C52.9652 64.8036 53.0652 64.9138 53.2652 64.8036L53.9652 64.5832C54.0652 64.5832 54.1652 64.3628 54.0652 64.1424ZM51.3652 65.024C51.2652 64.8036 51.1652 64.6934 50.9652 64.8036L50.2652 65.024C50.0652 65.1342 49.9652 65.2444 50.0652 65.4648V65.575C50.1652 65.6852 50.2652 65.7955 50.4652 65.6853L51.1652 65.4648C51.3652 65.4648 51.4652 65.2444 51.3652 65.024ZM48.6652 65.7954C48.6652 65.575 48.4652 65.4648 48.2652 65.4648L47.5652 65.6853C47.3652 65.6853 47.2652 65.9056 47.2652 66.126C47.2652 66.126 47.2652 66.2363 47.3652 66.2363C47.4652 66.3465 47.5652 66.4567 47.7652 66.3465L48.4652 66.126C48.6652 66.2362 48.7652 66.0158 48.6652 65.7954ZM45.9652 66.4566C45.9652 66.2362 45.7652 66.126 45.5652 66.126L44.8652 66.2363C44.6652 66.2363 44.5652 66.4566 44.5652 66.677C44.5652 66.677 44.5652 66.7873 44.6652 66.7873C44.7652 66.8975 44.8652 67.0077 45.0652 66.8975L45.7652 66.7873C45.8652 66.8975 46.0652 66.677 45.9652 66.4566ZM43.2652 67.1179C43.2652 66.8975 43.0652 66.7873 42.9652 66.7873C42.9652 66.7873 42.9652 66.7873 42.8652 66.7873L42.1652 66.8975C42.0652 66.8975 42.0652 66.8974 41.9652 67.0076C41.8652 67.1178 41.8652 67.2281 41.8652 67.3383C41.8652 67.3383 41.8652 67.4485 41.9652 67.4485C42.0652 67.5587 42.1652 67.6689 42.3652 67.5587L43.0652 67.4485C43.1652 67.5587 43.2652 67.3383 43.2652 67.1179Z" fill="#BFDF83"/>
</g>
</g>
<g id="Group_44">
<g id="Group_45">
<path id="Vector_30" d="M78.5656 34.1671C78.7656 33.9467 78.8656 33.7263 79.0656 33.6161C79.1656 33.3957 79.1656 33.1753 79.0656 33.0651C78.9656 32.9549 78.6656 32.9549 78.5656 33.0651C78.4656 33.2855 78.2656 33.5059 78.1656 33.6161C78.0656 33.7263 78.0656 33.9467 78.1656 34.0569C78.1656 34.0569 78.1656 34.0569 78.2656 34.1671C78.2656 34.3875 78.4656 34.3875 78.5656 34.1671ZM76.6656 36.4814C76.8656 36.261 76.9656 36.1508 77.1656 35.9304C77.2656 35.8201 77.2656 35.4895 77.1656 35.3793C77.0656 35.2691 76.7656 35.2691 76.6656 35.3793C76.4656 35.5997 76.3656 35.7099 76.1656 35.9304C76.0656 36.0406 76.0656 36.261 76.1656 36.3712C76.1656 36.3712 76.1656 36.3712 76.1656 36.4814C76.3656 36.7018 76.5656 36.7018 76.6656 36.4814ZM75.2656 38.1344C75.3656 38.0242 75.3656 37.8038 75.2656 37.5834C75.1656 37.4732 74.8656 37.4732 74.7656 37.5834L74.2656 38.1344C74.1656 38.2446 74.1656 38.465 74.2656 38.5752V38.6854C74.3656 38.7956 74.6656 38.7956 74.7656 38.6854L75.2656 38.1344ZM73.2656 40.3385C73.3656 40.2283 73.3656 40.0079 73.2656 39.7874C73.1656 39.6772 72.8656 39.6772 72.7656 39.7874L72.2656 40.3385C72.1656 40.4487 72.1656 40.6691 72.2656 40.8895C72.3656 40.9997 72.6656 40.9997 72.7656 40.8895L73.2656 40.3385ZM71.1656 42.4323C71.2656 42.3221 71.3656 42.1017 71.1656 41.8813C71.0656 41.7711 70.8656 41.6609 70.6656 41.8813L70.1656 42.4323C70.0656 42.5425 69.9656 42.7629 70.0656 42.9833C70.1656 43.0935 70.3656 43.2037 70.5656 42.9833L71.1656 42.4323ZM69.0656 44.416C69.1656 44.3058 69.2656 44.0854 69.0656 43.865C68.9656 43.7548 68.7656 43.6446 68.5656 43.865L68.0656 44.3058C67.9656 44.416 67.8656 44.6364 67.9656 44.8568C68.0656 45.0772 68.2656 45.0772 68.4656 44.8568L69.0656 44.416ZM66.8656 46.3996C66.9656 46.2894 67.0656 46.069 66.9656 45.8486C66.8656 45.7384 66.6656 45.6282 66.4656 45.7384L65.9656 46.1792C65.8656 46.2894 65.7656 46.5098 65.8656 46.7302C65.9656 46.9506 66.1656 46.9506 66.3656 46.8404L66.8656 46.3996ZM64.7656 48.2731C64.9656 48.1629 64.9656 47.9425 64.8656 47.7221C64.7656 47.5017 64.5656 47.5016 64.3656 47.6118L63.7656 48.0527C63.6656 48.1629 63.5656 48.3833 63.6656 48.6037C63.7656 48.7139 63.9656 48.8241 64.1656 48.7139L64.7656 48.2731ZM62.5656 50.1465C62.7656 50.0363 62.7656 49.7057 62.6656 49.5955C62.5656 49.3751 62.3656 49.3751 62.1656 49.4853L61.5656 49.9261C61.4656 50.0363 61.3656 50.2567 61.4656 50.4771C61.5656 50.6975 61.7656 50.6975 61.9656 50.5873L62.5656 50.1465ZM60.2656 52.02C60.4656 51.9098 60.4656 51.6894 60.3656 51.4689C60.2656 51.2485 60.0656 51.2485 59.8656 51.3587L59.3656 51.7995C59.1656 51.9097 59.1656 52.1301 59.2656 52.3506C59.3656 52.571 59.5656 52.571 59.7656 52.4608L60.2656 52.02ZM58.0656 53.8934C58.2656 53.7832 58.2656 53.4526 58.1656 53.3424C58.0656 53.122 57.8656 53.122 57.6656 53.2322L57.0656 53.673C56.9656 53.7832 56.8656 54.0036 56.9656 54.224C57.0656 54.4444 57.2656 54.4444 57.4656 54.3342L58.0656 53.8934ZM55.8656 55.7669C56.0656 55.6567 56.0656 55.4363 55.9656 55.2159C55.8656 54.9955 55.6656 54.9954 55.4656 55.1056L54.8656 55.5465C54.6656 55.6567 54.6656 55.8771 54.7656 56.0975C54.8656 56.3179 55.0656 56.3179 55.2656 56.2076L55.8656 55.7669ZM53.6656 56.9791C53.5656 56.7587 53.3656 56.7587 53.1656 56.8689C52.9656 56.9791 52.7656 57.1995 52.5656 57.3097C52.3656 57.4199 52.3656 57.6403 52.4656 57.8607C52.5656 57.9709 52.7656 58.0811 52.9656 57.9709C53.1656 57.8607 53.3656 57.6403 53.5656 57.5301C53.6656 57.4199 53.7656 57.1995 53.6656 56.9791ZM51.2656 58.6321C51.1656 58.4117 50.9656 58.4117 50.7656 58.5219C50.5656 58.6321 50.3656 58.7423 50.1656 58.9627C49.9656 59.0729 49.9656 59.2933 50.0656 59.5137C50.1656 59.6239 50.3656 59.7342 50.5656 59.624C50.7656 59.5138 50.9656 59.4035 51.1656 59.1831C51.3656 59.0729 51.3656 58.8525 51.2656 58.6321ZM48.8656 60.175C48.7656 59.9546 48.5656 59.9545 48.3656 60.0647L47.7656 60.3953C47.5656 60.5055 47.5656 60.7259 47.6656 60.9464C47.7656 61.0566 47.9656 61.1668 48.1656 61.0566L48.7656 60.726C48.8656 60.6158 48.9656 60.3954 48.8656 60.175ZM46.3656 61.6076C46.2656 61.3872 46.0656 61.3872 45.8656 61.3872L45.2656 61.7178C45.0656 61.828 45.0656 62.0484 45.0656 62.2688C45.1656 62.379 45.3656 62.4892 45.4656 62.379L46.0656 62.0484C46.3656 62.0484 46.4656 61.828 46.3656 61.6076ZM43.8656 62.9301C43.7656 62.7097 43.5656 62.5994 43.3656 62.7096L42.7656 63.0402C42.5656 63.1504 42.4656 63.3708 42.5656 63.5912V63.7014C42.6656 63.8116 42.8656 63.9219 42.9656 63.8117L43.5656 63.4811C43.8656 63.3709 43.9656 63.1505 43.8656 62.9301ZM41.3656 64.1423C41.2656 63.9219 41.0656 63.8116 40.8656 63.9218L40.2656 64.2524C40.0656 64.3626 39.9656 64.583 40.0656 64.8034C40.0656 64.8034 40.0656 64.8035 40.0656 64.9137C40.1656 65.0239 40.3656 65.1341 40.4656 65.0239L41.0656 64.6933C41.3656 64.5831 41.4656 64.3627 41.3656 64.1423Z" fill="#BFDF83"/>
</g>
</g>
</g>
<g id="Group_46">
<g id="Group_47">
<path id="Vector_31" d="M34.2658 5.29395C34.0658 4.52253 33.9658 3.64089 33.9658 2.75927C33.9658 2.31846 34.0658 1.76746 34.2658 1.32664C34.3658 1.10624 34.6658 0.88584 34.9658 0.88584C35.5658 0.775637 35.9658 1.32664 36.1658 1.76745C36.6658 2.97968 36.6658 4.3021 36.6658 5.51433C36.6658 5.95515 36.5658 8.48983 35.2658 8.04902C34.8658 7.93881 34.8658 7.27761 34.7658 7.0572C34.6658 6.50619 34.4658 5.84496 34.2658 5.29395Z" fill="#EF613C"/>
</g>
<g id="Group_48">
<path id="Vector_32" d="M31.9655 6.72648C31.0655 6.28567 30.1655 5.73466 29.4655 5.18365C29.0655 4.85304 28.5655 4.52243 28.3655 4.08162C28.2655 3.86121 28.1655 3.53059 28.3655 3.31018C28.6655 2.97957 29.4655 2.9796 29.9655 3.20001C31.4655 3.75102 32.6655 4.63262 33.8654 5.51424C34.2654 5.84485 36.6654 7.60812 35.2654 8.04893C34.8654 8.15913 34.2654 7.71833 33.9654 7.60812C33.3654 7.27751 32.6655 7.05709 31.9655 6.72648Z" fill="#EF613C"/>
</g>
<g id="Group_49">
<path id="Vector_33" d="M31.7657 8.93052C30.6657 9.15092 29.6657 9.26114 28.5657 9.26114C27.9657 9.26114 27.2657 9.26113 26.7657 9.04072C26.4657 8.93052 26.1657 8.82032 26.0657 8.48972C25.9657 8.04891 26.5657 7.71832 27.0657 7.49791C28.5657 7.05711 30.2657 6.94691 31.9657 6.94691C32.5657 6.94691 35.8657 6.8367 35.2657 7.93871C35.0657 8.26932 34.3657 8.26931 33.9657 8.37951C33.2657 8.59991 32.4657 8.82031 31.7657 8.93052Z" fill="#EF613C"/>
</g>
<g id="Group_50">
<path id="Vector_34" d="M33.6654 10.6939C33.1654 11.4653 32.4654 12.1266 31.7654 12.7878C31.3654 13.1184 30.8654 13.449 30.3654 13.6694C30.0654 13.7796 29.6654 13.7796 29.4654 13.6694C28.9654 13.449 29.0654 12.898 29.2654 12.4572C29.8654 11.245 30.9654 10.2531 32.0654 9.37148C32.4654 9.04087 34.6654 7.16745 35.2654 8.15927C35.4654 8.48988 34.9654 8.93069 34.7654 9.15109C34.3654 9.59191 34.0654 10.1429 33.6654 10.6939Z" fill="#EF613C"/>
</g>
<g id="Group_51">
<path id="Vector_35" d="M36.6657 10.6939C36.9657 11.4653 37.1657 12.347 37.2657 13.1184C37.3657 13.5592 37.3657 14.1102 37.1657 14.551C37.0657 14.7714 36.8657 14.9918 36.5657 15.102C35.9658 15.2122 35.4658 14.7714 35.2658 14.3306C34.5658 13.1183 34.3658 11.9061 34.2658 10.5837C34.2658 10.1429 33.9658 7.60821 35.3658 7.93882C35.7658 8.04902 35.8657 8.60003 35.9657 8.93064C36.1657 9.59186 36.3657 10.1429 36.6657 10.6939Z" fill="#EF613C"/>
</g>
<g id="Group_52">
<path id="Vector_36" d="M38.7659 9.15106C39.7659 9.48167 40.6659 9.92246 41.5659 10.4735C42.0659 10.8041 42.5659 11.1347 42.7659 11.5755C42.8659 11.7959 42.9659 12.0163 42.8659 12.2367C42.5659 12.6775 41.8659 12.5673 41.2659 12.4571C39.6659 12.0163 38.3659 11.2449 37.0659 10.4735C36.5659 10.1429 33.9659 8.60005 35.3659 8.04904C35.7659 7.93883 36.3659 8.26943 36.6659 8.37963C37.2659 8.60003 38.0659 8.82045 38.7659 9.15106Z" fill="#EF613C"/>
</g>
<g id="Group_53">
<path id="Vector_37" d="M38.6658 6.83666C39.6658 6.50604 40.7658 6.28563 41.7658 6.17543C42.3658 6.06522 43.0658 6.06522 43.5658 6.17543C43.8658 6.28563 44.1658 6.39583 44.2658 6.61624C44.4658 7.05705 43.8658 7.49789 43.3658 7.6081C41.8658 8.15912 40.2658 8.37952 38.5658 8.59993C37.9658 8.71013 34.6657 9.04074 35.0657 7.9387C35.1657 7.60808 35.9657 7.49788 36.2657 7.38768C37.2657 7.27747 37.9658 7.05706 38.6658 6.83666Z" fill="#EF613C"/>
</g>
<g id="Group_54">
<path id="Vector_38" d="M36.4657 5.29385C36.8657 4.52243 37.3657 3.75102 38.0657 3.08981C38.4657 2.649 38.8657 2.3184 39.3657 2.09799C39.6657 1.98779 39.9657 1.87758 40.2657 1.98778C40.7657 2.20819 40.7657 2.75921 40.6657 3.20001C40.2657 4.41224 39.2657 5.51426 38.2657 6.50608C37.9657 6.83669 35.9657 8.93051 35.2657 7.93869C35.0657 7.60809 35.4657 7.16729 35.5657 6.94688C35.8657 6.50607 36.1657 5.84486 36.4657 5.29385Z" fill="#EF613C"/>
</g>
<g id="Group_55">
<path id="Vector_39" d="M32.9654 5.84484C32.3654 5.18363 31.8654 4.41221 31.4654 3.64079C31.2654 3.19998 31.0654 2.75915 31.0654 2.20814C31.0654 1.98773 31.1654 1.65715 31.4654 1.54695C31.9654 1.32655 32.5654 1.65715 32.9654 1.98775C34.0654 2.97958 34.7654 4.1918 35.3654 5.29383C35.5654 5.73464 36.8654 8.04889 35.3654 8.04889C34.9654 8.04889 34.5654 7.49786 34.3654 7.27746C33.8654 6.83665 33.3654 6.28565 32.9654 5.84484Z" fill="#DFB84E"/>
</g>
<g id="Group_56">
<path id="Vector_40" d="M31.5658 7.82847C30.4658 7.71827 29.4658 7.49785 28.4658 7.16724C27.8658 6.94684 27.2658 6.83665 26.8658 6.39584C26.6658 6.17543 26.4658 5.95502 26.4658 5.73461C26.5658 5.2938 27.2658 5.18359 27.8658 5.18359C29.5658 5.18359 31.1658 5.6244 32.6658 6.17542C33.1658 6.39583 36.2658 7.27747 35.2658 8.04889C34.9658 8.2693 34.2658 8.04889 33.8658 8.04889C33.0658 7.93869 32.3658 7.93867 31.5658 7.82847Z" fill="#DFB84E"/>
</g>
<g id="Group_57">
<path id="Vector_41" d="M32.4655 10.0326C31.5655 10.5836 30.6655 11.0244 29.6655 11.355C29.0655 11.5754 28.4655 11.6856 27.8655 11.6856C27.5655 11.6856 27.1655 11.5754 26.9655 11.4652C26.5655 11.1346 26.9655 10.5836 27.3655 10.253C28.5655 9.37137 30.0655 8.82034 31.5655 8.26933C32.0655 8.04893 35.1655 6.94693 35.1655 8.15915C35.1655 8.48976 34.4655 8.82035 34.1655 8.93055C33.6655 9.26116 33.0655 9.59176 32.4655 10.0326Z" fill="#DFB84E"/>
</g>
<g id="Group_58">
<path id="Vector_42" d="M35.1658 10.9143C35.0658 11.7959 34.8658 12.5673 34.4658 13.3387C34.2658 13.7795 34.0658 14.2203 33.5658 14.5509C33.3658 14.7713 33.0658 14.8815 32.7658 14.8815C32.1658 14.8815 31.9658 14.2203 31.9658 13.7795C31.9658 12.4571 32.4658 11.2448 32.9658 10.0326C33.1658 9.5918 34.1658 7.16735 35.2658 7.93877C35.5658 8.15917 35.3658 8.71019 35.3658 9.04079C35.2658 9.70201 35.2658 10.3632 35.1658 10.9143Z" fill="#DFB84E"/>
</g>
<g id="Group_59">
<path id="Vector_43" d="M37.8656 10.1429C38.5656 10.8041 39.1656 11.4654 39.7656 12.2368C40.0656 12.6776 40.3656 13.1184 40.3656 13.5592C40.3656 13.7796 40.3656 14.1102 40.0656 14.2205C39.5656 14.5511 38.9656 14.2204 38.4656 13.8898C37.2656 13.0082 36.3656 11.9062 35.6656 10.8041C35.3656 10.3633 33.7657 8.15928 35.2656 8.04907C35.6656 8.04907 36.0656 8.48989 36.3656 8.7103C36.8656 9.26131 37.3656 9.59191 37.8656 10.1429Z" fill="#DFB84E"/>
</g>
<g id="Group_60">
<path id="Vector_44" d="M38.9658 7.93878C40.0658 7.93878 41.1658 8.04897 42.1658 8.26938C42.7658 8.37958 43.3658 8.59999 43.8658 8.82039C44.0658 8.9306 44.3658 9.15101 44.2658 9.48162C44.2658 9.92243 43.4658 10.1428 42.9658 10.1428C41.2658 10.253 39.6658 9.92244 38.0659 9.59183C37.4659 9.48162 34.2658 8.82041 35.2658 7.93878C35.5658 7.71838 36.2658 7.82857 36.6658 7.82857C37.4658 7.93878 38.2658 7.93878 38.9658 7.93878Z" fill="#DFB84E"/>
</g>
<g id="Group_61">
<path id="Vector_45" d="M37.7656 5.9552C38.5656 5.40419 39.3656 4.85315 40.3656 4.41234C40.8656 4.19194 41.4657 3.97153 42.0657 3.86133C42.3657 3.86133 42.7656 3.86134 42.9657 4.08175C43.3657 4.41235 43.0657 4.96337 42.6657 5.29398C41.6657 6.2858 40.1656 6.94702 38.7656 7.60823C38.2656 7.82864 35.4656 9.15106 35.2656 8.04904C35.2656 7.71843 35.8656 7.3878 36.0656 7.1674C36.6656 6.83679 37.1656 6.39601 37.7656 5.9552Z" fill="#DFB84E"/>
</g>
<g id="Group_62">
<path id="Vector_46" d="M35.2658 5.07305C35.3658 4.19142 35.6658 3.42001 36.0658 2.64859C36.2658 2.20777 36.5658 1.76695 36.9658 1.43634C37.1658 1.21594 37.4658 1.10571 37.8658 1.10571C38.4658 1.21592 38.6658 1.76693 38.6658 2.20775C38.6658 3.53019 38.0658 4.74246 37.5658 5.95469C37.3658 6.39551 36.1658 8.81997 35.1658 7.93834C34.8658 7.71794 35.0658 7.16692 35.1658 6.83631C35.0658 6.28529 35.1658 5.62406 35.2658 5.07305Z" fill="#DFB84E"/>
</g>
<g id="Group_63">
<path id="Vector_47" d="M37.3656 7.71828C37.3656 8.71009 36.3656 9.48151 35.0656 9.48151C33.7656 9.48151 32.7656 8.71009 32.7656 7.71828C32.7656 6.72646 33.7656 5.95508 35.0656 5.95508C36.3656 5.95508 37.3656 6.72646 37.3656 7.71828Z" fill="#CC6056"/>
</g>
</g>
<g id="Group_64">
<g id="Group_65">
<path id="Vector_48" d="M81.7656 31.9629C82.1656 31.4119 82.6656 30.9711 83.2656 30.7507C83.5656 30.5303 83.9656 30.4201 84.3656 30.5303C84.5656 30.5303 84.8656 30.7507 84.9656 30.9711C85.2656 31.5221 85.1656 32.0731 84.9656 32.4037C84.4656 33.3956 83.5656 33.9466 82.7656 34.3874C82.4656 34.4976 80.7656 35.4894 80.4656 34.0568C80.3656 33.616 80.7656 33.3956 80.8656 33.1751C81.1656 32.7343 81.4656 32.2935 81.7656 31.9629Z" fill="#EF613C"/>
</g>
<g id="Group_66">
<path id="Vector_49" d="M79.6658 30.3099C79.4658 29.2079 79.4658 28.216 79.4658 27.2242C79.4658 26.6732 79.4658 26.1222 79.6658 25.6814C79.7658 25.461 79.9658 25.3508 80.1658 25.461C80.5658 25.5712 80.8658 26.3426 80.9658 27.0038C81.3658 28.6568 81.3658 30.1997 81.3658 31.6323C81.3658 32.1834 81.3658 35.1589 80.4658 33.9466C80.1658 33.616 80.1658 32.9548 80.0658 32.514C79.9658 31.8527 79.8658 31.0813 79.6658 30.3099Z" fill="#EF613C"/>
</g>
<g id="Group_67">
<path id="Vector_50" d="M78.1657 30.9711C77.5657 30.0895 76.8657 29.0977 76.3657 27.9957C76.0657 27.4446 75.7657 26.7834 75.5657 26.1222C75.4657 25.7916 75.4657 25.461 75.5657 25.2406C75.7657 24.91 76.2657 25.3508 76.6657 25.9018C77.7657 27.2242 78.5657 28.7671 79.4657 30.4201C79.7657 30.9711 81.4657 34.167 80.4657 34.0568C80.1657 34.0568 79.7657 33.2854 79.5657 32.9548C79.0657 32.2935 78.5657 31.6323 78.1657 30.9711Z" fill="#EF613C"/>
</g>
<g id="Group_68">
<path id="Vector_51" d="M77.9658 33.5057C77.2658 33.2853 76.4658 32.9547 75.7657 32.5138C75.3657 32.2934 74.8657 31.9628 74.4657 31.522C74.2657 31.3016 74.0657 30.971 73.9657 30.6404C73.8657 30.0894 74.2657 29.869 74.6657 29.9792C75.7657 30.0894 76.8658 30.7506 78.0658 31.4118C78.4658 31.6322 80.7658 33.0649 80.3658 34.0567C80.2658 34.3873 79.7658 34.0567 79.4658 33.9465C79.0658 33.8363 78.4658 33.7261 77.9658 33.5057Z" fill="#EF613C"/>
</g>
<g id="Group_69">
<path id="Vector_52" d="M79.3657 36.3709C79.0657 37.0321 78.5657 37.5832 78.0657 37.9138C77.7657 38.1342 77.4657 38.3546 77.0657 38.3546C76.8657 38.3546 76.5657 38.2444 76.4657 38.024C76.0657 37.5831 76.1657 36.9219 76.2657 36.4811C76.6657 35.3791 77.3657 34.6077 78.1657 34.0567C78.4657 33.8363 79.9657 32.5139 80.3657 34.0567C80.4657 34.4975 80.1657 34.8281 80.0657 35.0485C79.8657 35.4893 79.6657 35.9301 79.3657 36.3709Z" fill="#EF613C"/>
</g>
<g id="Group_70">
<path id="Vector_53" d="M81.4658 37.8037C81.6658 38.9058 81.8658 40.0078 81.9658 40.9996C81.9658 41.5506 82.0658 42.2118 81.8658 42.6526C81.7658 42.873 81.6658 43.0934 81.4658 42.9832C81.0658 42.873 80.7658 42.1016 80.5658 41.5506C80.0658 39.8976 79.8658 38.2445 79.7658 36.7017C79.7658 36.1507 79.4658 32.9548 80.4658 34.0569C80.7658 34.3875 80.8658 35.0487 80.9658 35.4895C81.0658 36.1507 81.2658 37.0323 81.4658 37.8037Z" fill="#EF613C"/>
</g>
<g id="Group_71">
<path id="Vector_54" d="M82.8659 36.8118C83.5659 37.6934 84.1659 38.5751 84.7659 39.5669C85.0659 40.1179 85.4659 40.7791 85.6659 41.3301C85.7659 41.6607 85.866 41.9913 85.766 42.2117C85.566 42.5423 85.0659 42.2117 84.6659 41.7709C83.5659 40.5587 82.5659 39.126 81.6659 37.5832C81.3659 37.0322 79.4659 34.0567 80.3659 33.9465C80.6659 33.9465 81.0659 34.6077 81.2659 34.9384C81.8659 35.5996 82.3659 36.1506 82.8659 36.8118Z" fill="#EF613C"/>
</g>
<g id="Group_72">
<path id="Vector_55" d="M82.7659 34.0568C83.4659 34.1671 84.1659 34.3874 84.9659 34.718C85.3659 34.9384 85.8659 35.1589 86.2659 35.5997C86.4659 35.8201 86.6659 36.1507 86.7659 36.4813C86.9659 37.0323 86.5659 37.3629 86.1659 37.3629C85.1659 37.4731 83.9659 36.9221 82.8659 36.4813C82.4659 36.2609 80.1659 35.2691 80.4659 34.167C80.5659 33.8364 81.0659 34.0568 81.2659 34.0568C81.7659 33.9466 82.2659 34.0568 82.7659 34.0568Z" fill="#EF613C"/>
</g>
<g id="Group_73">
<path id="Vector_56" d="M80.7658 30.861C80.8658 29.9794 81.1658 29.208 81.4658 28.5468C81.6658 28.106 81.8658 27.7754 82.1658 27.6652C82.3658 27.555 82.5658 27.555 82.7658 27.7754C83.1658 28.106 83.2658 28.8774 83.2658 29.4284C83.1658 30.861 82.7658 31.9631 82.2658 33.0651C82.0658 33.3957 81.1658 35.5997 80.4658 34.1671C80.2658 33.7263 80.4658 33.1753 80.4658 32.9549C80.5658 32.1835 80.6658 31.5222 80.7658 30.861Z" fill="#DFB84E"/>
</g>
<g id="Group_74">
<path id="Vector_57" d="M78.7657 30.3099C78.3657 29.2079 77.9657 28.1059 77.6657 27.0038C77.4657 26.3426 77.3657 25.7916 77.3657 25.2406C77.3657 24.91 77.4657 24.6896 77.6657 24.6896C77.9657 24.5794 78.4657 25.2406 78.7657 25.9018C79.5657 27.5548 80.0657 29.2079 80.4657 30.8609C80.6657 31.4119 81.5657 34.8282 80.4657 34.0568C80.1657 33.8364 79.9657 33.065 79.7657 32.7344C79.4657 31.8528 79.0657 31.0813 78.7657 30.3099Z" fill="#DFB84E"/>
</g>
<g id="Group_75">
<path id="Vector_58" d="M77.8656 32.0731C77.1656 31.4118 76.3656 30.7506 75.6656 29.9792C75.2656 29.5384 74.8656 28.9874 74.5656 28.4364C74.3656 28.1058 74.2656 27.7752 74.2656 27.4446C74.3656 27.0037 74.8656 27.1139 75.2656 27.4446C76.4656 28.216 77.5656 29.4282 78.5656 30.6404C78.9656 31.0812 81.1656 33.5057 80.3656 34.0567C80.1656 34.1669 79.6656 33.6159 79.3656 33.3955C78.9656 32.9547 78.3656 32.5139 77.8656 32.0731Z" fill="#DFB84E"/>
</g>
<g id="Group_76">
<path id="Vector_59" d="M78.5659 35.0487C77.9659 35.2691 77.3659 35.3793 76.6659 35.3793C76.2659 35.3793 75.8659 35.2691 75.466 35.0487C75.266 34.9385 74.966 34.7181 74.866 34.3875C74.566 33.8365 74.866 33.3957 75.166 33.1753C75.9659 32.6243 76.9659 32.6243 78.0659 32.6243C78.4659 32.6243 80.4659 32.7345 80.5659 34.0569C80.5659 34.4977 80.0659 34.4977 79.8659 34.6079C79.3659 34.7181 78.9659 34.8283 78.5659 35.0487Z" fill="#DFB84E"/>
</g>
<g id="Group_77">
<path id="Vector_60" d="M80.4657 37.363C80.3657 38.2446 80.2657 39.1263 80.0657 40.0079C79.9657 40.4487 79.7657 40.8895 79.4657 41.1099C79.2657 41.2201 79.0657 41.2201 78.8657 41.1099C78.4657 40.7793 78.2657 40.0079 78.2657 39.4569C78.1657 37.914 78.5657 36.7018 78.8657 35.4895C78.9657 35.0487 79.6657 32.6243 80.4657 34.0569C80.6657 34.4977 80.5657 35.0487 80.5657 35.3793C80.4657 35.9303 80.4657 36.7018 80.4657 37.363Z" fill="#DFB84E"/>
</g>
<g id="Group_78">
<path id="Vector_61" d="M82.2657 37.5833C82.7657 38.6853 83.2657 39.6772 83.5657 40.7792C83.7657 41.4404 83.9657 42.1016 83.9657 42.6527C83.9657 42.9833 83.9657 43.2037 83.7657 43.3139C83.4657 43.4241 82.9657 42.8731 82.6657 42.3221C81.7657 40.7792 81.1657 39.016 80.6657 37.3629C80.4657 36.8119 79.3657 33.3956 80.3657 33.9466C80.6657 34.167 80.9657 34.8282 81.1657 35.2691C81.5657 36.0405 81.9657 36.8119 82.2657 37.5833Z" fill="#DFB84E"/>
</g>
<g id="Group_79">
<path id="Vector_62" d="M83.0658 35.5997C83.8658 36.1507 84.5658 36.7017 85.2658 37.4731C85.6658 37.9139 86.0658 38.3547 86.4658 38.9057C86.6658 39.2363 86.7658 39.5669 86.7658 39.8975C86.7658 40.4485 86.2658 40.3384 85.8658 40.1179C84.7658 39.4567 83.5658 38.4649 82.4658 37.3629C82.0658 36.9221 79.8658 34.718 80.4658 34.167C80.6658 33.9466 81.1658 34.4977 81.4658 34.6079C81.9658 34.8283 82.4658 35.1589 83.0658 35.5997Z" fill="#DFB84E"/>
</g>
<g id="Group_80">
<path id="Vector_63" d="M82.3657 32.8447C82.9657 32.6243 83.6657 32.6243 84.2657 32.6243C84.6657 32.6243 85.0657 32.7345 85.4657 33.0651C85.6657 33.1753 85.9657 33.5059 86.0657 33.7263C86.2657 34.2773 86.0657 34.7181 85.7657 34.9386C84.9657 35.3794 83.8657 35.3794 82.8657 35.2692C82.4657 35.2692 80.3657 35.0488 80.3657 33.7263C80.3657 33.2855 80.8657 33.2855 81.0657 33.2855C81.5657 33.1753 81.9657 32.9549 82.3657 32.8447Z" fill="#DFB84E"/>
</g>
<g id="Group_81">
<path id="Vector_64" d="M81.666 35.9304C81.066 36.3712 80.066 35.5998 79.366 34.3876C78.766 33.1753 78.766 31.8529 79.366 31.5223C79.966 31.0815 80.966 31.8529 81.666 33.0651C82.366 34.1671 82.366 35.4896 81.666 35.9304Z" fill="#CC6056"/>
</g>
</g>
</g>
</svg>
