<svg width="48" height="161" viewBox="0 0 48 161" fill="none" xmlns="http://www.w3.org/2000/svg">
<g id="Captus 3">
<g id="Group">
<g id="Group_2">
<path id="Vector" d="M20.9 26.9163C27 16.5506 22 10.2301 16 0.749268C15.5 7.82827 13.9 15.9186 18.3 20.975C14.9 15.7922 11.4 8.08109 6.89999 4.54159C7.09999 11.8734 10.6 17.0563 14.1 22.4919C11.2 18.5732 5.4 11.9998 1 12.1262C2.5 18.194 7.6 21.4806 11 25.7786C9.1 22.9976 2.8 19.9637 0 20.4694C2.6 25.5258 8.49999 26.9163 12.1 30.3294C9.29999 28.4332 3.99999 26.4107 0.899994 26.9163C8.59999 35.133 15.8 34.6274 20.9 26.9163Z" fill="white"/>
</g>
<g id="Group_3">
<path id="Vector_2" d="M21.3 27.8C28.8999 19.0776 24.9 11.7458 20.5 0.874512C19 7.70068 16.1 15.1589 19.6 21.2266C17.1 15.2853 14.8 6.8158 11 2.39143C10.1 9.59683 12.7 15.5381 15.3 21.7323C13 17.1815 8.30002 9.34401 4.10004 8.33273C4.70004 14.6533 9.20002 19.204 11.9 24.134C10.5 20.9738 4.70004 16.423 1.90005 16.2966C3.70005 21.8587 9.20001 24.6397 12.3 28.8112C9.90001 26.283 5.00003 22.9964 1.80005 22.7435C7.90002 32.8564 15.1 34.1205 21.3 27.8Z" fill="#F48EA4"/>
</g>
<g id="Group_4">
<path id="Vector_3" d="M20.5 28.4332C25.5 22.6184 22.9 17.6883 19.9 10.6094C18.9 15.1601 17 20.0901 19.3 24.1353C17.6 20.2166 16.1 14.5281 13.6 11.6207C13 16.4243 14.7 20.343 16.5 24.5145C15 21.4807 11.9 16.2978 9 15.6658C9.4 19.8373 12.4 22.8712 14.2 26.1578C13.3 24.0089 9.4 20.975 7.5 20.975C8.7 24.6409 12.4 26.5371 14.4 29.3181C12.8 27.6748 9.5 25.3994 7.5 25.273C11.6 31.8463 16.4 32.7312 20.5 28.4332Z" fill="#DB657F"/>
</g>
</g>
<g id="Group_5">
<g id="Group_6">
<g id="Group_7">
<g id="Group_8">
<path id="Vector_4" d="M13.3 39.5574C13.3 39.5574 13.2 39.431 13.1 39.1782C13 38.9253 12.8 38.6725 12.6 38.4197C12.2 37.7876 11.6 36.9027 10.8 36.1443C10.1 35.3858 9.30001 34.7537 8.6 34.3745C8 33.9953 7.5 33.7424 7.5 33.7424C7.5 33.7424 8 33.8688 8.70001 34.1217C9.40001 34.3745 10.3 34.7537 11.2 35.3858C12.1 36.0179 12.9 36.6499 13.4 37.282C13.7 37.5348 13.9 37.914 14.1 38.0404C14.2001 38.1668 14.3 38.2933 14.3 38.2933L13.3 39.5574Z" fill="#45241D"/>
</g>
</g>
<g id="Group_9">
<g id="Group_10">
<path id="Vector_5" d="M12.9001 47.6476C12.8 47.6476 12.7 47.5212 12.6 47.5212C12.4 47.3948 12.1 47.142 11.8 46.7628C11.3 46.1307 10.9 45.2458 10.4 44.6137C9.90002 43.8553 9.3 43.2232 8.8 42.844C8.29999 42.3383 8 42.2119 8 42.2119C8 42.2119 9.60001 42.844 10.9 44.1081C11.6 44.7402 12.2 45.4986 12.6 45.8779C12.8 46.0043 13 46.1307 13.1 46.1307C13.2001 46.1307 13.3 46.1307 13.3 46.1307L12.9001 47.6476Z" fill="#45241D"/>
</g>
</g>
<g id="Group_11">
<g id="Group_12">
<path id="Vector_6" d="M11.7 56.8757C11.7 56.8757 11.5 56.6228 11.1 56.1172C10.8 55.738 10.3 55.2323 9.79996 54.7267C8.79995 53.7154 7.69995 52.8306 7.69995 52.8306C7.69995 52.8306 8.89996 53.3362 10.2 53.9683C10.8 54.3475 11.4 54.6003 11.8 54.9795C12.2 55.2324 12.5 55.4852 12.5 55.4852L11.7 56.8757Z" fill="#45241D"/>
</g>
</g>
<g id="Group_13">
<g id="Group_14">
<path id="Vector_7" d="M11.4001 67.4942C11.4001 67.4942 11.2001 67.2414 10.9001 66.8622C10.6001 66.4829 10.1001 65.9773 9.70006 65.5981C8.80006 64.7132 7.80005 63.8284 7.80005 63.8284C7.80005 63.8284 8.90005 64.2076 10.1001 64.7132C10.7001 64.966 11.2001 65.2188 11.6001 65.4717C12.0001 65.7245 12.3 65.8509 12.3 65.8509L11.4001 67.4942Z" fill="#45241D"/>
</g>
</g>
<g id="Group_15">
<g id="Group_16">
<path id="Vector_8" d="M12.1001 76.2164C12.1001 76.2164 11.9001 76.09 11.5001 75.9636C11.2001 75.8371 10.7001 75.4579 10.3001 75.2051C9.4001 74.6995 8.6001 74.0674 8.6001 74.0674C8.6001 74.0674 9.60012 74.3202 10.5001 74.4466C11.0001 74.4466 11.5001 74.573 11.8001 74.573C12.2001 74.573 12.4001 74.573 12.4001 74.573L12.1001 76.2164Z" fill="#45241D"/>
</g>
</g>
<g id="Group_17">
<g id="Group_18">
<path id="Vector_9" d="M12.5999 83.6746C12.5999 83.6746 12.2999 83.5482 11.8999 83.2954C11.4999 83.0426 10.8999 82.6633 10.3999 82.4105C9.2999 81.652 8.3999 80.8936 8.3999 80.8936C8.3999 80.8936 9.4999 81.3992 10.6999 81.652C11.2999 81.7784 11.7999 81.9048 12.2999 82.0313C12.6999 82.1577 12.9999 82.1577 12.9999 82.1577L12.5999 83.6746Z" fill="#45241D"/>
</g>
</g>
<g id="Group_19">
<g id="Group_20">
<path id="Vector_10" d="M14 93.7875C14 93.7875 13.7 93.6611 13.2 93.2819C12.7 92.9027 12.1 92.5234 11.6 92.0178C10.5 91.0065 9.5 89.7424 9.5 89.7424C9.5 89.7424 10.7 90.6273 11.9 91.2593C12.5 91.5122 13.1 91.765 13.6 91.8914C14.1 92.0178 14.4 92.1442 14.4 92.1442L14 93.7875Z" fill="#45241D"/>
</g>
</g>
<g id="Group_21">
<g id="Group_22">
<path id="Vector_11" d="M15.6 101.625C15.6 101.625 14.3 100.867 13.1 100.108C11.8 99.3497 10.7 98.3384 10.7 98.3384C10.7 98.3384 12 98.844 13.4 99.2233C14.8 99.6025 16.1 99.8553 16.1 99.8553L15.6 101.625Z" fill="#45241D"/>
</g>
</g>
<g id="Group_23">
<g id="Group_24">
<path id="Vector_12" d="M16.3999 107.819C16.3999 107.819 16.3999 107.819 16.2999 107.946C16.1999 108.072 15.9999 108.198 15.7999 108.198C15.5999 108.198 15.3999 108.198 15.2999 108.072C15.0999 107.946 15.0999 107.946 14.8999 107.819C14.4999 107.566 13.8999 107.187 13.2999 106.808C12.0999 106.05 10.8999 105.417 10.8999 105.417C10.8999 105.417 12.1999 105.67 13.4999 106.05C14.1999 106.176 14.7999 106.302 15.2999 106.429C15.3999 106.429 15.4999 106.429 15.5999 106.429C15.5999 106.429 15.6999 106.429 15.5999 106.429C15.4999 106.429 15.4999 106.429 15.3999 106.555C15.2999 106.682 15.3999 106.555 15.3999 106.555L16.3999 107.819Z" fill="#45241D"/>
</g>
</g>
<g id="Group_25">
<g id="Group_26">
<path id="Vector_13" d="M16.6001 118.185C16.6001 118.185 16.3001 118.058 15.7001 117.806C15.2001 117.553 14.5 117.174 13.8 116.794C12.5 116.036 11.3 114.898 11.3 114.898C11.3 114.898 12.6001 115.53 14.0001 115.909C14.7001 116.036 15.4001 116.162 15.9001 116.289C16.4001 116.289 16.8 116.415 16.8 116.415L16.6001 118.185Z" fill="#45241D"/>
</g>
</g>
<g id="Group_27">
<g id="Group_28">
<path id="Vector_14" d="M17.1999 124.758C17.1999 124.758 16.8999 124.632 16.3999 124.505C15.8999 124.379 15.2999 124 14.6999 123.747C13.4999 123.115 12.3999 122.104 12.3999 122.104C12.3999 122.104 13.5999 122.736 14.8999 122.988C15.4999 123.115 16.1999 123.115 16.5999 123.241C17.0999 123.241 17.3999 123.241 17.3999 123.241L17.1999 124.758Z" fill="#45241D"/>
</g>
</g>
<g id="Group_29">
<g id="Group_30">
<path id="Vector_15" d="M17.4 131.079C17.4 131.079 17.1 130.952 16.5 130.7C16 130.447 15.3 130.068 14.7 129.562C13.4 128.677 12.3 127.413 12.3 127.413C12.3 127.413 13.6 128.171 14.9 128.677C15.6 128.93 16.3 129.056 16.8 129.183C17.2999 129.309 17.7 129.309 17.7 129.309L17.4 131.079Z" fill="#45241D"/>
</g>
</g>
<g id="Group_31">
<g id="Group_32">
<path id="Vector_16" d="M17.8 137.779C17.8 137.779 17.7 137.779 17.6 137.652C17.5 137.652 17.2 137.526 17 137.399C16.5 137.147 15.9 136.767 15.3 136.388C14.1 135.503 13.2 134.365 13.2 134.365C13.2 134.365 14.3 135.25 15.5 135.63C16.1 135.882 16.7 136.009 17.2 136.009C17.4 136.009 17.6 136.009 17.7 136.009C17.8 136.009 17.9 136.009 17.9 136.009L17.8 137.779Z" fill="#45241D"/>
</g>
</g>
<g id="Group_33">
<g id="Group_34">
<path id="Vector_17" d="M19 147.512C19 147.512 18.7 147.512 18.3 147.386C17.9 147.259 17.3 147.133 16.8 147.006C15.7 146.627 14.8 145.869 14.8 145.869C14.8 145.869 15.9 146.121 16.9 146.121C17.4 146.121 17.9 145.995 18.3 145.995C18.7 145.869 18.9 145.869 18.9 145.869L19 147.512Z" fill="#45241D"/>
</g>
</g>
<g id="Group_35">
<g id="Group_36">
<path id="Vector_18" d="M19.7 155.982C19.7 155.982 19.6 155.982 19.5 155.982C19.4 155.982 19.1 155.982 18.9 155.855C18.4 155.729 17.8 155.476 17.2 155.097C16.6 154.717 16.2 154.212 15.8 153.706C15.5 153.327 15.3 152.948 15.3 152.948C15.3 152.948 15.5001 153.201 15.9 153.453C16.3 153.706 16.8 154.085 17.4 154.212C18 154.338 18.5 154.338 18.9 154.338C19.1 154.338 19.2 154.212 19.4 154.212C19.5 154.212 19.5999 154.212 19.5999 154.212L19.7 155.982Z" fill="#45241D"/>
</g>
</g>
</g>
<g id="Group_37">
<g id="Group_38">
<g id="Group_39">
<path id="Vector_19" d="M17.6001 31.5936L15.6001 25.5259L18.8002 30.7087L17.6001 31.5936Z" fill="#45241D"/>
</g>
</g>
<g id="Group_40">
<g id="Group_41">
<path id="Vector_20" d="M23.1001 26.6635L23.6001 20.8486L24.5001 26.6635H23.1001Z" fill="#45241D"/>
</g>
</g>
<g id="Group_42">
<g id="Group_43">
<path id="Vector_21" d="M27.2002 25.6522C27.2002 25.6522 27.4002 25.273 27.6002 24.8937C27.8002 24.3881 28.0002 23.756 28.2002 22.9976C28.6002 21.607 28.7002 20.0901 28.7002 20.0901C28.7002 20.0901 29.0002 21.607 28.9002 23.124C28.9002 23.8824 28.8002 24.7673 28.7002 25.273C28.6002 25.9051 28.5002 26.2843 28.5002 26.2843L27.2002 25.6522Z" fill="#45241D"/>
</g>
</g>
<g id="Group_44">
<g id="Group_45">
<path id="Vector_22" d="M33.9001 28.1805L37.3002 23.7561L35.1002 29.1918L33.9001 28.1805Z" fill="#45241D"/>
</g>
</g>
<g id="Group_46">
<g id="Group_47">
<path id="Vector_23" d="M38.4001 31.7199C38.4001 31.8463 38.4001 31.8463 38.4001 31.7199C38.3001 31.5935 38.2001 31.5935 38.1001 31.5935C38.0001 31.5935 38.0001 31.5935 38.1001 31.5935C38.1001 31.5935 38.2001 31.5935 38.3001 31.467C38.7001 31.2142 39.2001 30.9614 39.8001 30.5822C40.9001 29.9502 42.0001 29.3181 42.0001 29.3181C42.0001 29.3181 41.1001 30.3294 40.2001 31.3406C39.8001 31.8463 39.3001 32.3519 39.0001 32.7311L38.9001 32.8575C38.8001 32.8575 38.8001 32.9839 38.7001 32.9839C38.6001 33.1104 38.4001 33.1103 38.2001 33.2368C38.0001 33.2368 37.8001 33.2368 37.7001 33.1104C37.6001 33.1104 37.6001 32.9839 37.6001 32.9839L38.4001 31.7199Z" fill="#45241D"/>
</g>
</g>
<g id="Group_48">
<g id="Group_49">
<path id="Vector_24" d="M40.8003 37.1556C40.8003 37.1556 40.9003 37.1556 41.0003 37.1556C41.1003 37.1556 41.3003 37.282 41.5003 37.282C41.9003 37.4084 42.5003 37.4084 43.1003 37.4084C44.3003 37.4084 45.5002 36.7764 45.5002 36.7764C45.5002 36.7764 44.5002 37.7876 43.3003 38.2933C42.7003 38.5461 42.1003 38.7989 41.6003 38.7989C41.4003 38.7989 41.1003 38.9253 41.0003 38.9253C40.9003 38.9253 40.8003 38.9253 40.8003 38.9253V37.1556Z" fill="#45241D"/>
</g>
</g>
<g id="Group_50">
<g id="Group_51">
<path id="Vector_25" d="M43 43.9817L47.2 44.4873L43 45.7514V43.9817Z" fill="#45241D"/>
</g>
</g>
<g id="Group_52">
<g id="Group_53">
<path id="Vector_26" d="M43.1001 52.4512C43.1001 52.4512 43.2001 52.4512 43.3001 52.5776C43.4001 52.704 43.5001 52.704 43.7001 52.8304C44.0001 53.0832 44.5001 53.2096 45.1001 53.2096C45.6001 53.2096 46.2001 53.0832 46.6001 52.8304C47.0001 52.5776 47.2001 52.4512 47.2001 52.4512C47.2001 52.4512 47.0001 52.704 46.7001 53.0832C46.4001 53.4625 45.8001 53.8417 45.2001 54.0945C44.6001 54.3473 43.9001 54.3473 43.4001 54.2209C43.2001 54.2209 42.9001 54.0945 42.8001 54.0945C42.7001 54.0945 42.6001 53.9681 42.6001 53.9681L43.1001 52.4512Z" fill="#45241D"/>
</g>
</g>
<g id="Group_54">
<g id="Group_55">
<path id="Vector_27" d="M43.0003 60.5415C43.0003 60.5415 43.3003 60.6679 43.7003 60.7943C44.1003 60.9207 44.7003 61.0471 45.3003 61.1735C46.5003 61.2999 47.8003 61.1735 47.8003 61.1735C47.8003 61.1735 46.6003 61.8055 45.4003 62.0584C44.8003 62.1848 44.1003 62.3112 43.6003 62.3112C43.1003 62.3112 42.8003 62.3112 42.8003 62.3112L43.0003 60.5415Z" fill="#45241D"/>
</g>
</g>
<g id="Group_56">
<g id="Group_57">
<path id="Vector_28" d="M42.2001 66.7356C42.2001 66.7356 42.5001 66.7356 43.0001 66.862C43.5001 66.9884 44.2001 66.9884 44.9001 66.9884C46.3001 66.9884 47.6001 66.862 47.6001 66.862C47.6001 66.862 46.3001 67.4941 44.9001 67.8733C44.2001 68.1261 43.5001 68.2525 43.0001 68.379C42.5001 68.5054 42.1001 68.5054 42.1001 68.5054L42.2001 66.7356Z" fill="#45241D"/>
</g>
</g>
<g id="Group_58">
<g id="Group_59">
<path id="Vector_29" d="M42.2002 77.9863L47.3003 77.3542L42.6002 79.6296L42.2002 77.9863Z" fill="#45241D"/>
</g>
</g>
<g id="Group_60">
<g id="Group_61">
<path id="Vector_30" d="M41 85.6972C41 85.6972 41.3 85.6972 41.8 85.6972C42.3 85.6972 42.9 85.6972 43.5 85.6972C44.8 85.6972 46 85.4443 46 85.4443C46 85.4443 44.8 86.0764 43.6 86.582C43 86.8349 42.4 87.0877 41.9 87.2141C41.4 87.3405 41.1 87.4669 41.1 87.4669L41 85.6972Z" fill="#45241D"/>
</g>
</g>
<g id="Group_62">
<g id="Group_63">
<path id="Vector_31" d="M38.6001 111.359L43.9001 112.243L38.6001 113.128V111.359Z" fill="#45241D"/>
</g>
</g>
<g id="Group_64">
<g id="Group_65">
<path id="Vector_32" d="M40.7001 95.4309C40.7001 95.5573 40.8001 95.3045 40.7001 95.0517C40.7001 94.6725 40.5001 94.5461 40.4001 94.5461C40.4001 94.5461 40.4002 94.5461 40.5002 94.5461C40.6002 94.5461 40.8001 94.5461 40.9001 94.5461C41.5001 94.6725 42.3001 94.6725 43.1001 94.6725C44.7001 94.7989 46.4001 94.6725 46.4001 94.6725C46.4001 94.6725 44.8001 95.1781 43.2001 95.5573C42.4001 95.8101 41.6001 95.9365 40.9001 95.9365C40.7001 95.9365 40.6002 95.9365 40.5002 95.9365C40.5002 95.9365 40.5001 95.9365 40.4001 95.9365C40.3001 95.9365 40.3001 95.9365 40.2001 95.9365C40.1001 95.9365 40.0001 95.9365 39.9001 95.8101C39.7001 95.6837 39.4001 95.4309 39.4001 94.9253C39.4001 94.6725 39.5002 94.4197 39.5002 94.4197L40.7001 95.4309Z" fill="#45241D"/>
</g>
</g>
<g id="Group_66">
<g id="Group_67">
<path id="Vector_33" d="M39.5 101.751L45 102.51L39.5 103.395V101.751Z" fill="#45241D"/>
</g>
</g>
<g id="Group_68">
<g id="Group_69">
<path id="Vector_34" d="M37 122.483L43.1 122.356L37.2 124.252L37 122.483Z" fill="#45241D"/>
</g>
</g>
<g id="Group_70">
<g id="Group_71">
<path id="Vector_35" d="M36.4001 130.826L40.9001 131.584L36.5002 132.596L36.4001 130.826Z" fill="#45241D"/>
</g>
</g>
<g id="Group_72">
<g id="Group_73">
<path id="Vector_36" d="M35.5 139.675C35.5 139.675 35.9 139.675 36.4 139.548C36.9 139.548 37.6 139.422 38.3 139.422C39.7 139.422 41.1 139.548 41.1 139.548C41.1 139.548 39.7 139.801 38.4 140.307C37.7 140.56 37.1 140.812 36.6 140.939C36.1 141.192 35.8 141.318 35.8 141.318L35.5 139.675Z" fill="#45241D"/>
</g>
</g>
<g id="Group_74">
<g id="Group_75">
<path id="Vector_37" d="M35.7002 148.903L39.4003 149.661L35.7002 150.672V148.903Z" fill="#45241D"/>
</g>
</g>
<g id="Group_76">
<g id="Group_77">
<path id="Vector_38" d="M34.4001 156.361L38.5001 157.119L34.4001 158.131V156.361Z" fill="#45241D"/>
</g>
</g>
</g>
<g id="Group_78">
<g id="Group_79">
<g id="Group_80">
<path id="Vector_39" d="M21.7 78.9976C21.8 82.2842 21.8 85.4445 21.9 88.6048C22.1 94.0404 22.2 99.3497 22.5 104.785C22.5 105.165 22.5 105.544 22.6 105.797C22.7 108.451 22.8 111.106 23 113.887C23.3 120.46 23.8 127.16 24.2 133.733C24.3 135.756 24.5 137.779 24.6 139.801C24.8 142.329 25 144.858 25.2 147.386C25.2 147.765 25.3 148.271 25.3 148.65C25.6 152.569 26 156.614 26.2 160.532C27.2 160.532 28.2 160.406 29.2 160.28C29.6 160.28 29.9 160.153 30.3 160.153C30.6 153.453 30.7 146.627 30.8 140.054C30.8 138.79 30.8 137.399 30.9 136.135C30.9 135.25 31 134.239 31 133.354C31.3 125.137 32 117.047 32.3 108.83V108.704C32.3 108.451 32.3 108.198 32.3 107.946C32.3 106.808 32.4 105.544 32.4 104.406C32.4 103.521 32.4 102.763 32.4 101.878C32.4 101.751 32.4 101.625 32.4 101.625C32.4 90.8801 31.9 80.1352 31.7 69.2639C31.5 60.0359 31.3 50.9344 31.2 41.7064C31.2 40.6951 31.2 39.431 31.1 38.0405C31.1 37.5348 31.1 37.1556 31.1 36.65C31.1 35.5123 31 34.2482 30.9 33.1105C30.9 32.6048 30.8 32.0992 30.8 31.5935C30.7 30.9615 30.7 30.3294 30.6 29.6974C30.6 29.3181 30.5 29.0653 30.5 28.6861C30.5 28.3068 30.4 28.054 30.4 27.6748C30.3 27.422 30.3 27.0427 30.3 26.7899C30.2 26.1579 30.1 25.6522 29.9 25.0202C29.8 24.7673 29.8 24.3881 29.7 24.1353C27.1 23.6296 24.5 23.8825 22.2 25.0202C22.1 27.6748 22 30.3294 22 32.984C21.9 35.3858 21.9 37.6612 21.8 40.063C21.8 40.8215 21.8 41.58 21.8 42.3384C21.8 44.4874 21.7 46.7628 21.7 48.9118C21.7 51.5664 21.7 54.2211 21.7 56.8757C21.7 58.519 21.7 60.1624 21.7 61.9321C21.7 63.1962 21.7 64.5867 21.7 65.8508C21.7 67.9998 21.7 70.2752 21.8 72.4242C21.6 74.5732 21.6 76.7222 21.7 78.9976Z" fill="#4E7746"/>
</g>
</g>
<g id="Group_81">
<g id="Group_82">
<path id="Vector_40" d="M30.3 160.026C30.5 160.026 30.6 160.026 30.8 160.026C31.3 159.9 31.7 159.9 32.2 159.773C33.2 159.394 34.2 158.888 34.7 157.751C35 156.992 35.1 156.234 35.2 155.349C36.2 144.604 36.9 134.238 38.1 123.493C39.4 112.496 40.7 100.866 41.7 89.7416C43 73.9403 46.7 52.0712 41.9 37.0283C39.8 30.3286 35.5 25.9042 30.8 24.3873C30.4 24.2609 30 24.1345 29.7 24.0081C29.6 24.0081 29.6 24.0081 29.5 24.0081C29.6 24.2609 29.6 24.5137 29.7 24.8929C29.8 25.3986 29.9 26.0306 30.1 26.6627C30.2 26.9155 30.2 27.1683 30.2 27.5475C30.3 27.9268 30.3 28.1796 30.3 28.5588C30.3 28.9381 30.4 29.1909 30.4 29.5701C30.5 30.2022 30.5 30.8342 30.6 31.4663C30.6 31.9719 30.7 32.4776 30.7 32.9832C30.8 34.2473 30.8 35.385 30.9 36.5227C30.9 37.0283 30.9 37.534 30.9 37.9132C30.9 39.3038 31 40.5678 31 41.5791C31.2 50.8071 31.4 59.9087 31.5 69.1367C31.7 79.8816 32.2 90.7529 32.2 101.498C32.2 101.624 32.2 101.751 32.2 101.751C32.2 102.636 32.2 103.394 32.2 104.279C32.2 105.417 32.2 106.681 32.1 107.818C32.1 108.071 32.1 108.324 32.1 108.577V108.703C31.9 116.92 31.2 125.01 30.8 133.227C30.8 134.112 30.7 135.123 30.7 136.008C30.7 137.272 30.6 138.663 30.6 139.927C30.7 146.5 30.7 153.326 30.3 160.026Z" fill="#7DA35E"/>
</g>
</g>
<g id="Group_83">
<g id="Group_84">
<path id="Vector_41" d="M12.3998 88.0991C14.4998 105.923 16.1998 122.862 17.1998 140.812C17.4998 145.995 17.8998 151.178 19.2998 155.982C19.7998 157.499 20.3998 159.142 21.4998 159.9C22.2998 160.406 23.0998 160.406 23.9998 160.406C24.2998 160.406 24.5998 160.406 24.9998 160.406C25.3998 160.406 25.6998 160.406 26.0998 160.406H26.1998C25.9998 156.487 25.5998 152.442 25.2998 148.523C25.2998 148.144 25.1998 147.639 25.1998 147.259C24.7998 142.708 24.3998 138.158 24.0998 133.607C23.9998 131.964 23.8998 130.447 23.7998 128.803C23.6998 127.16 23.5998 125.517 23.4998 123.873C23.3998 122.483 23.2998 121.092 23.1998 119.575C22.9998 117.047 22.8998 114.393 22.7998 111.864C22.6998 110.474 22.6998 108.957 22.5998 107.566C22.3998 103.9 22.2998 100.361 22.0998 96.695C21.9998 94.0404 21.8998 91.2594 21.7998 88.6047C21.7998 87.7199 21.6998 86.835 21.6998 86.0765C21.5998 83.9275 21.5998 81.7786 21.5998 79.6296V78.6183C21.5998 76.5957 21.4998 74.4467 21.4998 72.4242C21.4998 70.2752 21.3998 67.9998 21.3998 65.8508C21.3998 62.817 21.3998 59.9095 21.3998 56.8757C21.3998 46.2572 21.5998 35.5123 21.8998 24.8938C21.4998 25.1466 21.0998 25.273 20.6998 25.5259C17.8998 27.422 15.3998 30.7087 13.9998 35.5123C8.99983 52.1985 10.2998 70.7809 12.3998 88.0991Z" fill="#3F6330"/>
</g>
</g>
</g>
<g id="Group_85">
<g id="Group_86">
<g id="Group_87">
<path id="Vector_42" d="M29.3 160.153C29.7 160.153 30 160.027 30.4 160.027C31.4 142.961 32 125.896 32.3 108.704V108.578C32.3 108.325 32.3 108.072 32.3 107.819C32.3 105.796 32.4 103.774 32.4 101.751C32.4 101.625 32.4 101.499 32.4 101.499C32.7 75.7107 32.2 50.0494 30.9 24.388C30.5 24.2616 30.1 24.1352 29.8 24.0088C29.8 24.2616 29.8 24.5144 29.8 24.7672C32 69.7694 31.9 115.277 29.3 160.153Z" fill="#45241D"/>
</g>
</g>
</g>
<g id="Group_88">
<g id="Group_89">
<g id="Group_90">
<path id="Vector_43" d="M20.2999 56.3701C20.9999 91.0066 22.4999 126.022 24.8999 160.533C25.2999 160.533 25.5999 160.533 25.9999 160.533C25.6999 156.235 25.3999 151.81 25.0999 147.512V147.386C23.1999 117.3 21.8999 86.9615 21.2999 56.8757V56.3701C21.0999 45.7516 20.9999 35.2595 21.7999 24.8938C21.3999 25.1466 20.9999 25.273 20.5999 25.5259C19.9999 35.6387 20.0999 45.878 20.2999 56.3701Z" fill="#45241D"/>
</g>
</g>
</g>
<g id="Group_91">
<g id="Group_92">
<path id="Vector_44" d="M33.8 42.9705C33 44.6138 32.2 46.2571 31.4 47.9004L31.1 48.6589L30.7 47.9004C29.9 46.2571 28.8 44.8666 27.7 43.3497C29.2 44.1081 30.5 45.6251 31.4 47.2684H30.7C31.5 45.6251 32.5 44.1081 33.8 42.9705Z" fill="#45241D"/>
</g>
</g>
<g id="Group_93">
<g id="Group_94">
<path id="Vector_45" d="M22.9999 43.2234C22.1999 44.8667 21.3999 46.5101 20.5999 48.1534L20.2999 48.9119L19.8999 48.1534C19.0999 46.5101 17.9999 45.1196 16.8999 43.6026C18.3999 44.3611 19.6999 45.878 20.5999 47.5214H19.8999C20.6999 46.0044 21.6999 44.3611 22.9999 43.2234Z" fill="#45241D"/>
</g>
</g>
<g id="Group_95">
<g id="Group_96">
<path id="Vector_46" d="M24.9 91.6387C24.1 93.282 23.3 94.9254 22.5 96.5687L22.2 97.3272L21.8 96.5687C21 94.9254 19.9 93.5348 18.8 92.0179C20.3 92.7764 21.6 94.2933 22.5 95.9367H21.8C22.6 94.2933 23.6 92.7764 24.9 91.6387Z" fill="#45241D"/>
</g>
</g>
<g id="Group_97">
<g id="Group_98">
<path id="Vector_47" d="M24.6 81.7786C23.8 83.4219 23 85.0653 22.2 86.7086L21.9 87.4671L21.5 86.7086C20.7 85.0653 19.6 83.6747 18.5 82.1578C20 82.9163 21.3 84.4332 22.2 86.0766H21.5C22.4 84.4332 23.4 82.9163 24.6 81.7786Z" fill="#45241D"/>
</g>
</g>
<g id="Group_99">
<g id="Group_100">
<path id="Vector_48" d="M25.9 113.381C25.1 115.025 24.3 116.668 23.5 118.311L23.2 119.07L22.8 118.311C22 116.668 20.9 115.278 19.8 113.761C21.3 114.519 22.6 116.036 23.5 117.679H22.8C23.6 116.036 24.6 114.519 25.9 113.381Z" fill="#45241D"/>
</g>
</g>
<g id="Group_101">
<g id="Group_102">
<path id="Vector_49" d="M23.6 61.8057C22.8 63.449 22 65.0923 21.2 66.7356L20.9 67.4941L20.5 66.7356C19.7 65.0923 18.6 63.7018 17.5 62.1849C19 62.9434 20.3 64.4603 21.2 66.1036H20.5C21.4 64.5867 22.4 63.0698 23.6 61.8057Z" fill="#45241D"/>
</g>
</g>
<g id="Group_103">
<g id="Group_104">
<path id="Vector_50" d="M27.7001 146.754C26.9001 148.397 26.1001 150.04 25.3001 151.684L25.0001 152.442L24.6001 151.684C23.8001 150.04 22.7001 148.65 21.6001 147.133C23.1001 147.891 24.4001 149.408 25.3001 151.052H24.6001C25.5001 149.408 26.5001 147.891 27.7001 146.754Z" fill="#45241D"/>
</g>
</g>
<g id="Group_105">
<g id="Group_106">
<path id="Vector_51" d="M23.6 32.0991C22.8 33.7425 22 35.3858 21.2 37.0292L20.9 37.7877L20.5 37.0292C19.7 35.3858 18.6 33.9953 17.5 32.4784C19 33.2368 20.3 34.7538 21.2 36.3971H20.5C21.4 34.7538 22.4 33.2368 23.6 32.0991Z" fill="#45241D"/>
</g>
</g>
<g id="Group_107">
<g id="Group_108">
<path id="Vector_52" d="M23.9999 52.072C23.1999 53.7153 22.3999 55.3587 21.5999 57.002L21.2999 57.7604L20.8999 57.002C20.0999 55.3587 18.9999 53.9682 17.8999 52.4513C19.3999 53.2097 20.6999 54.7266 21.5999 56.3699H20.8999C21.7999 54.7266 22.7999 53.2097 23.9999 52.072Z" fill="#45241D"/>
</g>
</g>
<g id="Group_109">
<g id="Group_110">
<path id="Vector_53" d="M23.8 71.9185C23 73.5618 22.2 75.2051 21.4 76.8485L21.1 77.6069L20.7 76.8485C19.9 75.2051 18.8 73.8146 17.7 72.2977C19.2 73.0562 20.5 74.5731 21.4 76.2164H20.7C21.5 74.6995 22.5 73.0562 23.8 71.9185Z" fill="#45241D"/>
</g>
</g>
<g id="Group_111">
<g id="Group_112">
<path id="Vector_54" d="M25.2001 102.889C24.4001 104.532 23.6001 106.176 22.8001 107.819L22.5001 108.578L22.1001 107.819C21.3001 106.176 20.2001 104.785 19.1001 103.268C20.6001 104.027 21.9001 105.544 22.8001 107.187H22.1001C23.0001 105.544 24.0001 104.027 25.2001 102.889Z" fill="#45241D"/>
</g>
</g>
<g id="Group_113">
<g id="Group_114">
<path id="Vector_55" d="M27.2001 136.767C26.4001 138.41 25.6001 140.054 24.8001 141.697L24.5001 142.456L24.1001 141.697C23.3001 140.054 22.2001 138.663 21.1001 137.146C22.6001 137.905 23.9001 139.422 24.8001 141.065H24.1001C24.9001 139.422 25.9001 137.905 27.2001 136.767Z" fill="#45241D"/>
</g>
</g>
<g id="Group_115">
<g id="Group_116">
<path id="Vector_56" d="M26.4 126.022C25.6 127.666 24.8 129.309 24 130.952L23.7 131.711L23.3 130.952C22.5 129.309 21.4 127.918 20.3 126.401C21.8 127.16 23.1 128.677 24 130.32H23.3C24.1 128.677 25.1 127.16 26.4 126.022Z" fill="#45241D"/>
</g>
</g>
<g id="Group_117">
<g id="Group_118">
<path id="Vector_57" d="M34.6 102.763C33.8 104.406 33 106.049 32.2 107.693L31.9 108.451L31.5 107.693C30.7 106.049 29.6 104.659 28.5 103.142C30 103.9 31.3 105.417 32.2 107.061H31.5C32.3 105.417 33.3 103.9 34.6 102.763Z" fill="#45241D"/>
</g>
</g>
<g id="Group_119">
<g id="Group_120">
<path id="Vector_58" d="M34.2001 62.0586C33.4001 63.7019 32.6001 65.3453 31.8001 66.9887L31.5001 67.7471L31.1001 66.9887C30.3001 65.3453 29.2001 63.9548 28.1001 62.4378C29.6001 63.1963 30.9001 64.7133 31.8001 66.3566H31.1001C31.9001 64.7133 32.9001 63.1963 34.2001 62.0586Z" fill="#45241D"/>
</g>
</g>
<g id="Group_121">
<g id="Group_122">
<path id="Vector_59" d="M34.8 92.397C34 94.0403 33.2 95.6836 32.4 97.3269L32.1 98.0854L31.7 97.3269C30.9 95.6836 29.8 94.2931 28.7 92.7762C30.2 93.5347 31.5 95.0516 32.4 96.6949H31.7C32.5 95.0516 33.5 93.5347 34.8 92.397Z" fill="#45241D"/>
</g>
</g>
<g id="Group_123">
<g id="Group_124">
<path id="Vector_60" d="M33.6 133.228C32.8 134.871 32 136.514 31.2 138.158L30.9 138.916L30.5 138.158C29.7 136.514 28.6 135.124 27.5 133.607C29 134.365 30.3 135.882 31.2 137.525H30.5C31.3 135.882 32.3 134.365 33.6 133.228Z" fill="#45241D"/>
</g>
</g>
<g id="Group_125">
<g id="Group_126">
<path id="Vector_61" d="M32.6 152.695C31.8 154.338 31 155.982 30.2 157.625L29.9 158.383L29.5 157.625C28.7 155.982 27.6 154.591 26.5 153.074C28 153.833 29.3 155.349 30.2 156.993H29.5C30.3 155.349 31.3 153.833 32.6 152.695Z" fill="#45241D"/>
</g>
</g>
<g id="Group_127">
<g id="Group_128">
<path id="Vector_62" d="M34.1 123.494C33.3 125.137 32.5 126.781 31.7 128.424L31.4 129.183L31 128.424C30.2 126.781 29.1 125.39 28 123.873C29.5 124.632 30.8 126.149 31.7 127.792H31C31.8 126.149 32.8 124.632 34.1 123.494Z" fill="#45241D"/>
</g>
</g>
<g id="Group_129">
<g id="Group_130">
<path id="Vector_63" d="M33.9999 53.4624C33.1999 55.1058 32.3999 56.7491 31.5999 58.3925L31.2999 59.1509L30.8999 58.3925C30.0999 56.7491 28.9999 55.3586 27.8999 53.8416C29.3999 54.6001 30.6999 56.1171 31.5999 57.7604H30.8999C31.6999 56.1171 32.7999 54.6001 33.9999 53.4624Z" fill="#45241D"/>
</g>
</g>
<g id="Group_131">
<g id="Group_132">
<path id="Vector_64" d="M34.6 81.1465C33.8 82.7898 33 84.4331 32.2 86.0764L31.9 86.8349L31.5 86.0764C30.7 84.4331 29.6 83.0426 28.5 81.5257C30 82.2842 31.3 83.8011 32.2 85.4444H31.5C32.3 83.8011 33.3 82.2842 34.6 81.1465Z" fill="#45241D"/>
</g>
</g>
<g id="Group_133">
<g id="Group_134">
<path id="Vector_65" d="M34.2001 113.887C33.4001 115.53 32.6001 117.173 31.8001 118.817L31.5001 119.575L31.1001 118.817C30.3001 117.173 29.2001 115.783 28.1001 114.266C29.6001 115.024 30.9001 116.541 31.8001 118.185H31.1001C31.9001 116.541 32.9001 115.024 34.2001 113.887Z" fill="#45241D"/>
</g>
</g>
<g id="Group_135">
<g id="Group_136">
<path id="Vector_66" d="M33.3 143.467C32.5 145.11 31.7 146.753 30.9 148.397L30.6 149.155L30.2 148.397C29.4 146.753 28.3 145.363 27.2 143.846C28.7 144.604 30 146.121 30.9 147.765H30.2C31 146.121 32 144.605 33.3 143.467Z" fill="#45241D"/>
</g>
</g>
<g id="Group_137">
<g id="Group_138">
<path id="Vector_67" d="M34.4 72.0449C33.6 73.6882 32.8 75.3316 32 76.9749L31.7 77.7333L31.3 76.9749C30.5 75.3316 29.4 73.941 28.3 72.4241C29.8 73.1826 31.1 74.6995 32 76.3428H31.3C32.1 74.6995 33.1 73.1826 34.4 72.0449Z" fill="#45241D"/>
</g>
</g>
<g id="Group_139">
<g id="Group_140">
<path id="Vector_68" d="M33.6 30.7085C32.8 32.3518 32 33.9952 31.2 35.6385L30.9 36.397L30.5 35.6385C29.7 33.9952 28.6 32.6047 27.5 31.0877C29 31.8462 30.3 33.3631 31.2 35.0065H30.5C31.3 33.3631 32.3 31.8462 33.6 30.7085Z" fill="#45241D"/>
</g>
</g>
</g>
</g>
</svg>
