<svg width="58" height="55" viewBox="0 0 58 55" fill="none" xmlns="http://www.w3.org/2000/svg">
<g id="Fleur Jaune">
<g id="Group">
<path id="Vector" d="M8.35694 25.2575C7.039 20.9003 6.47421 16.1282 6.09766 11.5635C8.9218 12.8084 11.5577 14.0533 14.3818 15.0908C16.2646 15.9207 18.1473 16.7506 19.6535 18.4105C20.9715 19.8629 21.9129 21.7303 22.666 23.5976C23.9839 26.9174 24.9253 30.4447 25.4901 33.9719C25.6784 35.4243 25.8667 37.2917 24.9253 38.5366C22.4777 41.8564 17.2059 39.574 14.9466 37.2917C12.1225 34.3869 9.4866 29.4072 8.35694 25.2575Z" fill="#DF9D4E"/>
</g>
<g id="Group_2">
<path id="Vector_2" d="M26.4315 12.3935C28.126 8.03634 30.5735 4.09411 32.8329 0.359375C34.1508 3.26417 35.4688 6.16896 36.7867 9.07376C37.7281 11.1486 38.6695 13.2235 38.8577 15.2983C39.046 17.3732 38.6695 19.448 37.9164 21.3154C36.975 24.8427 35.4687 28.1624 33.7742 31.2747C33.0211 32.5196 32.0798 33.972 30.7619 34.387C26.9963 35.2169 24.3605 29.4073 23.9839 26.2951C23.7956 21.9379 24.9253 16.3358 26.4315 12.3935Z" fill="#DF9D4E"/>
</g>
<g id="Group_3">
<path id="Vector_3" d="M44.5062 21.3154C47.3303 17.7882 50.7193 15.0908 54.1082 12.186C54.4848 15.5058 54.8614 18.6181 55.4262 21.9378C55.8027 24.2202 55.991 26.5026 55.4262 28.5774C55.0496 30.6523 53.92 32.3121 52.7904 33.972C50.7193 36.8768 48.46 39.5741 46.0124 41.8565C44.8827 42.8939 43.5648 43.9313 42.2468 43.5164C38.4813 42.8939 37.54 36.4618 38.2931 33.3496C39.2345 29.4073 41.8703 24.4277 44.5062 21.3154Z" fill="#DF9D4E"/>
</g>
<g id="Group_4">
<path id="Vector_4" d="M57.309 25.6725C56.3676 26.0875 55.4263 36.0468 54.8614 37.2917C53.1669 42.6863 51.2842 48.0809 46.389 50.9857C36.222 57.2103 18.1475 53.8905 8.54539 47.8734C5.15641 45.7986 -3.31601 24.2201 1.3909 24.2201C9.11024 24.0126 15.3233 26.0875 20.7834 31.8971C18.9006 24.2201 17.3944 13.8459 18.7123 5.96143C25.1137 10.7336 31.1385 15.9207 31.5151 25.2576C34.3392 19.033 37.54 13.4309 43 9.69617C45.2593 16.3357 45.6359 24.2201 44.8828 31.6896C48.6483 30.4447 53.3552 27.5399 57.309 25.6725Z" fill="#F5CC60"/>
</g>
<g id="Group_5">
<path id="Vector_5" d="M44.8829 37.0845C44.3181 37.292 43.7533 43.3091 43.3767 44.139C42.4353 47.2513 41.3056 50.5711 38.2932 52.4384C32.2684 56.1732 21.3483 54.0983 15.5118 50.5711C13.4407 49.3261 8.35722 36.462 11.1814 36.2546C15.8883 36.0471 19.4655 37.292 22.6662 40.8192C21.5366 36.2545 20.5952 30.03 21.3483 25.2578C25.1139 27.9551 28.8793 31.2749 29.0676 36.877C30.7621 33.1423 32.6449 29.8225 35.8456 27.5402C37.1636 31.4824 37.3518 36.2545 36.9753 40.6117C39.7994 39.9893 42.6236 38.1219 44.8829 37.0845Z" fill="#FFEAB4"/>
</g>
</g>
</svg>
