<svg width="110" height="196" viewBox="0 0 110 196" fill="none" xmlns="http://www.w3.org/2000/svg">
<path d="M66.7212 167.844C66.8637 173.701 64.8679 180.368 66.0797 185.955C66.4361 187.667 66.4361 187.487 65.2956 188.027C64.6541 188.298 63.2285 188.117 62.5869 187.937C60.5198 187.216 60.6624 185.054 60.7337 182.531C60.8049 180.278 60.8762 177.845 60.8049 175.413C60.7337 173.43 59.3793 168.835 59.9496 167.123C60.7337 165.051 65.3669 166.943 66.7212 167.844Z" fill="white"/>
<path d="M65.5095 186.495C66.65 186.495 66.8638 187.937 67.5053 188.928C68.0756 189.829 71.1406 192.172 70.6416 193.434C70.2139 194.515 66.7926 193.704 66.0085 193.614C65.1531 193.524 64.3691 193.253 63.585 193.163C62.8722 193.163 62.2307 193.343 61.7318 192.623C60.9477 191.631 61.0903 190.01 61.0903 188.658C61.0903 187.847 60.7339 186.946 60.8051 186.135C61.8743 186.676 63.0148 186.495 64.2265 186.495C64.5829 186.586 65.0819 186.495 65.5095 186.495Z" fill="#A6978E"/>
<path d="M10.9809 169.015C11.1235 174.872 9.12768 181.54 10.3394 187.126C10.6958 188.838 10.6958 188.658 9.55535 189.199C8.91384 189.469 7.48825 189.289 6.84674 189.108C4.77964 188.388 4.9222 186.225 4.99348 183.702C5.06476 181.449 5.13603 179.017 5.06475 176.584C4.99347 174.602 3.63917 170.006 4.2094 168.294C4.99348 166.222 9.62663 168.114 10.9809 169.015Z" fill="white"/>
<path d="M9.76924 187.667C10.9097 187.667 11.1236 189.109 11.7651 190.1C12.3353 191.001 15.4003 193.343 14.9014 194.605C14.4737 195.686 11.0523 194.875 10.2682 194.785C9.41284 194.695 8.62877 194.425 7.8447 194.335C7.1319 194.335 6.49038 194.515 5.99142 193.794C5.20735 192.803 5.34991 191.181 5.34991 189.829C5.34991 189.018 4.9935 188.117 5.06478 187.306C6.13398 187.847 7.27445 187.667 8.48621 187.667C8.77133 187.757 9.27029 187.667 9.76924 187.667Z" fill="#A6978E"/>
<path d="M76.7005 166.042C76.7718 171.448 74.9898 177.575 76.059 182.711C76.4154 184.333 76.4154 184.153 75.3462 184.603C74.776 184.874 73.4217 184.694 72.8514 184.513C70.9269 183.883 71.0694 181.9 71.1407 179.558C71.212 177.215 71.0694 174.872 71.212 172.619C71.3545 170.457 71.0694 167.754 71.6397 165.681C72.2812 163.519 75.4175 165.321 76.7005 166.042Z" fill="#EBEBEB"/>
<path d="M75.5602 183.252C76.5581 183.252 76.8432 184.603 77.4134 185.504C77.9124 186.315 80.7635 188.478 80.3358 189.649C79.9082 190.64 76.7719 189.92 76.0591 189.829C75.2751 189.739 74.5623 189.469 73.7782 189.469C73.1367 189.469 72.5665 189.559 72.0675 189.019C71.3547 188.117 71.4973 186.586 71.426 185.414C71.426 184.603 71.0696 183.882 71.1409 183.072C72.0675 183.522 73.1367 183.432 74.2772 183.432C74.7048 183.342 75.1325 183.252 75.5602 183.252Z" fill="#A6978E"/>
<path d="M21.5301 167.303C21.6014 172.709 19.8194 178.837 20.8886 183.973C21.245 185.594 21.245 185.414 20.1758 185.865C19.6056 186.135 18.2513 185.955 17.6811 185.775C15.7565 185.144 15.8991 183.162 15.9704 180.819C16.0416 178.476 15.8991 176.133 16.0416 173.881C16.1842 171.718 15.8991 169.015 16.4693 166.943C17.1108 164.69 20.2471 166.492 21.5301 167.303Z" fill="#EBEBEB"/>
<path d="M20.3897 184.423C21.3876 184.423 21.6727 185.774 22.243 186.676C22.7419 187.486 25.5931 189.649 25.1654 190.82C24.7378 191.811 21.6015 191.091 20.8887 191.001C20.1046 190.91 19.3918 190.64 18.6077 190.64C17.9662 190.64 17.396 190.73 16.897 190.19C16.1842 189.289 16.3268 187.757 16.2555 186.585C16.2555 185.774 15.8991 185.054 15.9704 184.243C16.897 184.693 17.9662 184.603 19.1067 184.603C19.5343 184.513 19.962 184.423 20.3897 184.423Z" fill="#A6978E"/>
<path d="M93.5222 131.441C94.1637 133.694 93.3083 136.127 92.3817 137.929C92.0966 138.47 90.8848 139.821 90.671 140.182C90.2433 141.173 90.5997 142.344 90.2433 143.245C89.9582 144.056 89.1741 144.867 88.8177 145.678C88.1049 147.3 88.6752 149.733 87.6773 151.264C87.3209 151.715 86.1091 151.625 85.9666 151.985C85.6102 152.616 85.824 153.427 85.5389 154.058C85.3251 154.508 85.3963 155.409 85.1112 155.95C84.8261 156.49 83.8282 156.22 83.6144 156.761C83.1154 158.022 83.1867 159.914 82.759 161.086C82.9016 160.725 81.7611 162.167 81.7611 162.257C81.3334 162.978 81.6185 163.969 81.0483 164.69C80.6206 165.321 79.694 164.69 79.4089 165.14C79.1238 165.591 79.1238 166.943 78.9812 167.123C75.0609 172.349 71.782 172.169 70 165.231C69.5724 163.519 68.3606 162.708 68.2181 160.815C68.1468 159.734 68.7883 158.743 68.717 157.482C68.5745 156.04 67.6478 155.139 67.434 153.877C67.0063 151.445 68.0755 150.724 68.3606 148.381C68.5745 146.579 68.2893 143.696 68.0042 141.893C67.7191 139.641 66.935 138.56 67.7191 136.307C68.2893 134.595 70.5703 129.91 71.9246 129.369C73.564 128.738 75.7737 130.27 77.4131 130.45C78.9812 130.63 80.4781 130.09 82.0462 130.09C84.541 130 86.0379 131.892 88.0337 131.171C89.388 130.721 93.3083 127.747 93.5222 131.441Z" fill="#EBEBEB"/>
<path d="M41.7734 151.805C43.6267 155.139 38.9222 156.671 37.4966 157.662C37.069 157.932 35.5721 159.284 35.3582 159.554C34.5742 160.455 33.9327 162.527 33.006 163.338C32.4358 163.789 31.5092 163.248 31.0815 163.609C30.5113 164.059 30.44 164.78 29.941 165.231C29.1569 165.951 28.3729 167.033 27.6601 167.934C27.2324 168.564 27.1611 169.556 26.6622 170.096C26.5196 170.276 25.4504 170.367 25.1653 170.547C24.0961 171.268 23.312 172.529 22.1716 173.25C21.6726 173.61 21.7439 174.511 21.2449 174.872C20.8173 175.142 20.3896 174.151 19.7481 174.241C18.8214 174.421 18.1086 175.142 16.9682 174.962C15.6139 174.692 14.1883 172.98 13.618 171.358C12.5489 168.294 14.9011 167.754 14.4021 164.96C14.1883 163.699 12.4063 163.068 12.335 161.446C12.1925 159.554 12.9765 159.644 13.7606 158.202C14.2596 157.211 14.616 155.499 15.1862 154.778C16.1128 153.517 18.1086 153.607 18.6789 152.075C19.1778 150.814 17.8235 149.462 18.1799 148.111C18.5363 146.669 19.8906 146.489 20.3183 144.867C20.746 143.515 20.1757 141.533 20.4609 140.091C20.6034 139.371 21.3875 137.478 21.6013 136.577C22.3854 133.874 22.2428 134.054 24.6663 133.694C26.0207 133.424 27.5888 132.703 28.9431 133.424C30.44 134.235 30.7964 136.307 32.0794 137.388C32.9347 138.109 34.2178 137.478 35.1444 138.65C35.8572 139.461 35.9285 140.722 36.2849 141.803C37.2115 144.597 37.069 143.335 38.6371 145.047C40.2052 146.669 39.2073 146.219 40.134 148.291C40.8468 149.823 44.0543 150.994 42.8426 153.427C42.5575 153.157 41.8447 152.976 41.7734 151.805Z" fill="#EBEBEB"/>
<path d="M9.84061 124.774C12.9056 130.721 17.9664 136.127 22.7422 139.731C23.1698 140.001 24.5954 141.173 24.9518 141.713C25.7359 142.705 25.8072 144.417 26.3774 145.228C27.3753 146.489 29.5137 145.858 30.2978 147.12C30.7967 147.841 30.2265 149.553 30.7967 150.544C31.5808 151.895 33.2202 151.715 34.2181 152.616C35.715 153.878 36.2139 155.139 38.1385 155.77C40.4194 156.491 42.8429 158.203 44.9813 158.473C45.5515 158.563 46.2643 158.112 46.9058 158.203C48.3314 158.383 48.9016 159.644 50.5411 159.014C51.539 158.653 52.1805 157.121 53.0358 157.031C53.8912 156.941 54.8178 158.112 55.887 157.932C56.5998 157.842 57.669 156.851 58.4531 156.671C59.0946 156.491 59.9499 156.941 60.5914 156.581C61.5894 156.04 62.0883 154.598 63.0862 154.148C63.7277 153.787 64.7256 154.328 65.5097 154.058C66.7215 153.607 68.3609 152.616 69.3588 151.805C70.2854 151.084 70.3567 150.093 71.4259 149.733C72.0674 149.462 72.7802 150.454 73.5643 150.183C74.7047 149.733 75.1324 147.66 76.2016 147.21C77.1282 146.759 78.34 147.75 79.3379 147.48C80.8348 147.12 82.6167 145.498 83.9711 144.597C85.3254 143.786 86.0382 142.164 87.3925 141.173C87.8201 140.812 88.6755 141.443 89.1032 141.083C89.816 140.542 90.1723 139.641 90.7426 138.92C91.4554 138.019 92.1682 137.659 92.881 137.208C93.4512 136.848 93.9501 136.397 94.5204 135.767C96.5875 132.973 96.8013 129.82 98.1556 126.666C98.7259 125.314 100.009 124.233 100.508 122.882C100.579 122.791 100.579 122.611 100.65 122.521C101.149 120.899 100.864 119.818 100.936 118.016C101.007 116.845 101.72 116.754 101.434 115.223C101.078 113.33 99.795 112.61 99.5812 110.537C99.4387 109.186 100.151 107.654 99.795 106.302C99.7238 106.032 99.6525 105.762 99.5099 105.582C98.5833 103.689 96.4449 102.518 95.8034 100.626C95.0193 98.3731 96.3024 95.8502 94.3065 93.6877C93.2374 92.5163 91.4554 92.5163 90.3149 91.5252C89.1744 90.534 89.1744 89.7231 88.3191 88.5517C87.8201 87.921 87.3925 87.4705 86.9648 87.2002C85.3966 86.209 84.1136 87.4705 81.904 86.2991C80.1933 85.3981 79.9794 83.3257 77.9123 83.2356C76.558 83.1454 75.7027 84.6772 73.992 83.9564C72.7802 83.5059 72.4238 82.785 71.2121 82.6048C70.2854 82.4246 69.2875 82.5147 68.2183 82.6949C65.7948 83.1454 63.1575 84.2267 61.0904 84.7673C60.6627 84.8574 59.6648 85.6684 59.3797 85.6684C58.4531 85.7585 58.3105 85.308 57.3839 85.1277C56.6711 85.0376 56.4573 84.2267 55.6019 84.2267C54.0338 84.3168 53.6061 85.6684 51.8241 85.3981C51.1113 85.308 50.3985 84.5871 49.6857 84.6772C49.1155 84.6772 48.4027 85.308 47.975 85.2179C46.9771 85.1277 45.9792 84.1366 45.1238 84.1366C43.7695 84.0465 43.2706 85.1277 41.9876 85.1277C40.562 85.1277 39.7779 83.6861 38.3523 83.9564C37.5682 84.1366 37.0693 85.5783 36.2139 85.5783C35.216 85.6684 34.7884 84.2267 34.0043 84.1366C32.4361 83.9564 31.4382 84.9475 29.8701 84.7673C28.7296 84.6772 27.304 84.1366 26.3061 84.1366C24.239 84.1366 22.457 84.497 20.5325 85.2179C13.9748 87.6507 8.77142 94.9491 7.132 103.419C5.4213 110.447 6.49048 118.466 9.84061 124.774Z" fill="white"/>
<path d="M92.5957 134.235C92.3106 134.956 92.2393 136.487 91.8829 137.028C91.384 137.839 90.6712 137.659 90.2435 138.38C89.8871 139.01 89.9584 139.911 89.5307 140.452C89.0317 141.083 88.1764 141.533 87.7487 142.074C86.1806 144.417 86.3231 145.858 84.3986 147.931C83.9709 148.381 83.5432 148.381 83.1156 148.922C82.6879 149.463 82.973 150.544 82.6166 150.994C81.69 152.166 80.6921 151.895 79.7654 153.157C79.3378 153.788 79.5516 154.959 78.9814 155.68C78.5537 156.22 77.6271 156.04 77.4132 156.311C76.4866 157.752 76.344 159.735 75.4174 161.176C74.562 162.438 73.8493 162.978 73.0652 164.6C72.1385 166.583 70.4278 166.582 69.1448 168.024C64.4404 173.34 61.3041 173.07 58.0965 166.042C57.6689 165.051 56.8135 164.51 56.3146 163.429C55.8869 162.438 56.172 161.447 55.8156 160.545C55.4592 159.464 54.3187 158.383 54.0336 157.121C53.7485 155.68 54.39 155.229 54.3187 153.968C54.2475 152.346 53.6772 151.715 53.3921 150.093C52.9644 147.57 52.0378 139.01 53.8198 137.208C53.9623 137.028 55.2454 138.109 55.7443 137.839C56.7422 137.389 57.1699 134.595 58.3817 134.505C59.6647 134.415 60.0924 136.668 61.2328 136.758C62.0882 136.758 62.5871 135.226 63.4425 135.136C64.6542 134.956 66.2224 135.496 67.5767 135.406C69.1448 135.226 70.8555 135.586 72.4949 135.316C75.061 134.866 74.4908 134.505 76.843 135.857C78.8388 136.938 78.4824 136.397 80.5495 135.406C82.1889 134.595 84.3986 133.874 86.2518 134.145C86.7508 134.235 87.9626 135.046 88.1051 135.046C89.8158 135.046 90.5286 133.064 92.0255 132.883C92.168 133.154 92.3106 133.784 92.3819 134.055C92.3106 134.595 92.168 133.965 92.5957 134.235Z" fill="white"/>
<path d="M32.3649 138.56C34.8596 140.092 32.8638 143.696 32.4362 145.768C32.2936 146.579 32.8638 147.39 32.7213 148.111C32.5787 148.742 32.0085 148.922 31.9372 149.282C31.8659 149.733 31.5095 151.445 31.2957 152.166C30.868 153.697 30.1552 156.04 29.4424 157.392C29.4424 157.482 27.7317 159.734 27.5892 159.915C26.8051 160.635 26.8051 161.537 25.3795 161.266C25.1657 161.897 24.9518 163.519 24.5242 163.969C23.9539 164.6 23.1699 163.969 22.6709 164.6C21.3879 166.042 20.1761 167.934 19.1782 169.285C18.608 170.006 18.7505 171.088 18.109 171.808C17.8239 172.079 17.1824 171.268 17.0398 171.448C16.7547 171.808 16.3271 172.529 16.0419 172.8C15.6143 173.16 15.7568 174.421 15.3291 174.872C15.1153 175.142 14.4738 174.692 14.26 174.962C14.0461 175.232 13.0482 176.314 12.6918 176.494C10.4822 178.116 6.5618 179.648 4.20959 176.674C2.85528 174.962 2.07121 171.989 1.92865 169.646C1.92865 169.195 1.85737 166.492 1.92865 166.132C2.21377 164.87 2.784 164.69 3.1404 163.519C4.63726 158.563 5.13622 153.247 6.20541 148.111C6.98948 144.327 6.91819 139.911 6.84691 135.586C6.84691 130.721 6.77563 126.936 6.27668 121.89C5.92028 118.016 5.70645 114.232 5.92028 110.267C6.13412 106.663 7.06075 105.582 9.91192 104.861C15.1866 103.509 18.7505 106.663 22.2432 111.258C24.5242 114.232 27.3041 116.755 28.0168 121.08C28.2307 122.251 27.6604 123.332 28.0168 124.594C28.4445 126.216 30.0839 127.387 30.7255 128.919C31.6521 131.261 30.9393 132.343 31.2957 134.595C31.6521 136.578 33.0064 137.388 32.3649 139.731C31.9372 139.461 31.4382 139.281 32.3649 138.56Z" fill="white"/>
<path d="M27.09 84.2265C25.5931 85.0374 23.3122 83.3255 21.5302 83.4156C18.3227 83.5958 13.9746 84.7671 10.9096 86.1187C10.6245 86.2989 9.84044 87.1999 9.48404 87.3801C8.84253 87.7406 7.84463 87.7406 7.13184 88.101C6.49032 88.4614 6.06264 89.2723 5.42113 89.6328C4.56578 90.0833 3.92427 89.3625 3.21148 90.2635C2.78381 90.8942 2.92636 92.6062 2.56996 93.4172C2.4274 93.6875 1.57205 93.5073 1.35822 93.7776C0.716703 94.4083 1.28694 95.5797 1.0731 96.3005C0.574148 97.7422 0.217747 98.3729 0.0751877 100.175C0.0751877 100.445 0.787981 100.896 0.787981 101.436C0.787981 102.067 -0.0673637 102.428 0.00391579 102.878C0.217752 104.951 0.645422 104.14 1.14438 105.581C1.42949 106.482 1.35821 108.465 1.85717 109.185C1.85717 109.185 4.42322 110.627 4.35194 110.627C6.13392 111.258 5.13602 110.807 6.77544 109.996C8.12975 109.366 8.55741 109.816 9.48404 108.104C10.2681 106.662 10.482 105.041 11.266 103.689C12.3352 101.797 13.7608 100.265 14.7587 98.1927C16.3981 94.7687 17.895 92.6062 20.96 91.1645C22.4569 90.2635 30.5114 89.5427 27.09 84.2265Z" fill="white"/>
<path d="M10.5532 96.481C8.62863 97.7424 8.12968 100.716 5.77747 100.986C5.70619 102.158 6.34771 102.518 5.13597 102.788C4.70829 102.878 4.77957 102.608 4.42317 103.059C4.20934 103.419 4.3519 103.87 3.92422 104.14C3.42527 104.5 3.21142 103.87 2.71247 104.14C2.42735 104.32 2.2848 104.861 1.92841 104.951C1.50073 105.041 1.07305 104.14 0.574097 104.5C0.787934 105.491 0.787934 106.573 0.930492 107.654C1.00177 108.285 1.21561 108.915 1.64328 109.276C2.28479 109.816 2.92631 110.808 3.6391 111.168C4.49445 111.619 5.49236 111.438 6.34771 110.808C7.55945 109.997 7.55945 108.375 8.34352 107.113C9.48399 105.221 10.4819 104.32 10.9096 101.707C11.1947 100.355 11.9788 95.5799 10.5532 96.481Z" fill="#EBEBEB"/>
<path d="M75.061 77.8291C74.0631 79.2708 73.3503 80.4422 72.0673 81.2531C70.2853 82.3344 69.4299 81.5234 70.0002 84.587C70.5704 87.9208 74.0631 89.3625 75.3461 92.1558C76.4866 94.5886 75.3461 96.661 76.9855 98.6433C79.409 101.437 80.6921 101.527 81.9751 105.852C82.5453 107.834 83.0443 109.996 84.3273 111.348C85.6816 112.7 87.2498 112.159 88.7466 113.06C91.5978 114.682 92.0968 119.007 94.0213 121.89C96.5874 125.765 96.7299 122.701 99.0821 120.899C100.08 120.088 100.864 120.989 101.719 119.367C102.218 118.286 101.648 116.935 102.005 115.763C102.29 114.772 103.288 114.502 103.501 113.691C103.929 112.249 103.288 110.627 103.787 109.186C104.428 107.203 105.355 106.663 105.64 104.5C105.925 102.247 106.353 99.7246 106.281 97.4719C106.21 96.0303 105.569 94.4985 105.64 93.1469C105.711 92.5162 106.566 91.525 106.709 90.7141C107.065 87.8307 105.925 84.9474 106.353 82.1541C106.852 79.1807 107.564 78.0093 107.493 74.6755C107.422 68.7286 107.137 64.4936 105.854 58.9071C105.569 57.6457 106.21 56.4743 106.068 55.2129C105.925 53.9514 105.212 52.78 105.283 51.4285C105.283 50.7977 105.711 50.2571 105.711 49.4462C105.64 48.5451 105.355 48.2748 105.212 47.4639C105.07 46.5628 105.212 45.7519 104.856 44.9409C104.642 44.3102 103.929 43.9498 103.715 43.0487C103.288 41.607 103.573 41.5169 102.86 40.706L100.65 39.3544C99.296 39.0841 98.0129 41.0664 96.5874 41.0664C95.8033 41.0664 95.0192 40.0753 94.1639 40.1654C93.0234 40.2555 92.7383 41.5169 91.8116 41.8774C90.0297 42.6883 87.6062 41.0664 86.1093 43.4992C85.9667 43.7696 85.8242 44.9409 85.6103 45.3914C85.3252 46.0222 84.8263 46.2925 84.6124 47.0133C84.4699 47.4639 84.755 48.1847 84.6124 48.6352C84.5412 48.8154 84.0422 49.1758 84.0422 49.0857C83.7571 49.9868 83.6145 50.5274 83.6145 51.879C83.6145 52.78 83.6858 53.591 83.6145 54.4019C83.6145 54.9425 83.8996 55.4832 83.7571 56.1139C83.6858 56.3842 83.0443 56.2941 82.9017 56.7446C82.4741 58.5467 83.5432 59.9884 83.0443 61.6103C82.8305 62.4212 81.9751 62.6915 81.8325 63.5926C81.69 64.1332 81.9038 64.9442 82.0464 65.4848C81.0485 65.8452 80.0506 68.0077 79.908 69.3593C79.8367 69.8999 80.2644 70.5306 80.1218 71.1614C79.8367 71.8822 78.4111 72.3327 77.8409 73.0536C76.9143 74.2249 76.7004 76.027 75.7738 77.1984C75.4887 77.2885 75.2748 77.5588 75.061 77.8291Z" fill="white"/>
<path d="M90.8849 13.6739C91.0987 11.4213 88.5326 9.52912 87.5347 8.26765C86.8219 7.36661 86.1804 6.46556 85.6815 5.3843C85.3251 4.48326 85.3251 3.58221 85.1825 2.59106C84.9687 1.41969 84.1846 0.879061 83.5431 1.87021C82.8303 2.95147 82.6164 4.75357 82.6164 6.10514C82.5452 9.52912 82.9016 12.5026 84.8261 15.0255C86.323 17.0078 90.2433 17.2781 90.8849 13.6739Z" fill="#ECD7CE"/>
<path d="M97.2289 14.0351V13.945C97.1576 12.8638 98.013 12.1429 98.5832 11.5122C99.795 10.1606 100.436 8.80906 100.864 6.82676C101.149 5.5653 101.007 1.87103 102.575 2.32155C103.644 2.68197 104.357 4.39395 104.785 5.5653C105.355 7.18718 105.426 9.16948 105.283 10.8815C105.141 12.7736 104.357 14.9362 103.216 16.2877C102.646 17.0086 101.791 17.9096 100.935 17.8195C100.223 17.7294 99.296 17.1888 98.7258 16.6481C98.013 16.1075 97.3002 15.0263 97.2289 14.0351Z" fill="#ECD7CE"/>
<path d="M92.2391 12.0528C92.1678 12.0528 92.1678 12.0528 92.0966 12.0528C91.3125 12.3231 90.5997 12.8637 89.8156 13.2241C88.889 13.6747 88.0336 14.1252 87.1783 14.7559C85.1112 16.1976 84.4697 18.0898 84.8973 21.0632C85.2537 23.3159 85.3963 25.4784 85.3963 27.9112C85.3963 29.7133 85.5389 31.5154 85.4676 33.2274C85.3963 35.2998 85.7527 37.4623 85.6814 39.4446C85.6101 41.4269 84.8973 43.0488 84.8973 45.1212C84.8973 47.1936 84.4697 49.0858 84.6122 51.1582C87.9624 50.7978 91.455 51.3384 94.8765 51.0681C96.7297 50.8879 98.6543 50.6176 100.508 50.7978C102.076 50.978 103.501 51.6087 105.069 50.978C105.141 49.4462 105.141 48.0045 105.283 46.4728C105.497 44.0399 104.713 42.4181 104.499 40.0753C104.143 36.2909 104 33.4076 103.145 29.8034C102.646 27.731 102.86 25.4784 102.931 23.3159C103.002 20.883 103.145 18.27 101.862 16.3778C100.793 14.7559 98.7968 12.6835 97.2287 12.3231C95.5892 12.0528 93.8785 11.6023 92.2391 12.0528Z" fill="white"/>
<path d="M97.7994 35.3C98.3696 37.1923 98.4409 39.535 97.1578 40.7964C96.1599 41.7876 94.0216 42.4183 92.8098 41.7876C89.6735 40.2558 89.6023 33.0474 92.3109 31.0651C94.7344 29.263 97.6568 32.3266 98.0132 35.3902C97.8706 35.3902 97.7994 35.4803 97.7994 35.3Z" fill="#A6978E"/>
<path d="M96.2308 36.3811C96.1596 36.6514 96.0883 37.0118 95.9457 37.2821C95.0904 38.904 93.2371 39.2644 92.1679 37.8227C90.8136 36.0206 91.6689 30.9748 94.0212 31.7857C95.3755 32.1462 96.516 34.579 96.2308 36.3811Z" fill="#45241D"/>
<path d="M102.86 21.9642C102.361 21.0632 101.292 20.7027 100.508 20.8829C99.9374 21.0632 99.082 21.6038 99.0108 22.4148C98.7969 24.0367 100.436 24.8476 101.506 24.7575C102.361 24.6674 103.216 23.7663 103.074 22.595C103.002 22.4148 102.931 22.2345 102.86 21.9642Z" fill="#45241D"/>
<path d="M104.071 20.7031C104.071 20.7031 103.929 20.7932 103.644 20.9734C103.359 21.0635 103.002 21.2437 102.717 21.2437C102.361 21.2437 102.004 21.2437 101.79 21.1536C101.577 21.0635 101.363 20.9734 101.363 20.9734L101.149 21.6943C101.149 21.6943 101.363 21.7844 101.648 21.7844C101.933 21.7844 102.361 21.7844 102.717 21.6042C103.073 21.424 103.43 21.2437 103.644 21.0635C103.929 20.8833 104.071 20.7031 104.071 20.7031Z" fill="#45241D"/>
<path d="M104.642 21.0627C104.642 21.0627 104.499 21.1528 104.214 21.3331C103.929 21.4232 103.572 21.6034 103.287 21.6034C102.931 21.6034 102.574 21.6034 102.361 21.5133C102.147 21.4232 101.933 21.3331 101.933 21.3331L101.719 22.0539C101.719 22.0539 101.933 22.144 102.218 22.144C102.503 22.144 102.931 22.144 103.287 21.9638C103.644 21.7836 104 21.6034 104.214 21.4232C104.499 21.243 104.642 21.0627 104.642 21.0627Z" fill="#45241D"/>
<path d="M105.141 21.6943C105.141 21.6943 104.998 21.7844 104.713 21.9647C104.428 22.0548 104.071 22.235 103.786 22.235C103.43 22.235 103.074 22.235 102.86 22.1449C102.646 22.0548 102.432 21.9647 102.432 21.9647L102.218 22.6855C102.218 22.6855 102.432 22.7756 102.717 22.7756C103.002 22.7756 103.43 22.7756 103.786 22.5954C104.143 22.4152 104.499 22.235 104.713 22.0548C104.998 21.7844 105.141 21.6943 105.141 21.6943Z" fill="#45241D"/>
<path d="M101.505 23.4064C101.505 23.6767 101.719 23.9471 101.933 23.9471C102.147 23.9471 102.361 23.6767 102.361 23.4064C102.361 23.1361 102.147 22.8657 101.933 22.8657C101.719 22.8657 101.505 23.1361 101.505 23.4064Z" fill="white"/>
<path d="M84.6839 22.4149C85.1116 21.5138 86.252 21.0633 87.0361 21.2435C87.6063 21.3336 88.4617 21.9643 88.533 22.6852C88.7468 24.3071 87.1787 25.2081 86.1095 25.118C85.2541 25.118 84.3988 24.217 84.47 23.0456C84.47 22.8654 84.5413 22.5951 84.6839 22.4149Z" fill="#45241D"/>
<path d="M83.4008 21.1533C83.4008 21.1533 83.5433 21.3335 83.7572 21.5138C83.971 21.694 84.3274 21.8742 84.6838 22.0544C85.1828 22.1445 85.5392 22.1445 85.8243 22.0544C86.1094 22.0544 86.3232 21.9643 86.3232 21.9643L86.1094 21.2434C86.1094 21.2434 85.9668 21.3335 85.753 21.4236C85.5392 21.5137 85.1828 21.6039 84.8264 21.6039C84.47 21.6039 84.1136 21.5137 83.8284 21.3335C83.6146 21.2434 83.4008 21.1533 83.4008 21.1533Z" fill="#45241D"/>
<path d="M82.8304 21.5137C82.8304 21.5137 82.973 21.6939 83.1868 21.8741C83.4007 22.0543 83.7571 22.2345 84.1135 22.4147C84.4699 22.5048 84.8976 22.5949 85.1827 22.5048C85.4678 22.5048 85.6816 22.4147 85.6816 22.4147L85.4678 21.6939C85.4678 21.6939 85.3252 21.784 85.1114 21.8741C84.8976 21.9642 84.5412 22.0543 84.1848 22.0543C83.8284 22.0543 83.472 21.9642 83.1868 21.784C83.0443 21.6038 82.8304 21.5137 82.8304 21.5137Z" fill="#45241D"/>
<path d="M82.3314 22.1445C82.3314 22.1445 82.474 22.3247 82.6878 22.5049C82.9017 22.6851 83.2581 22.8653 83.6145 23.0456C83.9709 23.1357 84.3985 23.2258 84.6837 23.1357C84.9688 23.1357 85.1826 23.0456 85.1826 23.0456L84.9688 22.3247C84.9688 22.3247 84.8262 22.4148 84.6124 22.5049C84.3985 22.595 84.0421 22.6851 83.6857 22.6851C83.3293 22.6851 82.9729 22.595 82.6878 22.4148C82.5453 22.2346 82.3314 22.1445 82.3314 22.1445Z" fill="#45241D"/>
<path d="M87.9624 23.6764C87.9624 23.9467 87.7486 24.217 87.5347 24.217C87.3209 24.217 87.1071 23.9467 87.1071 23.6764C87.1071 23.406 87.3209 23.1357 87.5347 23.1357C87.8198 23.1357 87.9624 23.406 87.9624 23.6764Z" fill="white"/>
<path d="M97.1578 25.0279C95.6609 24.307 94.3779 24.6674 92.881 24.3971C91.5267 24.2169 90.3862 24.9378 90.1011 26.83C89.7447 29.0826 89.4596 32.1462 89.9586 34.3988C90.2437 35.8405 91.0278 37.3722 92.3108 36.8316C93.7364 36.291 93.38 34.2186 93.7364 32.7769C93.0949 35.6603 95.5897 39.0842 97.7281 36.7415C98.8685 35.48 98.9398 32.5066 98.6547 30.7946C98.4409 29.6232 98.2983 25.2982 97.1578 25.0279Z" fill="#A6978E"/>
<path d="M96.445 26.1992C96.0886 26.1992 95.6609 26.4695 95.4471 26.8299C94.8768 27.6409 94.7343 28.9924 94.8056 30.0737C95.5183 29.6232 96.3024 29.2627 96.8726 28.5419C97.1577 28.1815 97.3003 27.8211 97.3003 27.2805C97.3003 26.4695 96.9439 26.1992 96.445 26.1992Z" fill="#45241D"/>
<path d="M91.3127 26.1992C91.6691 26.1992 92.0968 26.4695 92.3106 26.7398C92.9522 27.5508 93.0947 28.9024 93.0947 29.8935C92.3819 29.443 91.5265 29.1727 90.9563 28.4518C90.6712 28.0914 90.4573 27.731 90.4573 27.1904C90.4573 26.4695 90.885 26.1992 91.3127 26.1992Z" fill="#45241D"/>
<path d="M98.6543 35.1197C98.6543 35.0296 98.583 34.9395 98.583 34.9395C98.4405 34.9395 98.2979 35.5702 98.2979 35.7504C97.9415 36.5614 97.3 37.0119 96.5872 37.102C95.3755 37.2822 94.5914 36.1109 94.1637 34.8494C94.0925 34.6692 93.6648 33.2275 93.6648 33.2275C93.3797 33.588 93.451 34.3088 93.3084 34.8494C93.1658 35.39 92.952 36.201 92.5956 36.5614C92.2392 36.9218 91.7403 37.0119 91.3126 36.6515C90.9562 36.3812 90.7424 35.5702 90.386 35.5702C90.2434 36.6515 91.17 37.2822 91.9541 37.2822C92.952 37.2822 93.451 36.2911 93.7361 35.2098C93.8074 36.1109 94.0212 36.2911 94.6627 36.8317C95.3042 37.3723 95.6606 37.4624 96.3734 37.5525C97.4426 37.7327 98.583 37.0119 98.7256 35.5702C98.6543 35.4801 98.6543 35.2098 98.6543 35.1197Z" fill="#45241D"/>
<path d="M87.5349 17.8195C87.3211 17.4591 87.0359 16.8284 86.9647 16.3779C86.8934 15.8373 87.3923 15.3867 87.3211 15.1164C87.1785 14.0352 86.1806 13.7649 86.1093 12.7737C87.0359 12.0529 85.6104 11.0617 85.254 10.3409C85.3252 10.5211 84.9689 8.98933 85.0401 9.07943C84.9689 8.71901 84.6837 7.90807 84.5412 7.45755C84.2561 6.4664 83.1156 1.78098 84.1848 1.06015C85.3965 0.249206 86.6796 5.47526 87.3923 6.64662C88.6754 8.53881 91.0989 10.431 91.6691 12.9539C92.3819 15.7472 88.9605 19.1711 87.5349 17.8195Z" fill="white"/>
<path d="M102.361 2.32148C102.717 3.04232 102.218 3.58295 102.432 4.21368C102.504 4.5741 103.074 4.5741 103.145 4.84442C103.216 5.47515 102.789 5.38504 102.717 5.83557C102.646 6.37619 102.504 6.19598 102.646 6.82672C102.717 7.18713 103.288 6.5564 103.288 7.36734C103.288 7.63766 102.575 7.63766 102.504 8.08818C102.504 8.4486 103.074 8.89912 103.288 9.07933C103.074 9.43975 102.504 9.61996 102.361 9.89028C102.218 10.2507 102.504 10.8814 102.575 11.2418C101.577 11.5122 102.147 12.3231 102.717 12.8637C102.432 13.3142 101.933 13.4945 101.506 13.6747C101.506 14.1252 101.506 14.3955 101.719 14.7559C100.009 14.3054 101.791 17.0986 100.365 17.6393C98.9396 18.0898 96.6587 15.657 96.73 13.8549C96.6587 12.233 97.9417 11.3319 98.6545 10.4309C99.5098 9.34965 100.08 8.17829 100.436 6.64651C100.722 5.29494 100.935 3.94337 101.221 2.6819C101.648 2.32148 102.076 2.05117 102.361 2.32148Z" fill="white"/>
<path d="M25.5221 100.806C30.868 119.638 51.1113 124.503 63.015 112.429C67.7907 107.564 70.9983 100.806 71.4972 93.057C71.7111 89.8132 72.4238 85.6684 71.9249 82.4246C71.7111 81.0731 71.3547 80.6226 70.7131 80.4424C70.2855 80.3522 69.7152 80.4424 68.9312 80.5325C68.2896 80.6226 67.7194 80.7127 67.0779 80.8929C66.6502 80.983 66.2225 81.0731 65.7949 81.1632C65.2246 81.2533 64.6544 81.4335 64.0842 81.4335C63.2288 81.5236 62.4447 81.6137 61.5894 81.7038C59.5936 81.884 57.5265 82.0642 55.5306 82.0642C54.4615 82.0642 53.4635 82.1543 52.3944 82.1543C47.975 82.1543 43.5557 82.1543 39.1364 82.2444C37.7108 82.2444 36.3565 82.3345 34.9309 82.4246C33.2202 82.5148 31.4382 82.695 29.7275 82.8752C27.304 83.1455 24.5242 80.983 23.8114 84.9476C23.0273 89.8132 24.239 96.3909 25.5221 100.806Z" fill="#E96E62"/>
<path fill-rule="evenodd" clip-rule="evenodd" d="M65.4384 91.1649C66.2938 91.4352 67.2204 90.6242 67.363 89.3628C67.5055 88.1013 66.864 87.1101 65.9374 86.9299C65.0108 86.8398 64.2267 87.6508 64.0841 88.732C63.9416 89.9034 64.5118 90.8946 65.4384 91.1649Z" fill="#5A3453"/>
<path fill-rule="evenodd" clip-rule="evenodd" d="M63.3714 98.8238C64.1554 99.3645 65.2246 98.9139 65.581 97.6525C66.0087 96.4811 65.5097 95.2196 64.5831 94.8592C63.7277 94.4988 62.8011 95.1295 62.516 96.0306C62.3022 97.1118 62.5873 98.2832 63.3714 98.8238Z" fill="#5A3453"/>
<path fill-rule="evenodd" clip-rule="evenodd" d="M59.7362 105.311C60.3777 106.122 61.4469 106.032 62.0884 105.131C62.7299 104.14 62.5873 102.788 61.8745 102.068C61.0905 101.437 60.0926 101.617 59.5936 102.428C59.0234 103.149 59.0947 104.5 59.7362 105.311Z" fill="#5A3453"/>
<path fill-rule="evenodd" clip-rule="evenodd" d="M54.5328 109.997C54.7466 110.537 55.103 110.898 55.5307 111.078C55.9584 111.258 56.4573 111.168 56.885 110.808C57.8116 110.177 57.9542 108.735 57.384 107.834C56.8137 106.933 55.8871 106.753 55.1743 107.203C54.8179 107.474 54.6041 107.924 54.4615 108.465C54.3902 108.915 54.3902 109.456 54.5328 109.997Z" fill="#5A3453"/>
<path fill-rule="evenodd" clip-rule="evenodd" d="M48.4739 112.159C48.5452 113.331 49.4718 114.141 50.4697 113.871C51.4677 113.601 52.0379 112.43 51.7528 111.348C51.4677 110.267 50.6123 109.546 49.8282 109.817C48.9729 109.997 48.4026 110.988 48.4739 112.159Z" fill="#5A3453"/>
<path fill-rule="evenodd" clip-rule="evenodd" d="M42.1302 111.529C41.9877 112.069 42.059 112.7 42.3441 113.15C42.5579 113.601 42.9856 113.961 43.4846 114.052C43.6984 114.142 43.9836 114.142 44.1974 114.052C44.4112 113.961 44.6251 113.871 44.8389 113.691C45.1953 113.331 45.4092 112.88 45.4092 112.249C45.4092 111.709 45.2666 111.168 45.0528 110.718C44.9102 110.537 44.7676 110.357 44.6251 110.267C44.4825 110.087 44.2687 109.997 44.0548 109.997C43.6271 109.907 43.2707 110.087 42.9143 110.357C42.5579 110.537 42.2728 110.988 42.1302 111.529Z" fill="#5A3453"/>
<path fill-rule="evenodd" clip-rule="evenodd" d="M36.499 107.924C36.2139 108.375 36.0713 108.915 36.2139 109.456C36.2852 109.997 36.5703 110.627 36.998 110.898C37.9246 111.528 38.9225 111.258 39.3502 110.177C39.7066 109.186 39.4928 107.834 38.78 107.384C38.0672 106.843 37.0693 107.023 36.499 107.924Z" fill="#5A3453"/>
<path fill-rule="evenodd" clip-rule="evenodd" d="M32.5786 101.707C31.7233 102.248 31.4382 103.509 32.0084 104.681C32.2222 105.221 32.7212 105.582 33.1488 105.672C33.5765 105.762 34.0042 105.672 34.3606 105.311C34.717 104.951 34.9308 104.41 35.0021 103.96C35.0734 103.419 35.0021 102.969 34.7882 102.518C34.4319 101.527 33.3627 101.257 32.5786 101.707Z" fill="#5A3453"/>
<path fill-rule="evenodd" clip-rule="evenodd" d="M30.8682 93.9581C29.9416 94.1383 29.3713 95.3097 29.5852 96.481C29.6565 96.7514 29.7277 97.0217 29.8703 97.292C30.0128 97.5623 30.1554 97.7425 30.3692 97.8326C30.7256 98.1029 31.2246 98.193 31.6523 98.0128C32.08 97.8326 32.4363 97.4722 32.6502 97.0217C32.7215 96.8415 32.7927 96.5711 32.864 96.3008C32.9353 96.0305 32.9353 95.7602 32.864 95.4899C32.6502 94.4987 31.7236 93.7779 30.8682 93.9581Z" fill="#5A3453"/>
<path fill-rule="evenodd" clip-rule="evenodd" d="M30.0126 86.0289C29.086 86.119 28.4445 87.2003 28.587 88.3716C28.7296 89.543 29.5137 90.3539 30.4403 90.2638C31.367 90.0836 32.0085 89.0925 31.8659 87.9211C31.7234 86.7497 30.868 85.8487 30.0126 86.0289Z" fill="#5A3453"/>
<path d="M37.5683 99.094C40.6333 104.951 48.2602 106.843 53.1784 104.14C59.5223 100.626 61.3755 89.5429 61.6606 81.7939C59.6648 81.9742 57.5977 82.1544 55.6019 82.1544C54.5327 82.1544 53.5348 82.2445 52.4656 82.2445C48.0463 82.2445 43.627 82.2445 39.2077 82.3346C37.7821 82.3346 36.4278 82.4247 35.0022 82.5148C34.8597 88.5518 35.2874 94.8591 37.5683 99.094Z" fill="#5A3453"/>
<path d="M39.1363 83.1454C39.2076 90.534 42.9854 96.4809 47.476 96.3908C51.9666 96.3007 55.6019 90.1736 55.4593 82.785C55.4593 82.6048 55.4593 82.3345 55.4593 82.1543C54.3901 82.1543 53.3922 82.2444 52.323 82.2444C47.9037 82.2444 43.4844 82.2444 39.0651 82.3345C39.1363 82.6048 39.1363 82.8751 39.1363 83.1454Z" fill="#DFB84E"/>
<path d="M103.43 91.0746C103.502 94.5886 106.495 97.2918 106.495 97.2918C106.495 97.2918 109.418 94.4084 109.346 90.8944C109.275 87.3803 107.992 88.5516 106.353 90.624C104.998 88.6417 103.359 87.5605 103.43 91.0746Z" fill="#E96E62"/>
<path d="M106.109 83.3144L106.821 83.3235L106.736 93.0537L106.023 93.0446L106.109 83.3144Z" fill="#E96E62"/>
<path d="M95.1617 88.3714C95.2329 91.8855 98.2267 94.5887 98.2267 94.5887C98.2267 94.5887 101.149 91.7053 101.078 88.1912C101.007 84.6772 99.7235 85.8485 98.0841 87.9209C96.7298 85.9386 95.0904 84.8574 95.1617 88.3714Z" fill="#E96E62"/>
<path d="M97.8404 80.6112L98.5532 80.6204L98.4677 90.3506L97.7548 90.3415L97.8404 80.6112Z" fill="#E96E62"/>
<path d="M87.3208 84.0467C87.3921 87.5608 90.3858 90.2639 90.3858 90.2639C90.3858 90.2639 93.3083 87.3806 93.237 83.8665C93.1657 80.3524 91.8827 81.5238 90.2433 83.5962C88.9602 81.6139 87.3208 80.5327 87.3208 84.0467Z" fill="#E96E62"/>
<path d="M90.0714 76.2868L90.7842 76.2959L90.6986 86.0262L89.9858 86.0171L90.0714 76.2868Z" fill="#E96E62"/>
<path d="M108.134 81.5234C99.1532 81.7036 87.2496 74.5854 81.1909 65.575C80.5494 66.7463 80.1217 68.4583 79.6227 69.7198C86.6794 78.7302 98.0128 82.7849 107.35 85.2177C107.635 84.0464 108.277 81.8838 108.134 81.5234Z" fill="#5A3453"/>
</svg>
