<svg width="267" height="619" viewBox="0 0 267 619" fill="none" xmlns="http://www.w3.org/2000/svg">
<g id="Feuille-Gauche" clip-path="url(#clip0)">
<path id="Vector" d="M41.6798 40.644C41.8527 39.2604 25.0786 36.3202 4.15414 32.6882C-16.7703 29.0562 -37.1759 23.0028 -37.1759 23.0028C-37.1759 23.0028 -31.2963 21.9651 -7.43211 23.5217C16.4321 25.0782 41.3339 24.0405 40.4693 22.4839C39.6046 21.1003 8.47737 19.5437 -17.1161 16.7765C-42.7097 14.0092 -66.228 11.242 -66.228 11.242C-66.228 11.242 -64.3258 10.2042 -36.4842 10.8961C-8.64261 11.5879 35.6272 6.57223 35.4543 5.70746C35.2814 4.84269 -1.72545 2.94021 -39.9428 2.42135C-78.1601 1.72953 -109.114 7.26404 -109.979 6.05337C-110.671 5.1886 -95.9718 2.94021 -75.5662 0H-138.858C-140.588 2.42135 -141.798 4.15088 -141.798 4.15088L-150.617 0.864767H-162.722L-146.467 7.43699C-146.467 7.43699 -173.098 29.2291 -183.301 29.575C-185.549 29.748 -191.083 29.748 -198 29.748V31.6505C-189.872 31.8234 -183.993 31.9964 -182.609 31.8234C-177.076 31.1316 -163.068 21.6192 -163.068 21.6192C-163.068 21.6192 -177.076 32.8611 -198 49.1188V67.7977C-192.985 62.955 -188.489 58.4582 -185.203 54.4803C-167.046 32.8611 -157.708 24.0405 -157.708 24.0405C-157.708 24.0405 -176.211 47.3892 -191.256 68.6625C-193.331 71.6027 -195.579 74.7158 -198 78.002V89.9357C-197.827 89.7628 -197.654 89.5898 -197.481 89.2439C-182.609 70.392 -180.88 68.8354 -180.88 68.8354C-180.88 68.8354 -187.624 80.7692 -197.135 94.4325C-197.481 94.7784 -197.654 95.2973 -198 95.6432V107.577C-191.083 99.2752 -183.301 88.3792 -177.249 76.4454C-163.414 48.9458 -157.535 35.8013 -155.978 35.9743C-154.249 36.3202 -164.452 53.0967 -176.038 83.1906C-183.474 102.734 -192.639 130.926 -198 148.394V154.62C-191.775 141.995 -181.053 120.548 -177.94 113.111C-173.444 102.215 -167.046 87.1685 -167.046 87.1685C-167.046 87.1685 -174.655 116.916 -176.903 130.234C-179.151 143.378 -184.684 171.743 -183.474 171.916C-182.263 172.089 -169.64 132.655 -166.008 118.127C-162.377 103.599 -159.61 95.1243 -159.61 95.1243C-159.61 95.1243 -161.339 115.533 -164.106 139.746C-166.873 163.787 -165.662 176.931 -164.971 176.758C-164.279 176.758 -152.347 128.677 -149.407 97.1998C-146.467 65.5493 -144.046 38.3956 -142.836 39.2604C-141.625 40.1252 -145.775 71.4297 -143.527 109.479C-141.279 147.702 -137.821 184.368 -136.783 184.541C-135.746 184.714 -132.806 140.265 -134.881 112.42C-136.783 84.5742 -135.746 82.6717 -135.746 82.6717C-135.746 82.6717 -131.768 106.02 -127.791 131.445C-123.813 156.869 -120.874 188 -119.49 188.692C-117.934 189.557 -118.107 164.479 -120.701 140.784C-123.295 117.089 -122.43 111.036 -122.43 111.036C-122.43 111.036 -115.513 131.272 -110.844 152.026C-106.175 172.78 -102.543 189.211 -101.16 189.211C-99.7763 189.038 -103.235 147.01 -112.746 108.961C-122.257 70.9109 -133.843 37.3579 -132.287 37.185C-130.731 37.012 -118.798 70.0461 -99.9492 102.907C-81.0999 135.768 -61.9048 180.217 -60.5213 180.39C-59.1379 180.39 -81.4458 118.646 -94.7613 95.1243C-108.077 71.6027 -127.618 36.3202 -126.061 36.1473C-124.505 35.9743 -109.46 65.0305 -86.4607 98.0646C-63.2882 130.926 -38.9052 166.9 -38.0406 166.9C-37.3488 166.9 -45.8224 145.8 -57.2357 126.602C-68.8219 107.404 -81.2728 90.1087 -81.2728 90.1087L-82.1375 89.071C-75.912 94.6055 -58.7921 110.344 -48.7622 124.353C-36.3113 141.649 -30.0858 153.237 -28.0107 152.718C-25.9355 152.199 -30.0858 138.536 -45.1307 118.646C-60.1755 98.7564 -125.197 26.9807 -123.64 26.8078C-122.084 26.6348 -83.348 70.7379 -72.2805 79.9044C-61.2131 89.071 -14.8681 139.919 -14.8681 139.919C-14.8681 139.919 -40.2886 100.659 -59.6567 84.2283C-78.8518 67.6248 -101.16 45.6597 -101.16 45.6597C-101.16 45.6597 -77.4684 65.2034 -70.5512 70.0461C-63.6341 74.8888 6.22929 125.91 6.22929 125.91C6.22929 125.91 -34.4091 86.1308 -58.965 69.7002C-81.4458 54.4803 -117.242 25.4241 -121.911 21.6192C-117.934 24.9053 -91.8215 46.0056 -68.8219 59.15C-43.9202 73.5052 9.34201 106.539 10.3796 105.156C11.4172 103.945 -17.462 79.2126 -43.9202 65.2034C-70.3783 51.1942 -93.032 37.5309 -93.032 37.5309C-93.032 37.5309 -61.7319 54.1344 -42.3638 61.9173C-22.9957 69.7002 15.9133 87.1685 15.9133 86.4767C16.0862 85.7849 -22.9957 63.4739 -44.4389 54.4803C-65.8821 45.4867 -103.408 25.7701 -103.408 25.7701C-103.408 25.7701 -71.9347 40.2981 -49.108 46.6974C-26.2814 53.0967 29.2289 71.4297 29.2289 71.4297C29.2289 71.4297 -17.462 47.3892 -48.2434 37.7038C-61.0401 33.7259 -79.7165 26.9807 -96.8365 20.5814C-78.1601 24.5594 -56.371 29.2291 -39.2511 32.6882C-0.514938 40.644 41.5068 42.2006 41.6798 40.644Z" fill="url(#paint0_linear)"/>
<path id="Vector_2" d="M267 49.6376C263.714 41.1629 241.925 37.7039 241.925 37.7039C241.925 37.7039 173.099 95.2973 56.3723 150.815C-26.6336 190.249 -97.8804 213.77 -138 225.531V239.54L-116.557 231.757C-116.557 231.757 -102.204 289.351 -85.4295 295.404C-61.5653 304.052 -20.7541 287.448 -20.7541 287.448C-20.7541 287.448 -86.4671 248.188 -66.4073 234.352C-46.3476 220.516 -27.3254 285.373 -8.30316 283.471C10.719 281.568 33.1998 269.115 33.1998 269.115L-19.5436 189.211C-19.5436 189.211 35.6208 264.273 39.9441 264.446C44.4402 264.619 57.237 256.49 57.237 256.49C57.237 256.49 -6.7468 180.39 -5.5363 181.601C-4.49872 182.812 64.5 253.896 64.5 253.896L103.409 235.217C103.409 235.217 30.0871 174.856 40.4628 170.013C50.8386 164.998 101.853 231.066 107.905 231.757C113.958 232.449 138.687 214.116 138.687 214.116L84.7327 152.199C84.7327 152.199 139.205 206.333 147.506 205.642C155.807 205.123 167.22 194.054 167.22 194.054L115.687 144.243C115.687 144.243 167.047 185.406 173.272 184.887C179.498 184.368 196.618 164.825 196.618 164.825L146.295 122.105C146.295 122.105 196.445 150.124 210.452 145.108C224.459 140.092 233.971 123.489 233.971 123.489L204.573 109.998L237.256 117.435L244.346 103.945L190.047 91.4923C190.047 91.4923 235.008 97.0269 244.692 93.3948C254.203 89.7628 263.714 69.8732 263.714 69.8732L220.482 69.0084C220.655 69.3543 270.113 58.1124 267 49.6376Z" fill="url(#paint1_linear)"/>
<path id="Vector_3" d="M209.069 583.026C209.069 583.026 127.446 554.488 23.6887 484.961C-53.2647 433.421 -109.467 384.129 -138 357.149V373.925L-128.662 381.535C-128.662 381.535 -132.639 385.513 -138 391.393V479.6C-132.12 485.134 -127.624 488.42 -127.624 488.42C-127.624 488.42 -127.451 414.569 -106.181 424.255C-84.9108 433.94 -129.181 481.848 -118.286 496.722C-107.392 511.423 -85.9483 524.049 -85.9483 524.049L-45.6558 440.858C-45.6558 440.858 -80.7605 523.703 -78.6853 527.335C-76.6102 531.14 -63.4676 537.712 -63.4676 537.712C-63.4676 537.712 -31.8215 447.084 -32.3403 448.641C-32.8591 450.198 -57.588 542.382 -57.588 542.382L-22.8292 565.385C-22.8292 565.385 -8.99487 474.757 0.170364 480.983C9.50854 487.21 -20.2353 562.098 -17.8143 567.287C-15.3933 572.649 12.1025 584.064 12.1025 584.064L36.4855 509.002C36.4855 509.002 18.5009 580.777 23.1699 587.523C27.839 594.095 42.538 598.073 42.538 598.073L58.2746 530.794C58.2746 530.794 49.4552 593.749 52.9138 598.765C56.3723 603.78 81.1012 608.277 81.1012 608.277L91.6499 545.495C91.6499 545.495 93.2062 601.013 104.274 610.007C115.341 619.173 133.672 618.827 133.672 618.827L130.386 587.868L140.243 618.654L154.942 617.962L138.514 566.768C138.514 566.768 156.152 606.72 163.934 612.947C171.716 619.173 192.813 617.098 192.813 617.098L172.235 580.95C172.235 580.95 205.956 616.406 211.317 609.488C216.851 602.742 209.069 583.026 209.069 583.026Z" fill="url(#paint2_linear)"/>
<path id="Vector_4" d="M16.5986 143.551L-48.2498 169.148L14.6964 131.79L29.2225 70.0461C29.2225 70.0461 -21.2728 124.699 -25.0773 109.825C-31.4757 84.7471 26.8015 60.1878 26.8015 60.1878C26.8015 60.1878 31.9893 15.2199 18.5009 9.16653C4.83945 3.11316 -43.7536 43.7572 -43.7536 43.7572L-38.3928 94.6055L-49.1144 47.2163L-76.7831 71.6027C-76.7831 71.6027 -51.8813 158.771 -70.5576 161.711C-89.234 164.652 -83.1815 80.7692 -83.1815 80.7692L-121.918 141.303L-87.3318 223.456L-125.549 151.853L-129.354 176.931L-106.527 252.512L-138 184.887V272.401C-128.489 303.706 -111.542 319.099 -111.542 319.099C-111.542 319.099 -96.6699 319.618 -69.1742 301.112C-41.6785 282.606 -19.3706 250.436 -19.3706 250.436C-19.3706 250.436 -92.6926 302.149 -88.1964 267.732C-83.7003 233.314 -19.7165 233.487 -19.7165 233.487L14.1776 167.419L-67.0991 198.377L10.5461 159.29L16.5986 143.551Z" fill="url(#paint3_linear)"/>
<path id="Vector_5" d="M136.784 398.139L89.2289 417.164L131.942 393.988L100.988 374.098C100.988 374.098 23.8617 421.66 15.907 404.538C7.95226 387.416 90.2665 370.293 90.2665 370.293L21.6137 349.539L-48.0768 405.23L10.5462 348.847L-14.7015 352.133L-81.2792 394.68L-24.7314 345.907L-108.948 369.601C-122.782 378.422 -132.12 387.934 -138.173 395.198V422.871C-133.85 428.578 -127.451 435.497 -118.113 443.625C-92.8654 465.072 -55.6857 477.697 -55.6857 477.697C-55.6857 477.697 -125.376 421.141 -91.1361 416.126C-56.7232 411.11 -39.4303 472.854 -39.4303 472.854L33.3728 487.556L-18.333 417.855L40.4629 481.848L57.2371 483.405L14.8694 427.887L67.9586 478.389L131.251 475.622C131.251 475.622 64.8459 441.723 78.1615 434.113C100.642 421.141 140.07 470.433 140.07 470.433C140.07 470.433 184.859 463.342 186.934 448.641C189.009 433.94 136.784 398.139 136.784 398.139Z" fill="url(#paint4_linear)"/>
<path id="Vector_6" d="M110.499 128.504C110.499 128.504 113.958 107.231 104.101 84.2283C94.2438 61.2255 76.4321 59.323 76.4321 59.323C76.4321 59.323 55.6806 125.91 -26.1149 218.959C-73.3245 272.747 -117.076 301.977 -138 314.256V350.403L-120.534 389.145L-97.3617 376.001L-118.113 339.853L-87.6776 370.12L-52.7459 344.696L-70.7306 332.243L-47.3851 341.237L22.8241 284.508C22.8241 284.508 -66.5803 323.942 -66.5803 292.637C-66.5803 255.279 27.6661 277.59 27.6661 277.59L61.9061 237.638L12.4483 232.968L68.1315 227.952L83.0034 202.009L6.39583 224.839L89.2289 189.903L109.116 135.422C109.116 135.422 38.0419 191.286 38.3877 162.922C38.7336 134.731 110.499 128.504 110.499 128.504Z" fill="url(#paint5_linear)"/>
<g id="Group">
<path id="Vector_7" d="M137.822 216.192C137.822 216.192 168.085 209.966 171.543 205.469C175.002 200.972 169.987 182.466 166.355 180.391C162.724 178.315 113.439 234.179 5.01237 293.675C-43.2348 319.964 -95.1136 342.102 -138 358.533V381.881L-111.715 373.752C-111.715 373.752 -78.5124 416.472 -63.4676 421.488C-43.4078 428.06 17.1174 397.101 17.1174 397.101C17.1174 397.101 -71.5952 377.384 -53.2647 355.073C-31.4757 328.612 4.83945 392.431 24.5534 393.469C41.8463 394.334 76.778 355.765 76.778 355.765L14.3506 302.669C14.3506 302.669 82.6576 346.253 86.1161 345.388C89.5747 344.523 103.409 330.687 103.409 330.687L39.7711 287.968C39.7711 287.968 107.732 320.829 110.845 320.656C113.958 320.483 122.777 306.474 122.777 306.474L90.4394 291.945C90.4394 291.945 125.544 301.285 128.311 299.037C131.078 296.788 153.559 267.905 153.559 267.905C153.559 267.905 90.9581 267.905 95.2814 254.069C99.7775 239.541 152.867 267.213 155.461 263.581C158.055 259.949 175.002 216.711 175.002 216.711L137.822 216.192Z" fill="url(#paint6_linear)"/>
<path id="Vector_8" opacity="0.34" d="M-15.2202 411.629C2.24563 404.711 17.2905 397.101 17.2905 397.101C17.2905 397.101 9.33573 395.371 -1.38588 392.258C-5.88204 398.83 -10.5511 405.403 -15.2202 411.629Z" fill="url(#paint7_linear)"/>
<path id="Vector_9" opacity="0.34" d="M38.2149 326.017C27.6663 344.869 16.9446 363.548 5.3584 381.708C12.6214 388.28 19.1927 393.296 24.7265 393.469C42.0194 394.334 76.951 355.765 76.951 355.765L39.4254 323.942C39.0796 324.633 38.5608 325.325 38.2149 326.017Z" fill="url(#paint8_linear)"/>
<path id="Vector_10" opacity="0.34" d="M41.6733 319.791C61.2143 331.897 84.3868 345.907 86.2891 345.561C89.7476 344.696 103.582 330.86 103.582 330.86L53.7784 297.48C49.801 304.917 45.8236 312.354 41.6733 319.791Z" fill="url(#paint9_linear)"/>
<path id="Vector_11" opacity="0.34" d="M137.822 216.192C137.822 216.192 168.084 209.965 171.543 205.468C175.002 200.972 169.987 182.466 166.355 180.39C163.588 178.834 135.92 208.928 78.1613 248.707C76.6049 251.993 75.0486 255.279 73.4922 258.738C67.6126 271.018 61.3871 283.297 54.9888 295.404C75.2215 305.09 108.943 321.001 111.191 321.001C114.303 320.828 123.123 306.819 123.123 306.819L90.7851 292.291C90.7851 292.291 125.89 301.631 128.657 299.382C131.423 297.134 153.904 268.251 153.904 268.251C153.904 268.251 91.3039 268.251 95.6271 254.414C100.123 239.886 153.212 267.559 155.806 263.927C158.4 260.295 175.347 217.056 175.347 217.056L137.822 216.192Z" fill="url(#paint10_linear)"/>
</g>
</g>
<defs>
<linearGradient id="paint0_linear" x1="-192.498" y1="-1.01046" x2="29.3832" y2="167.094" gradientUnits="userSpaceOnUse">
<stop stop-color="#16232F"/>
<stop offset="1" stop-color="#2C8629"/>
</linearGradient>
<linearGradient id="paint1_linear" x1="-105.006" y1="332.119" x2="181.09" y2="12.3591" gradientUnits="userSpaceOnUse">
<stop offset="0.0306513" stop-color="#052B00"/>
<stop offset="1" stop-color="#007200"/>
</linearGradient>
<linearGradient id="paint2_linear" x1="-206.031" y1="439.435" x2="200.277" y2="518.698" gradientUnits="userSpaceOnUse">
<stop offset="0.0306513" stop-color="#052B00"/>
<stop offset="1" stop-color="#007200"/>
</linearGradient>
<linearGradient id="paint3_linear" x1="-164.269" y1="241.91" x2="71.3614" y2="87.4463" gradientUnits="userSpaceOnUse">
<stop stop-color="#053D00"/>
<stop offset="1" stop-color="#088B00"/>
</linearGradient>
<linearGradient id="paint4_linear" x1="-86.6161" y1="335.975" x2="126.025" y2="520.81" gradientUnits="userSpaceOnUse">
<stop stop-color="#007C00"/>
<stop offset="1" stop-color="#055100"/>
</linearGradient>
<linearGradient id="paint5_linear" x1="-165.756" y1="289.231" x2="135.221" y2="153.049" gradientUnits="userSpaceOnUse">
<stop stop-color="#056100"/>
<stop offset="1" stop-color="#29C200"/>
</linearGradient>
<linearGradient id="paint6_linear" x1="-233.068" y1="273.196" x2="166.79" y2="312.448" gradientUnits="userSpaceOnUse">
<stop offset="0.0306513" stop-color="#052B00"/>
<stop offset="1" stop-color="#007200"/>
</linearGradient>
<linearGradient id="paint7_linear" x1="-243.447" y1="378.917" x2="156.409" y2="418.169" gradientUnits="userSpaceOnUse">
<stop offset="0.0306513" stop-color="#053200"/>
<stop offset="1" stop-color="#37DE00"/>
</linearGradient>
<linearGradient id="paint8_linear" x1="-238.858" y1="332.161" x2="160.998" y2="371.413" gradientUnits="userSpaceOnUse">
<stop offset="0.0306513" stop-color="#053200"/>
<stop offset="1" stop-color="#37DE00"/>
</linearGradient>
<linearGradient id="paint9_linear" x1="-234.869" y1="291.578" x2="164.982" y2="330.829" gradientUnits="userSpaceOnUse">
<stop offset="0.0306513" stop-color="#053200"/>
<stop offset="1" stop-color="#37DE00"/>
</linearGradient>
<linearGradient id="paint10_linear" x1="-227.322" y1="214.648" x2="172.537" y2="253.9" gradientUnits="userSpaceOnUse">
<stop offset="0.0306513" stop-color="#053200"/>
<stop offset="1" stop-color="#37DE00"/>
</linearGradient>
<clipPath id="clip0">
<rect width="405" height="619" fill="white" transform="translate(-138)"/>
</clipPath>
</defs>
</svg>
