<svg width="1440" height="548" viewBox="0 0 1440 548" fill="none" xmlns="http://www.w3.org/2000/svg">
<g id="Group 187">
<path id="Vector" d="M351.792 362.887H331.2V371.773H330.048L308.16 373.36V376.217C305.856 376.217 295.488 359.078 296.928 352.572C298.368 346.224 270.576 306.075 256.176 309.09C241.776 312.105 172.656 261.165 172.656 261.165C172.656 261.165 139.104 210.86 113.184 200.703C87.264 190.547 72.864 174.361 72.864 174.361C72.864 174.361 36.288 197.212 23.472 212.447C11.808 226.412 1.584 230.379 0 230.855V86.1279L28.512 74.7021L33.264 70.2587L43.776 63.911L57.168 44.868C57.168 44.868 63.936 31.0618 71.568 44.868C79.2 58.6742 109.008 85.0171 109.008 85.0171L121.536 83.9062L138.816 109.297C138.816 109.297 195.408 168.33 198.288 183.406C201.168 198.482 253.008 269.1 265.248 269.893C277.488 270.687 302.4 307.979 307.872 316.707C313.632 325.435 347.616 362.887 351.792 362.887Z" fill="#89ADBE"/>
<path id="Vector_2" d="M308.16 376.217V389.705L283.392 408.114C259.632 425.252 260.208 437.948 260.208 437.948C253.152 440.646 224.352 462.704 224.352 462.704H210.816V470.004L161.136 472.86V477.621L146.16 483.968H136.224L132.048 485.555V488.729L127.008 490.157V519.992H88.128L85.248 527.45L72.72 538.082L58.032 540.939L24.624 547.604H0V230.855C1.584 230.22 11.808 226.253 23.472 212.447C36.144 197.212 72.72 174.519 72.72 174.519C72.72 174.519 87.12 190.706 113.04 200.862C138.96 211.018 172.512 261.324 172.512 261.324C172.512 261.324 241.632 312.264 256.032 309.249C270.432 306.234 298.224 346.383 296.784 352.73C295.488 359.078 305.856 376.217 308.16 376.217Z" fill="#6B838E"/>
<path id="Vector_3" d="M404.928 313.692L387.216 343.05L368.784 346.224V364.315L364.464 365.108V361.934L354.528 362.886H351.792C347.616 362.886 313.632 325.435 308.016 316.707C302.4 307.979 277.632 270.687 265.392 269.893C253.152 269.1 201.312 198.482 198.432 183.406C195.552 168.33 138.96 109.297 138.96 109.297L172.512 123.103C172.512 123.103 228.528 163.57 238.32 176.265C248.112 188.96 270.72 205.623 270.72 205.623C270.72 205.623 309.312 218.318 311.472 224.19C312.48 226.888 329.76 243.233 349.2 261.165C373.68 284.017 401.472 309.249 404.928 313.692Z" fill="#7A97A0"/>
<path id="Vector_4" d="M491.76 140.876C488.736 142.622 478.224 148.652 474.912 148.97C470.88 149.287 469.44 152.143 468.432 152.143C467.424 152.143 447.984 171.504 440.784 179.121C433.584 186.738 416.592 202.449 409.392 205.305C402.192 208.162 392.112 216.096 387.36 220.381C382.752 224.824 373.248 235.457 371.52 242.122C369.792 248.945 349.056 261.323 349.056 261.323C329.76 243.233 312.48 226.887 311.472 224.348C309.312 218.318 270.72 205.781 270.72 205.781C270.72 205.781 248.112 189.119 238.32 176.423C228.528 163.728 172.512 123.262 172.512 123.262L193.68 115.803L206.208 111.518L223.488 130.561L237.888 125.324L250.416 113.74L257.184 124.372L275.472 135.005L301.392 118.025L308.16 131.831C308.16 131.831 324.432 146.589 330.192 159.285C335.952 171.98 339.84 164.521 339.84 164.521C339.84 164.521 350.352 158.174 353.232 164.521C356.112 170.869 377.28 181.501 377.28 181.501L398.448 171.98L406.08 176.265L413.712 167.854L420.48 169.917L434.88 148.811L457.92 141.352H464.688L479.088 135.005L491.616 141.352L491.76 140.876Z" fill="#A1BDCB"/>
<path id="Vector_5" d="M758.16 126.277C758.16 126.277 745.344 148.97 743.472 152.144C741.744 155.318 735.84 158.491 731.952 158.491C727.92 158.491 718.56 167.695 713.52 169.6C707.184 165.156 698.688 157.222 692.352 144.209C682.272 123.579 673.632 130.403 673.632 130.403C673.632 130.403 642.24 154.207 635.904 160.554C629.568 166.902 612.72 164.204 612.72 164.204L597.168 169.441C597.168 169.441 594.576 171.345 590.544 174.361C578.592 183.247 553.968 201.814 550.368 206.575C545.616 212.923 497.232 255.293 487.584 258.943C477.936 262.593 461.236 342.023 458.5 343.768H423H387.504L404.784 313.533C401.472 309.09 373.536 283.699 349.2 261.006C349.2 261.006 369.792 248.628 371.664 241.805C373.392 235.14 382.896 224.348 387.504 220.064C392.256 215.62 402.336 207.686 409.536 204.988C416.736 202.132 433.728 186.262 440.928 178.804C448.128 171.345 467.568 151.826 468.576 151.826C469.584 151.826 471.168 148.97 475.056 148.652C475.344 148.652 475.776 148.494 476.208 148.494C476.352 148.494 476.496 148.494 476.496 148.335C476.64 148.335 476.64 148.335 476.784 148.335C477.072 148.335 477.216 148.176 477.504 148.018C477.792 147.859 478.224 147.7 478.512 147.542C478.8 147.383 478.944 147.383 479.232 147.224C479.664 147.066 480.096 146.907 480.384 146.748H480.528C480.816 146.589 481.248 146.431 481.68 146.272C481.824 146.272 481.968 146.113 481.968 146.113C482.256 145.955 482.4 145.955 482.544 145.796C483.264 145.479 483.984 145.003 484.704 144.685C484.992 144.526 485.28 144.368 485.568 144.209C486.576 143.733 487.584 143.098 488.448 142.622C488.592 142.622 488.736 142.463 488.88 142.305C489.168 142.146 489.456 141.987 489.744 141.829C489.744 141.829 489.888 141.829 489.888 141.67C490.176 141.511 490.464 141.353 490.752 141.194C491.04 141.035 491.328 140.877 491.472 140.718C491.616 140.718 491.76 140.559 491.76 140.559C491.904 140.559 491.904 140.4 492.048 140.4C492.48 140.242 492.624 140.083 492.624 140.083L508.464 131.355L522.864 139.766L534.384 128.181L539.136 132.466L550.656 126.118L563.184 136.751V126.118L568.944 128.181L577.584 127.07L585.216 118.66L593.856 122.944L603.504 136.751H625.536L631.296 129.292H638.928L652.32 111.36L665.712 109.297L676.224 111.36L682.992 110.249L693.504 120.881L698.256 131.514L709.776 132.625L724.176 123.103L730.944 116.755L740.592 123.103L758.16 126.277Z" fill="#6B838E"/>
<path id="Vector_6" d="M888.336 153.254C882.576 160.078 874.944 165.474 873.504 164.839C872.064 164.363 868.896 158.491 868.896 158.491C868.896 158.491 865.44 158.967 865.872 172.297C866.304 185.469 851.904 205.623 849.744 209.907C847.584 214.192 831.744 238.948 831.744 238.948C831.744 238.948 822.528 240.059 821.664 238.948C820.8 237.837 814.464 239.424 814.464 239.424H796.752C796.752 239.424 794.304 244.185 790.416 248.946C790.416 248.946 764.208 231.013 760.608 221.492C757.152 211.97 726.192 174.995 722.16 173.884C720.72 173.567 717.552 172.139 713.808 169.6C718.848 167.695 728.208 158.491 732.24 158.491C736.128 158.491 741.888 155.317 743.76 152.143C745.632 148.97 758.448 126.277 758.448 126.277C758.448 126.277 784.368 101.997 789.12 105.171L796.752 97.7122L841.824 118.818L853.344 117.707L875.376 125.166L890.784 134.687C890.64 134.846 894.096 146.431 888.336 153.254Z" fill="#A1BDCB"/>
<path id="Vector_7" d="M930.816 164.839C927.216 174.678 910.944 248.47 908.208 255.611C905.616 262.752 893.664 301.631 891.072 300.838C891.072 300.838 900.576 265.926 899.856 253.23C899.136 240.535 912.672 163.252 924.912 147.859C935.568 134.529 961.488 106.123 969.264 82.1606C970.416 76.289 971.424 72.163 971.568 71.5282C971.28 74.8608 970.56 78.5107 969.264 82.1606C967.248 92.9517 964.512 109.138 965.376 118.184C965.376 118.342 934.416 154.841 930.816 164.839ZM975.744 255.611C971.712 284.175 971.568 313.692 971.568 313.692C971.568 313.692 961.92 272.115 973.008 230.855C973.008 230.855 980.352 219.429 988.56 153.255C988.56 153.255 990.144 203.719 993.888 206.575C997.776 209.59 979.776 227.046 975.744 255.611ZM1244.02 338.765C1244.02 338.765 1224.29 332.1 1214.78 326.229C1205.14 320.357 1187.86 308.773 1183.82 309.883C1179.79 310.994 1168.42 304.964 1167.26 300.838C1164.96 304.647 1163.09 307.503 1162.51 307.662C1161.07 308.138 1140.91 323.055 1137.6 317.818C1134.29 312.423 1125.65 310.36 1125.65 310.36L1121.04 323.531L1100.16 321.785C1100.16 321.785 1092.24 334.322 1084.61 343.209C1082.45 339.241 1060.99 298.775 1056.38 297.823C1051.49 296.712 1047.89 276.717 1046.02 268.147C1044.14 259.578 1036.94 233.87 1035.22 229.109C1033.63 224.349 1026.29 188.484 1026.29 188.484C1026.29 188.484 1019.52 187.849 1016.64 184.676C1013.76 181.502 1015.63 162.935 1010.59 161.348C1005.55 159.761 1002.67 126.436 1002.67 126.436V106.758L998.064 94.5386C998.064 94.5386 995.904 73.4325 991.872 72.3217C987.84 71.2109 985.824 51.2157 985.824 51.2157C985.824 51.2157 986.832 24.2381 983.952 23.762C981.072 23.2859 969.696 12.1775 969.696 12.1775C962.208 18.6839 952.272 23.9207 952.272 23.9207L943.632 38.9964L934.992 65.1806L921.6 90.5713L915.84 113.899C911.088 138.179 890.928 135.005 890.928 135.005C890.928 135.005 894.24 146.59 888.48 153.572C882.72 160.396 875.088 165.791 873.648 165.156C872.208 164.68 869.04 158.809 869.04 158.809C869.04 158.809 865.584 159.285 866.016 172.615C866.448 185.786 852.048 205.94 849.888 210.225C847.728 214.51 831.888 239.266 831.888 239.266C831.888 239.266 822.672 240.376 821.808 239.266C820.944 238.155 814.608 239.742 814.608 239.742H796.896C796.896 239.742 794.448 244.502 790.56 249.263C788.112 252.437 784.944 255.611 781.632 257.674C772.992 262.911 780.192 269.893 770.112 274.654C760.032 279.415 752.544 283.699 752.544 283.699C752.544 283.699 738.432 284.81 735.552 283.699C732.672 282.588 716.832 279.891 714.384 284.175C712.8 287.032 706.32 287.032 700.272 287.667C697.104 287.984 693.936 288.46 691.776 289.571C685.584 292.745 672.48 300.679 672.048 300.679C671.616 300.679 651.312 299.41 647.568 314.009L653.184 329.561L691.056 330.513L712 314.009L710.496 295.601L715.104 294.014L719.568 294.808L722.16 291.475L732.096 291.316V309.09L737.424 306.234L746.928 303.694L753.264 305.123L762.048 327.34L780.192 326.546L788.256 309.09L796.176 308.297H800.928L809.568 327.657L815.328 311.946L821.952 311.312L825.552 312.105L829.584 310.201L836.352 309.725H840.816L846.864 325.277L851.616 313.375L857.52 313.057L861.12 312.899L873.36 339.4L874.512 341.781L874.656 342.098H878.544V341.939L879.264 339.083L884.88 317.977L891.504 317.501L894.672 317.183L906.336 341.304L906.624 341.939L908.64 338.924L915.12 339.083H915.552L924.768 339.4L925.2 338.448L933.408 321.151L936.576 320.833L941.616 320.357L952.992 344.002L954.576 346.541H964.08L974.88 323.055L978.048 323.214L981.504 323.372L990.144 338.448L996.336 321.785L1001.95 321.468L1005.84 321.151L1016.64 343.685L1024.42 323.848L1029.46 323.531L1032.77 323.214L1046.02 347.811L1065.31 348.128L1066.18 350.985L1123.78 350.509L1143.07 350.985C1143.07 350.985 1152.58 353.365 1153.3 353.365C1154.02 353.365 1158.48 352.73 1158.48 352.73L1164.24 353.524L1173.74 353.048L1180.37 351.461C1180.37 351.461 1184.26 351.619 1184.83 351.937C1185.41 352.095 1190.74 352.254 1191.31 353.682C1191.89 355.111 1193.04 356.698 1193.9 356.856C1194.62 357.015 1199.95 355.904 1199.95 355.904L1203.26 354.158L1211.04 354.317C1211.04 354.317 1215.22 355.111 1215.36 355.745C1215.5 356.38 1216.8 359.713 1216.8 359.713L1222.42 362.887L1223.28 366.06L1229.9 369.234C1229.9 369.234 1234.8 363.68 1235.38 363.68C1235.95 363.68 1242.43 361.458 1242.58 362.887C1242.72 364.315 1251.65 361.458 1251.65 361.458C1254.38 360.665 1258.85 357.174 1261.44 353.206L1244.02 338.765Z" fill="#56532E"/>
<path id="Vector_8" d="M1165.68 278.621L1147.97 262.276C1147.97 262.276 1144.66 237.361 1139.76 227.84C1135.01 218.318 1128.24 204.036 1120.75 200.386C1113.26 196.736 1111.39 179.756 1108.94 175.471C1106.5 171.187 1087.78 127.388 1084.46 117.866C1081.15 108.345 1069.63 107.234 1058.83 103.743C1048.03 100.251 1040.4 75.178 1040.83 73.5911C1041.26 72.0042 1037.66 58.8328 1040.83 55.8176C1044 52.6438 1045.87 39.4724 1046.59 32.1725C1046.88 28.6813 1048.61 28.5226 1050.34 29.1574L1043.28 23.7619L1017.36 6.78184L1001.09 4.71884C1001.09 4.71884 981.936 -4.80267 976.176 4.71884C974.592 7.25791 972.288 9.79698 969.552 12.0187C969.552 12.0187 980.928 23.1271 983.808 23.6032C986.688 24.0793 985.68 51.0569 985.68 51.0569C985.68 51.0569 987.552 71.2107 991.728 72.1629C995.76 73.2737 997.92 94.3798 997.92 94.3798L1002.53 106.599V126.118C1002.53 126.118 1005.41 159.443 1010.45 161.03C1015.49 162.617 1013.62 181.184 1016.5 184.358C1019.38 187.532 1026.14 188.167 1026.14 188.167C1026.14 188.167 1033.34 224.031 1035.07 228.792C1036.66 233.553 1043.86 259.261 1045.87 267.83C1047.74 276.399 1051.34 296.553 1056.24 297.505C1060.85 298.457 1082.45 338.924 1084.46 342.891C1091.95 334.004 1100.02 321.468 1100.02 321.468L1120.9 323.213L1125.5 310.042C1125.5 310.042 1134.14 312.105 1137.46 317.501C1140.77 322.737 1160.93 307.979 1162.37 307.344C1162.94 307.186 1164.82 304.17 1167.12 300.521C1166.11 297.347 1165.68 278.621 1165.68 278.621ZM1056.1 257.991C1056.67 246.089 1041.7 211.177 1039.54 199.275C1037.52 188.643 1031.33 148.494 1027.01 128.975C1030.9 136.433 1041.98 157.38 1045.58 164.839C1050.19 173.884 1069.63 219.588 1069.63 219.588C1069.63 219.588 1076.11 248.152 1075.39 262.276C1074.67 276.241 1075.39 295.284 1075.39 295.284C1075.39 295.284 1055.52 269.893 1056.1 257.991Z" fill="#757141"/>
<path id="Vector_9" d="M1056.1 257.991C1056.67 246.089 1041.7 211.177 1039.54 199.275C1037.52 188.643 1031.33 148.493 1027.01 128.974C1030.9 136.433 1041.98 157.38 1045.58 164.839C1050.19 173.884 1069.63 219.587 1069.63 219.587C1069.63 219.587 1076.11 248.152 1075.39 262.276C1074.67 276.24 1075.39 295.283 1075.39 295.283C1075.39 295.283 1055.52 269.893 1056.1 257.991Z" fill="#56532E"/>
<path id="Vector_10" d="M1189.73 274.971C1184.54 277.827 1179.36 281.16 1176.77 284.969C1174.46 288.46 1170.43 295.442 1167.12 300.838C1166.11 297.188 1165.68 278.621 1165.68 278.621L1147.97 262.276C1147.97 262.276 1144.66 237.361 1139.76 227.84C1135.01 218.318 1128.24 204.036 1120.75 200.386C1113.26 196.736 1111.39 179.756 1108.94 175.471C1106.5 171.187 1087.78 127.388 1084.46 117.866C1081.15 108.345 1069.63 107.234 1058.83 103.743C1048.03 100.251 1040.4 75.178 1040.83 73.5911C1041.26 72.0041 1037.66 58.8327 1040.83 55.8176C1044 52.6437 1045.87 39.4723 1046.59 32.1725C1046.88 28.6813 1048.61 28.5226 1050.34 29.1573L1054.08 32.0138C1054.08 32.0138 1054.08 32.0138 1054.22 32.0138L1055.81 33.1246L1066.32 46.9308L1069.78 48.2004C1069.78 48.2004 1074.96 77.8757 1084.61 88.1907C1094.26 98.5057 1118.02 141.352 1120.9 154.048C1123.78 166.743 1152.29 224.19 1152.29 224.19L1161.94 238.948C1161.94 238.948 1188 275.923 1189.73 274.971Z" fill="#56532E"/>
<path id="Vector_11" d="M1221.41 267.989C1220.11 268.941 1218.96 269.734 1218.1 269.734C1215.22 269.734 1204.13 267.037 1197.65 270.845C1195.34 272.115 1192.61 273.543 1189.73 275.13C1188 276.082 1161.79 239.107 1161.79 239.107L1152.14 224.348C1152.14 224.348 1123.63 166.902 1120.75 154.207C1117.87 141.511 1094.11 98.6645 1084.46 88.3495C1074.82 78.0345 1069.63 48.3591 1069.63 48.3591L1083.46 53.4373L1091.09 59.7849L1101.6 74.8607H1108.37L1115.14 90.4125L1123.78 113.74L1134.29 127.546L1145.81 145.479L1155.6 161.03C1155.6 161.03 1157.76 168.965 1159.92 175.313C1162.08 181.66 1179.22 196.26 1179.22 196.26C1179.65 200.069 1184.26 209.273 1190.45 219.746C1203.12 241.011 1221.41 267.989 1221.41 267.989Z" fill="#757141"/>
<path id="Vector_12" d="M1248.77 157.063C1248.77 157.063 1232.5 176.106 1227.17 180.867C1221.84 185.627 1195.49 217.842 1190.74 219.746C1184.54 209.272 1179.94 200.068 1179.5 196.26C1179.5 196.26 1162.37 181.66 1160.21 175.312C1158.05 168.965 1155.89 161.03 1155.89 161.03L1146.1 145.478L1171.01 144.367L1197.94 136.909L1211.33 144.367L1223.86 148.652L1234.37 151.826L1248.77 157.063Z" fill="#6B838E"/>
<path id="Vector_13" d="M1440 221.492V265.926C1440 265.926 1433.52 266.402 1433.52 272.749C1433.52 279.097 1426.32 295.442 1426.32 295.442C1426.32 295.442 1416.67 298.14 1416.67 299.727C1416.67 301.314 1412.78 300.203 1410.48 307.186C1410.05 308.455 1409.04 309.407 1407.74 309.883C1402.56 312.105 1392.34 309.407 1390.75 314.485C1388.88 320.833 1373.47 316.072 1373.04 314.485C1372.61 312.898 1357.63 290.047 1355.76 286.873C1353.89 283.699 1349.71 281.16 1346.11 281.16C1342.37 281.16 1337.62 272.115 1337.62 272.115C1337.62 272.115 1333.3 277.351 1331.86 281.16C1330.42 284.81 1322.21 281.16 1320.34 282.271C1318.46 283.382 1317.02 287.666 1316.02 291.792C1315.01 296.077 1300.61 304.964 1300.61 304.964L1288.22 291.792C1288.22 291.792 1286.93 290.047 1282.9 287.032C1278.86 283.858 1275.55 273.384 1275.55 273.384L1271.23 269.099C1271.23 269.099 1270.8 267.036 1265.47 269.099C1260.14 271.162 1256.83 267.989 1252.94 267.989C1249.06 267.989 1240.99 265.926 1240.99 265.926L1237.1 270.21L1227.02 262.276C1227.02 262.276 1224 265.767 1221.26 267.989C1221.26 267.989 1202.98 241.011 1190.45 219.588C1195.2 217.683 1221.7 185.469 1226.88 180.708C1232.21 175.947 1248.48 156.904 1248.48 156.904L1271.52 144.209L1279.15 152.62L1292.54 161.03L1311.7 178.963C1311.7 178.963 1376.93 188.484 1390.46 205.464C1390.9 205.623 1422 219.429 1440 221.492Z" fill="#A1BDCB"/>
<path id="Vector_14" d="M1440 265.926V422.078L1414.8 421.126L1402.56 414.779L1382.11 418.587L1373.62 410.018L1347.12 411.446L1344.82 408.431C1350.14 399.544 1361.66 372.884 1364.83 370.186C1368 367.488 1378.94 347.969 1378.94 347.969C1378.94 347.969 1390.9 343.208 1398.1 337.972C1405.3 332.735 1407.89 310.042 1407.89 310.042C1409.18 309.407 1410.19 308.614 1410.62 307.344C1413.07 300.52 1416.82 301.473 1416.82 299.886C1416.82 298.299 1426.46 295.601 1426.46 295.601C1426.46 295.601 1433.66 279.256 1433.66 272.908C1433.66 266.56 1440 265.926 1440 265.926Z" fill="#5E5827"/>
<path id="Vector_15" d="M1373.04 314.644C1373.04 314.644 1346.69 344.32 1343.81 347.969C1340.93 351.619 1332.29 360.665 1326.96 361.934C1321.63 363.204 1308.24 366.378 1308.24 366.378C1308.24 366.378 1306.37 383.358 1300.61 387.008C1294.85 390.658 1276.13 400.973 1276.13 400.973L1270.8 397.64L1268.35 389.864L1234.11 394.462V387.008L1232.5 372.884L1235.5 361.934C1238.24 361.141 1258.85 357.491 1261.44 353.524C1262.45 351.937 1263.17 350.35 1263.31 348.763C1263.74 343.526 1266.62 334.005 1273.82 331.783C1281.02 329.72 1300.75 304.805 1300.75 304.805C1300.75 304.805 1315.15 295.76 1316.16 291.634C1317.17 287.508 1318.61 283.223 1320.48 282.112C1322.35 281.001 1330.56 284.81 1332 281.001C1333.44 277.352 1337.76 271.956 1337.76 271.956C1337.76 271.956 1342.51 281.001 1346.26 281.001C1350 281.001 1354.03 283.699 1355.9 286.714C1357.78 290.206 1372.61 313.057 1373.04 314.644Z" fill="#5E5827"/>
<path id="Vector_16" d="M1407.74 310.042C1407.74 310.042 1405.15 332.735 1397.95 337.972C1390.75 343.209 1378.8 347.969 1378.8 347.969C1378.8 347.969 1367.86 367.488 1364.69 370.186C1361.52 372.884 1350 399.544 1344.67 408.431L1288.08 409.859L1280.16 403.988L1275.84 401.29C1275.84 401.29 1294.56 390.975 1300.32 387.325C1306.08 383.675 1307.95 366.695 1307.95 366.695C1307.95 366.695 1321.34 363.521 1326.67 362.252C1332 360.982 1340.64 351.937 1343.52 348.287C1346.4 344.637 1372.75 314.961 1372.75 314.961C1373.18 316.548 1388.59 321.309 1390.46 314.961C1392.34 309.566 1402.56 312.264 1407.74 310.042Z" fill="#757141"/>
<path id="Vector_17" d="M1300.61 305.123C1300.61 305.123 1280.88 330.037 1273.68 332.1C1266.48 334.163 1263.6 343.685 1263.17 349.08C1263.02 350.667 1262.3 352.254 1261.3 353.841L1244.02 338.765C1244.02 338.765 1224.29 332.1 1214.78 326.229C1205.14 320.357 1187.86 308.773 1183.82 309.883C1179.79 310.994 1168.42 304.964 1167.26 300.838C1170.58 295.443 1174.61 288.46 1176.91 284.969C1179.36 281.16 1184.69 277.828 1189.87 274.971C1192.61 273.384 1195.49 271.956 1197.79 270.687C1204.27 267.037 1215.36 269.576 1218.24 269.576C1219.1 269.576 1220.4 268.782 1221.55 267.83C1224.29 265.608 1227.31 262.117 1227.31 262.117L1237.39 270.052L1241.28 265.767C1241.28 265.767 1249.49 267.83 1253.23 267.83C1257.12 267.83 1260.43 271.004 1265.76 268.941C1271.09 266.878 1271.52 268.941 1271.52 268.941L1275.84 273.226C1275.84 273.226 1279.15 283.858 1283.18 286.873C1287.07 290.047 1288.51 291.634 1288.51 291.634L1300.61 305.123Z" fill="#757141"/>
<path id="Vector_18" d="M699.984 287.349C696.816 287.667 693.648 288.143 691.488 289.254C685.296 292.427 672.192 300.362 671.76 300.362C671.328 300.362 651.024 299.092 647.28 313.692L638.64 289.254L635.904 289.095L628.272 288.777L622.656 295.919L619.488 296.712L615.312 304.488L607.248 304.805L593.712 339.4L584.496 339.241L580.896 329.561H555.84L545.616 309.09H533.952L528.336 324.642L508 329.561L486 334.952L462.672 342.415L462.384 342.733L457.776 342.891L434.304 295.284C436.896 293.38 477.792 262.752 487.44 259.102C497.088 255.452 545.472 213.081 550.224 206.734C553.824 201.973 578.448 183.406 590.4 174.519C598.032 179.439 637.056 219.429 641.808 224.349C646.56 229.268 653.328 246.407 660.96 253.389C668.88 260.213 699.984 287.349 699.984 287.349Z" fill="#8DAEBB"/>
<path id="Vector_19" d="M790.128 249.104C787.68 252.278 784.512 255.452 781.2 257.515C772.56 262.752 779.76 269.734 769.68 274.495C759.6 279.256 752.112 283.54 752.112 283.54C752.112 283.54 738 284.651 735.12 283.54C732.24 282.429 716.4 279.732 713.952 284.016C712.368 286.873 705.888 286.873 699.84 287.507C699.84 287.507 668.736 260.212 661.104 253.389C653.472 246.565 646.704 229.268 641.952 224.348C637.2 219.429 598.032 179.438 590.544 174.519C594.576 171.504 597.168 169.599 597.168 169.599L612.72 164.363C612.72 164.363 629.568 167.06 635.904 160.713C642.24 154.365 673.632 130.561 673.632 130.561C673.632 130.561 682.272 123.737 692.352 144.367C698.688 157.38 707.184 165.315 713.52 169.758C717.264 172.297 720.288 173.725 721.872 174.043C725.904 175.154 756.864 212.129 760.32 221.65C763.92 231.013 790.128 249.104 790.128 249.104Z" fill="#7A97A0"/>
<path id="Vector_20" d="M965.376 118.342C965.376 118.342 934.272 154.841 930.672 164.839C927.072 174.678 910.8 248.469 908.064 255.611C905.472 262.752 893.52 301.631 890.928 300.838C890.928 300.838 900.432 265.926 899.712 253.23C898.992 240.535 912.528 163.252 924.768 147.859C935.424 134.529 961.344 106.123 969.12 82.1604C967.248 93.1101 964.512 109.455 965.376 118.342Z" fill="#423F24"/>
<path id="Vector_21" d="M975.744 255.611C971.712 284.175 971.568 313.692 971.568 313.692C971.568 313.692 961.92 272.115 973.008 230.855C973.008 230.855 980.352 219.429 988.56 153.254C988.56 153.254 990.144 203.718 993.888 206.575C997.776 209.59 979.776 227.046 975.744 255.611Z" fill="#423F24"/>
</g>
</svg>
