<svg width="47" height="32" viewBox="0 0 47 32" fill="none" xmlns="http://www.w3.org/2000/svg">
<g id="Fleur Rose">
<g id="Group">
<path id="Vector" d="M46.1 16.199C44.8 17.8521 43.5 19.5051 42.3 20.9377C37.2 27.2193 32.7 31.0764 24.5 26.5581C23.6 26.0071 22.8 25.3458 22.1 24.6846C22 24.905 21.9 25.1254 21.7 25.3459C18.6 30.7458 12.8 32.7294 4.80001 29.9743C5.80001 29.3131 7.1 28.7621 8.49999 28.4315C11.1 27.7703 14.2 27.4397 16.3 27.6601C12.7 26.7785 8.10001 27.6601 4.30002 26.4479C3.40002 26.2275 2.50001 25.7867 1.70001 25.2356C2.70001 24.4642 4.49999 24.0234 6.39999 23.803C8.49999 23.5826 10.8 23.5826 12.5 24.0234C9.49999 23.0316 6.10001 22.3704 3.30002 20.7173C2.10002 20.0561 0.899999 19.1745 0 17.9623C1.3 17.301 3.00002 17.1908 4.80001 17.301C8.60001 17.6316 12.9 19.1745 15.6 20.4969C12.1 18.6235 8.7 16.7501 6.1 13.8848C4.9 12.5624 3.9 11.0195 3 9.25626C4.8 9.47666 6.59999 10.2481 8.39999 11.1297C11.1 12.4521 13.8 14.3256 16.3 15.8684C14.6 14.4358 13.5 12.3419 12.6 10.0277C11.6 7.49303 11 4.62774 10.2 2.09308C11.9 3.08491 13.4 3.85632 14.9 4.73794C16.3 5.50936 17.5 6.39099 18.6 7.16241C18.9 6.39099 19.2 5.50936 19.6 4.73794C20.2 5.28895 20.7 5.83997 21.2 6.39098C21.2 7.3828 21.2 8.48483 21.1 9.58685C21.3 9.80726 21.6 10.1379 21.8 10.4685C22.4 7.93383 23.1 5.28895 24.2 3.0849C24.7 2.09308 25.3 1.21146 26 0.440043C26.4 1.76248 26.5 3.96652 26.2 6.28077C25.9 8.81543 25.2 11.4603 24.4 13.3338C26.2 10.1379 27.7 6.2808 29.9 3.41553C30.9 2.2033 32 1.10125 33.4 0.329834C33.7 1.98287 33.4 3.96654 32.8 6.06039C31.5 10.3583 28.9 14.9868 27 17.8521C29.7 14.3256 32.4 10.7991 35.8 8.48483C37.4 7.3828 39.1 6.61141 41 6.1706C40.3 8.15424 39.1 10.1379 37.8 12.0113C35.8 14.7664 33.4 17.5214 31.2 20.0561C33 18.4031 35.3 17.7418 37.8 17.301C40.6 16.4194 43.4 16.4194 46.1 16.199Z" fill="white"/>
</g>
<g id="Group_2">
<path id="Vector_2" d="M46.9 21.4895C38.5 28.6527 32.9 34.7138 23.9 27.1099C23.2 26.4486 22.6 25.6772 22 25.016C21.9 25.1262 21.8 25.2364 21.7 25.3466C18.5 29.0935 14 30.3057 8.5 28.4323C7.2 27.9915 5.80002 27.3303 4.30002 26.4486C4.20002 26.4486 4.20001 26.3384 4.10001 26.3384C7.10001 25.1262 12.7 25.567 15.8 26.5588C13 25.2364 9.5 24.9058 6.4 23.8038C4.8 23.2528 3.2 22.3711 2 21.1589C2.3 21.0487 2.80001 20.9385 3.20001 20.8283C5.90002 20.2773 10.2 21.0487 12.7 22.2609C10.1 20.7181 7.10002 19.3957 4.70001 17.412C3.40001 16.4202 2.3 15.208 1.5 13.6651C2.8 13.3345 4.3 13.4447 5.9 13.8855C9.6 14.8774 13.8 17.5222 16.3 19.3957C13.3 16.861 10.4 14.4366 8.30002 11.1305C7.30002 9.47744 6.5 7.71419 6 5.62034C8.20001 6.50196 10.5 8.0448 12.6 9.91824C14.5 11.5713 16.3 13.3345 18 14.8774C15.9 12.2325 15.3 8.37538 14.9 4.62849C14.7 3.08565 14.6 1.54284 14.4 0C16.3 1.65304 18.1 3.19586 19.6 4.62849C20.2 5.17951 20.7 5.73052 21.2 6.28153C21.3 6.39173 21.4 6.50196 21.5 6.61216C22.2 5.39993 23.1 4.07751 24.1 2.86528L24.2 2.75507C24.4 4.51831 24.1 6.94277 23.5 9.36723C23.7 9.69783 23.9 10.0284 24.1 10.359C24.7 8.92641 25.4 7.38358 26.2 6.06115C27.2 4.2979 28.4 2.75507 29.9 1.65304C30 2.09385 30 2.64486 29.9 3.19587C29.7 6.39175 27.9 11.3509 26.1 13.8855C28.3 11.2407 30.3 8.04478 32.8 5.73052C34.1 4.51829 35.5 3.52647 37.2 2.97545C37.2 4.62849 36.7 6.28154 35.8 8.04478C33.9 12.1223 30.3 16.31 27.9 18.7345C31.1 15.8692 34.2 13.1141 37.9 11.5713C39.7 10.7999 41.6 10.2488 43.7 10.2488C42.3 12.6733 40.2 14.7671 37.9 16.7508C35.9 18.514 33.7 20.0569 31.8 21.7099C34.9 19.9467 38.6 20.2773 42.4 20.8283C43.9 21.1589 45.4 21.3793 46.9 21.4895Z" fill="#F48EA4"/>
</g>
<g id="Group_3">
<path id="Vector_3" d="M28.3002 22.812C31.1002 20.4978 34.6002 18.1835 36.3002 15.208C32.0002 15.3182 29.0002 18.0733 25.8002 20.8284C28.1002 18.5141 32.0002 13.8856 32.0002 10.3591C28.8002 11.4612 26.8002 14.8774 24.7002 17.5223C26.1002 15.5387 27.5002 11.351 27.2002 9.36731C25.5002 10.5795 24.5002 12.6734 23.5002 14.7672C23.4002 14.5468 23.2002 14.3264 23.1002 14.106C23.4002 12.6734 23.6002 11.2407 23.5002 10.1387C22.8002 10.9101 22.3002 11.6816 21.8002 12.5632C20.5002 11.2407 18.9002 9.91833 17.2002 8.37549C17.7002 11.7918 17.6002 15.7591 19.6002 18.2937C17.1002 15.9795 14.4002 13.1142 11.7002 12.1224C12.7002 16.3101 15.6002 18.7345 18.6002 21.2692C16.2002 19.5059 11.6002 16.7509 8.7002 17.4121C10.3002 20.3876 13.5002 21.4896 16.1002 23.0324C14.1002 22.0406 10.5002 21.5998 9.00018 22.3712C11.3002 24.7957 15.3002 24.6855 18.2002 26.0079C16.1002 25.3467 12.4002 25.1263 10.4002 25.8977C15.3002 28.8732 19.4002 28.3222 22.0002 25.2365C22.3002 25.6773 22.7002 26.1181 23.1002 26.4487C29.0002 31.518 32.8002 27.5508 38.4002 22.7018C35.0002 22.1508 31.2002 21.159 28.3002 22.812Z" fill="#DB657F"/>
</g>
</g>
</svg>
