<svg width="194" height="619" viewBox="0 0 194 619" fill="none" xmlns="http://www.w3.org/2000/svg">
<g id="Feuille-droite" clip-path="url(#clip0)">
<path id="Vector" d="M0 49.6376C3.28564 41.1629 25.0747 37.7039 25.0747 37.7039C25.0747 37.7039 93.9005 95.2973 210.628 150.815C293.634 190.249 364.88 213.77 405 225.531V239.54L383.557 231.757C383.557 231.757 369.204 289.351 352.43 295.404C328.565 304.052 287.754 287.448 287.754 287.448C287.754 287.448 353.467 248.188 333.407 234.352C313.348 220.516 294.325 285.373 275.303 283.471C256.281 281.568 233.8 269.115 233.8 269.115L286.544 189.211C286.544 189.211 231.379 264.273 227.056 264.446C222.56 264.619 209.763 256.49 209.763 256.49C209.763 256.49 273.747 180.39 272.536 181.601C271.499 182.812 202.5 253.896 202.5 253.896L163.591 235.217C163.591 235.217 236.913 174.856 226.537 170.013C216.161 164.998 165.147 231.066 159.095 231.757C153.042 232.449 128.313 214.116 128.313 214.116L182.267 152.199C182.267 152.199 127.795 206.333 119.494 205.642C111.193 205.123 99.7801 194.054 99.7801 194.054L151.313 144.243C151.313 144.243 99.953 185.406 93.7276 184.887C87.5021 184.368 70.3821 164.825 70.3821 164.825L120.705 122.105C120.705 122.105 70.5551 150.124 56.5478 145.108C42.5406 140.092 33.0294 123.489 33.0294 123.489L62.4274 109.998L29.7438 117.435L22.6537 103.945L76.9535 91.4923C76.9535 91.4923 31.9919 97.0269 22.3079 93.3948C12.7968 89.7628 3.28564 69.8732 3.28564 69.8732L46.5179 69.0084C46.345 69.3543 -3.11273 58.1124 0 49.6376Z" fill="url(#paint0_linear)"/>
<path id="Vector_2" d="M57.9313 583.026C57.9313 583.026 139.554 554.488 243.311 484.961C320.265 433.421 376.467 384.129 405 357.149V373.925L395.662 381.535C395.662 381.535 399.639 385.513 405 391.393V479.6C399.12 485.134 394.624 488.42 394.624 488.42C394.624 488.42 394.451 414.569 373.181 424.255C351.911 433.94 396.181 481.848 385.286 496.722C374.392 511.423 352.948 524.049 352.948 524.049L312.656 440.858C312.656 440.858 347.76 523.703 345.685 527.335C343.61 531.14 330.468 537.712 330.468 537.712C330.468 537.712 298.822 447.084 299.34 448.641C299.859 450.198 324.588 542.382 324.588 542.382L289.829 565.385C289.829 565.385 275.995 474.757 266.83 480.983C257.491 487.21 287.235 562.098 284.814 567.287C282.393 572.649 254.898 584.064 254.898 584.064L230.515 509.002C230.515 509.002 248.499 580.777 243.83 587.523C239.161 594.095 224.462 598.073 224.462 598.073L208.725 530.794C208.725 530.794 217.545 593.749 214.086 598.765C210.628 603.78 185.899 608.277 185.899 608.277L175.35 545.495C175.35 545.495 173.794 601.013 162.726 610.007C151.659 619.173 133.328 618.827 133.328 618.827L136.614 587.868L126.757 618.654L112.058 617.962L128.486 566.768C128.486 566.768 110.848 606.72 103.066 612.947C95.2839 619.173 74.1866 617.098 74.1866 617.098L94.7652 580.95C94.7652 580.95 61.044 616.406 55.6832 609.488C50.1494 602.742 57.9313 583.026 57.9313 583.026Z" fill="url(#paint1_linear)"/>
<path id="Vector_3" d="M130.216 398.139L177.771 417.164L135.058 393.988L166.012 374.098C166.012 374.098 243.139 421.66 251.093 404.538C259.048 387.416 176.734 370.293 176.734 370.293L245.387 349.539L315.077 405.23L256.454 348.847L281.702 352.133L348.279 394.68L291.732 345.907L375.948 369.601C389.782 378.422 399.121 387.934 405.173 395.198V422.871C400.85 428.578 394.451 435.497 385.113 443.625C359.866 465.072 322.686 477.697 322.686 477.697C322.686 477.697 392.376 421.141 358.136 416.126C323.723 411.11 306.431 472.854 306.431 472.854L233.627 487.556L285.333 417.855L226.537 481.848L209.763 483.405L252.131 427.887L199.042 478.389L135.75 475.622C135.75 475.622 202.154 441.723 188.839 434.113C166.358 421.141 126.93 470.433 126.93 470.433C126.93 470.433 82.1415 463.342 80.0663 448.641C77.9912 433.94 130.216 398.139 130.216 398.139Z" fill="url(#paint2_linear)"/>
<path id="Vector_4" d="M156.501 128.504C156.501 128.504 153.042 107.231 162.899 84.2283C172.756 61.2255 190.568 59.323 190.568 59.323C190.568 59.323 211.319 125.91 293.115 218.959C340.325 272.747 384.076 301.977 405 314.256V350.403L387.534 389.145L364.362 376.001L385.113 339.853L354.678 370.12L319.746 344.696L337.731 332.243L314.385 341.237L244.176 284.508C244.176 284.508 333.58 323.942 333.58 292.637C333.58 255.279 239.334 277.59 239.334 277.59L205.094 237.638L254.552 232.968L198.868 227.952L183.997 202.009L260.604 224.839L177.771 189.903L157.884 135.422C157.884 135.422 228.958 191.286 228.612 162.922C228.266 134.731 156.501 128.504 156.501 128.504Z" fill="url(#paint3_linear)"/>
<g id="Group">
<path id="Vector_5" d="M129.178 216.192C129.178 216.192 98.9155 209.966 95.4569 205.469C91.9983 200.972 97.0132 182.466 100.645 180.391C104.276 178.315 153.561 234.179 261.988 293.675C310.235 319.964 362.114 342.102 405 358.533V381.881L378.715 373.752C378.715 373.752 345.512 416.472 330.468 421.488C310.408 428.06 249.883 397.101 249.883 397.101C249.883 397.101 338.595 377.384 320.265 355.073C298.476 328.612 262.161 392.431 242.447 393.469C225.154 394.334 190.222 355.765 190.222 355.765L252.649 302.669C252.649 302.669 184.342 346.253 180.884 345.388C177.425 344.523 163.591 330.687 163.591 330.687L227.229 287.968C227.229 287.968 159.268 320.829 156.155 320.656C153.042 320.483 144.223 306.474 144.223 306.474L176.561 291.945C176.561 291.945 141.456 301.285 138.689 299.037C135.922 296.788 113.441 267.905 113.441 267.905C113.441 267.905 176.042 267.905 171.719 254.069C167.222 239.541 114.133 267.213 111.539 263.581C108.945 259.949 91.9983 216.711 91.9983 216.711L129.178 216.192Z" fill="url(#paint4_linear)"/>
<path id="Vector_6" opacity="0.34" d="M228.785 326.017C239.334 344.869 250.056 363.548 261.642 381.708C254.379 388.28 247.808 393.296 242.274 393.469C224.981 394.334 190.049 355.765 190.049 355.765L227.575 323.942C227.921 324.633 228.439 325.325 228.785 326.017Z" fill="url(#paint5_linear)"/>
<path id="Vector_7" opacity="0.34" d="M225.327 319.791C205.786 331.897 182.613 345.907 180.711 345.561C177.252 344.696 163.418 330.86 163.418 330.86L213.222 297.48C217.199 304.917 221.176 312.354 225.327 319.791Z" fill="url(#paint6_linear)"/>
<path id="Vector_8" opacity="0.34" d="M129.178 216.192C129.178 216.192 98.9154 209.965 95.4568 205.468C91.9982 200.972 97.0131 182.466 100.645 180.39C103.412 178.834 131.08 208.928 188.838 248.707C190.395 251.993 191.951 255.279 193.508 258.738C199.387 271.018 205.613 283.297 212.011 295.404C191.778 305.09 158.057 321.001 155.809 321.001C152.696 320.828 143.877 306.819 143.877 306.819L176.215 292.291C176.215 292.291 141.11 301.631 138.343 299.382C135.576 297.134 113.096 268.251 113.096 268.251C113.096 268.251 175.696 268.251 171.373 254.414C166.876 239.886 113.787 267.559 111.193 263.927C108.599 260.295 91.6523 217.056 91.6523 217.056L129.178 216.192Z" fill="url(#paint7_linear)"/>
</g>
</g>
<defs>
<linearGradient id="paint0_linear" x1="372.006" y1="332.119" x2="85.9099" y2="12.3591" gradientUnits="userSpaceOnUse">
<stop offset="0.0306513" stop-color="#052B00"/>
<stop offset="1" stop-color="#007200"/>
</linearGradient>
<linearGradient id="paint1_linear" x1="473.031" y1="439.435" x2="66.723" y2="518.698" gradientUnits="userSpaceOnUse">
<stop offset="0.0306513" stop-color="#052B00"/>
<stop offset="1" stop-color="#007200"/>
</linearGradient>
<linearGradient id="paint2_linear" x1="353.616" y1="335.975" x2="140.975" y2="520.81" gradientUnits="userSpaceOnUse">
<stop stop-color="#007C00"/>
<stop offset="1" stop-color="#055100"/>
</linearGradient>
<linearGradient id="paint3_linear" x1="432.756" y1="289.231" x2="131.779" y2="153.049" gradientUnits="userSpaceOnUse">
<stop stop-color="#056100"/>
<stop offset="1" stop-color="#29C200"/>
</linearGradient>
<linearGradient id="paint4_linear" x1="500.068" y1="273.196" x2="100.21" y2="312.448" gradientUnits="userSpaceOnUse">
<stop offset="0.0306513" stop-color="#052B00"/>
<stop offset="1" stop-color="#007200"/>
</linearGradient>
<linearGradient id="paint5_linear" x1="505.858" y1="332.161" x2="106.003" y2="371.413" gradientUnits="userSpaceOnUse">
<stop offset="0.0306513" stop-color="#053200"/>
<stop offset="1" stop-color="#37DE00"/>
</linearGradient>
<linearGradient id="paint6_linear" x1="501.869" y1="291.578" x2="102.018" y2="330.829" gradientUnits="userSpaceOnUse">
<stop offset="0.0306513" stop-color="#053200"/>
<stop offset="1" stop-color="#37DE00"/>
</linearGradient>
<linearGradient id="paint7_linear" x1="494.322" y1="214.648" x2="94.4632" y2="253.9" gradientUnits="userSpaceOnUse">
<stop offset="0.0306513" stop-color="#053200"/>
<stop offset="1" stop-color="#37DE00"/>
</linearGradient>
<clipPath id="clip0">
<rect width="405" height="619" fill="white" transform="matrix(-1 0 0 1 405 0)"/>
</clipPath>
</defs>
</svg>
